<?xml version="1.0" encoding="UTF-8" standalone="no"?>
<!-- Created with Inkscape (http://www.inkscape.org/) -->

<svg
   width="6.0348639mm"
   height="2.2443089mm"
   viewBox="0 0 6.0348639 2.2443089"
   version="1.1"
   id="svg6153"
   inkscape:version="1.1.2 (0a00cf5339, 2022-02-04)"
   sodipodi:docname="button_3.svg"
   xmlns:inkscape="http://www.inkscape.org/namespaces/inkscape"
   xmlns:sodipodi="http://sodipodi.sourceforge.net/DTD/sodipodi-0.dtd"
   xmlns="http://www.w3.org/2000/svg"
   xmlns:svg="http://www.w3.org/2000/svg">
  <sodipodi:namedview
     id="namedview6155"
     pagecolor="#ffffff"
     bordercolor="#666666"
     borderopacity="1.0"
     inkscape:pageshadow="2"
     inkscape:pageopacity="0.0"
     inkscape:pagecheckerboard="0"
     inkscape:document-units="mm"
     showgrid="false"
     fit-margin-top="0"
     fit-margin-left="0"
     fit-margin-right="0"
     fit-margin-bottom="0"
     inkscape:zoom="25.96312"
     inkscape:cx="12.806627"
     inkscape:cy="6.7403302"
     inkscape:window-width="1920"
     inkscape:window-height="1007"
     inkscape:window-x="1920"
     inkscape:window-y="0"
     inkscape:window-maximized="1"
     inkscape:current-layer="layer1" />
  <defs
     id="defs6150" />
  <g
     inkscape:label="Слой 1"
     inkscape:groupmode="layer"
     id="layer1"
     transform="translate(-71.001978,-39.922877)">
    <rect
       style="fill:#ffffff;stroke-width:0.1"
       id="rect6332"
       width="5.8348737"
       height="2.0443189"
       x="71.101974"
       y="40.022873" />
    <path
       d="m 92.341893,204.12505 c -0.138994,0 -0.264583,-0.002 -0.390525,0.001 -0.01446,7.1e-4 -0.04022,0.0243 -0.04057,0.0381 -0.0021,0.11642 -0.0011,0.23248 0.0032,0.3489 3.53e-4,0.0155 0.02328,0.0413 0.03669,0.042 0.116416,0.003 0.233539,0.002 0.349602,0 0.01411,-3.5e-4 0.03986,-0.0212 0.03986,-0.0325 0.0028,-0.13017 0.0018,-0.26 0.0018,-0.39793 z m 0.0822,0.21731 c 0,0.0607 0,0.12136 -7.05e-4,0.18239 0,0.0667 -0.0321,0.10795 -0.100189,0.10971 -0.130881,0.002 -0.262114,0.002 -0.393347,7.1e-4 -0.05927,-7.1e-4 -0.09596,-0.0335 -0.09631,-0.0956 -0.0018,-0.13123 -0.0018,-0.26211 0,-0.39299 3.53e-4,-0.0649 0.0381,-0.1009 0.100189,-0.10266 0.129117,-0.003 0.257528,-0.003 0.385939,3.5e-4 0.06632,10e-4 0.102306,0.042 0.103717,0.1083 0.0018,0.0632 7.05e-4,0.12665 7.05e-4,0.1898"
       style="display:inline;fill:#231f20;fill-opacity:1;fill-rule:nonzero;stroke:none;stroke-width:0.0352778"
       id="path3046" />
    <path
       d="m 92.338013,203.35494 c -0.134761,0 -0.26282,-0.001 -0.390878,0.001 -0.0127,3.5e-4 -0.03563,0.024 -0.03598,0.037 -0.0025,0.11642 -0.0018,0.23318 0.0014,0.34995 7.05e-4,0.0145 0.02011,0.0409 0.0314,0.0409 0.130175,0.003 0.260703,0.002 0.394053,0.002 z m 0.08608,0.21837 c 0,0.0607 0,0.12135 0,0.18274 -7.05e-4,0.0628 -0.0321,0.10618 -0.09525,0.10795 -0.135113,0.004 -0.270933,0.003 -0.4064,-3.6e-4 -0.05715,-0.001 -0.0889,-0.0385 -0.0889,-0.0963 -0.0011,-0.13088 -0.0011,-0.26176 0,-0.39264 0,-0.0621 0.03493,-0.0977 0.09455,-0.0988 0.130528,-0.003 0.261761,-0.005 0.392289,7.1e-4 0.07585,0.004 0.100894,0.0374 0.103716,0.1143 7.06e-4,0.0303 0,0.0607 0,0.091 0,0.0307 0,0.061 0,0.0914"
       style="display:inline;fill:#231f20;fill-opacity:1;fill-rule:nonzero;stroke:none;stroke-width:0.0352778"
       id="path3048" />
    <path
       d="m 92.665743,204.55544 h 0.279753 c 0.148872,0 0.148872,0 0.148872,-0.14958 0,-0.0928 0,-0.1852 0,-0.27587 h -0.428625 z m -0.08467,-0.21378 c 0,-0.061 -0.0021,-0.12171 7.05e-4,-0.18239 0.0035,-0.078 0.03634,-0.11359 0.111831,-0.11571 0.123825,-0.004 0.24765,-0.003 0.371475,0 0.06315,10e-4 0.106186,0.0332 0.106539,0.10336 3.52e-4,0.133 7.05e-4,0.26565 -0.0011,0.39864 -0.0011,0.0547 -0.03528,0.0871 -0.08855,0.0882 -0.132997,0.002 -0.266347,0.003 -0.399344,3.6e-4 -0.06385,-0.001 -0.09772,-0.0409 -0.100542,-0.10302 -0.0028,-0.0632 -7.06e-4,-0.12664 -7.06e-4,-0.18944"
       style="display:inline;fill:#231f20;fill-opacity:1;fill-rule:nonzero;stroke:none;stroke-width:0.0352778"
       id="path3050" />
    <path
       d="m 92.666096,203.35494 v 0.43074 c 0.134408,0 0.2667,10e-4 0.398992,-0.002 0.01094,-3.5e-4 0.02822,-0.0275 0.02858,-0.0427 0.0035,-0.0653 -7.06e-4,-0.13088 0.0032,-0.19614 0.0011,-0.0183 0.02081,-0.0356 0.03281,-0.0533 0.01482,0.0169 0.04233,0.0335 0.04304,0.0512 0.0032,0.0811 0.0067,0.16404 -0.0063,0.24377 -0.0046,0.0296 -0.05256,0.0727 -0.08255,0.0744 -0.135114,0.008 -0.270933,0.005 -0.405342,0.002 -0.06103,-0.001 -0.09419,-0.042 -0.0949,-0.10055 -0.0028,-0.12841 -0.0032,-0.25682 -7.06e-4,-0.38523 0.0014,-0.0628 0.03881,-0.0998 0.101953,-0.10231 0.07691,-0.003 0.154164,-0.005 0.230717,-0.001 0.0194,0.001 0.03669,0.0254 0.05503,0.0395 -0.0194,0.0134 -0.0388,0.0378 -0.05962,0.0392 -0.07867,0.005 -0.158045,0.002 -0.244828,0.002"
       style="display:inline;fill:#231f20;fill-opacity:1;fill-rule:nonzero;stroke:none;stroke-width:0.0352778"
       id="path3052" />
    <path
       d="m 89.318588,204.86377 h 5.834874 v -2.04432 h -5.834874 z"
       style="display:inline;fill:none;stroke:#231f20;stroke-width:0.19999;stroke-linecap:butt;stroke-linejoin:miter;stroke-miterlimit:22.926;stroke-dasharray:none;stroke-opacity:1"
       id="path3066" />
    <path
       d="m 74.125278,41.328474 c -0.138994,0 -0.264583,-0.0018 -0.390525,0.0014 -0.01446,7.06e-4 -0.04022,0.02434 -0.04057,0.0381 -0.0021,0.116417 -0.0011,0.232481 0.0032,0.348898 3.53e-4,0.01552 0.02328,0.04128 0.03669,0.04198 0.116416,0.0028 0.233539,0.0025 0.349602,0 0.01411,-3.53e-4 0.03986,-0.02117 0.03986,-0.03245 0.0028,-0.130175 0.0018,-0.259998 0.0018,-0.397934 z m 0.0822,0.217311 c 0,0.06068 0,0.121356 -7.05e-4,0.182386 0,0.06668 -0.0321,0.10795 -0.100189,0.109714 -0.130881,0.0025 -0.262114,0.0025 -0.393347,7.06e-4 -0.05927,-7.06e-4 -0.09596,-0.03351 -0.09631,-0.0956 -0.0018,-0.131233 -0.0018,-0.262114 0,-0.392994 3.53e-4,-0.06491 0.0381,-0.100895 0.100189,-0.102659 0.129117,-0.0025 0.257528,-0.0028 0.385939,3.53e-4 0.06632,0.0014 0.102306,0.04198 0.103717,0.108303 0.0018,0.06315 7.05e-4,0.126647 7.05e-4,0.189794"
       style="display:inline;fill:#231f20;fill-opacity:1;fill-rule:nonzero;stroke:none;stroke-width:0.0352778"
       id="path3046-3" />
    <path
       d="m 74.121398,40.55836 c -0.134761,0 -0.26282,-0.0011 -0.390878,0.0014 -0.0127,3.53e-4 -0.03563,0.02399 -0.03598,0.03704 -0.0025,0.116417 -0.0018,0.233186 0.0014,0.349956 7.05e-4,0.01446 0.02011,0.04092 0.0314,0.04092 0.130175,0.0032 0.260703,0.0021 0.394053,0.0021 z m 0.08608,0.21837 c 0,0.06068 0,0.121355 0,0.182739 -7.05e-4,0.06279 -0.0321,0.106186 -0.09525,0.10795 -0.135113,0.0042 -0.270933,0.0028 -0.4064,-3.53e-4 -0.05715,-0.0014 -0.0889,-0.03845 -0.0889,-0.09631 -0.0011,-0.130881 -0.0011,-0.261762 0,-0.392642 0,-0.06209 0.03493,-0.09772 0.09455,-0.09878 0.130528,-0.0028 0.261761,-0.0046 0.392289,7.06e-4 0.07585,0.0035 0.100894,0.03739 0.103716,0.1143 7.06e-4,0.03034 0,0.06068 0,0.09102 0,0.03069 0,0.06103 0,0.09137"
       style="display:inline;fill:#231f20;fill-opacity:1;fill-rule:nonzero;stroke:none;stroke-width:0.0352778"
       id="path3048-6" />
    <path
       d="m 74.449128,41.758863 h 0.279753 c 0.148872,0 0.148872,0 0.148872,-0.149578 0,-0.09278 0,-0.185208 0,-0.275872 h -0.428625 z m -0.08467,-0.213783 c 0,-0.06103 -0.0021,-0.121709 7.05e-4,-0.182386 0.0035,-0.07796 0.03634,-0.113595 0.111831,-0.115711 0.123825,-0.0035 0.24765,-0.0032 0.371475,0 0.06315,0.0011 0.106186,0.03316 0.106539,0.103363 3.52e-4,0.132998 7.05e-4,0.265642 -0.0011,0.398639 -0.0011,0.05468 -0.03528,0.08714 -0.08855,0.08819 -0.132997,0.0025 -0.266347,0.0028 -0.399344,3.53e-4 -0.06385,-0.0011 -0.09772,-0.04092 -0.100542,-0.103012 -0.0028,-0.06315 -7.06e-4,-0.126647 -7.06e-4,-0.189441"
       style="display:inline;fill:#231f20;fill-opacity:1;fill-rule:nonzero;stroke:none;stroke-width:0.0352778"
       id="path3050-7" />
    <path
       d="m 74.449481,40.55836 v 0.430742 c 0.134408,0 0.2667,0.0011 0.398992,-0.0018 0.01094,-3.53e-4 0.02822,-0.02752 0.02858,-0.04269 0.0035,-0.06526 -7.06e-4,-0.130881 0.0032,-0.196144 0.0011,-0.01835 0.02081,-0.03563 0.03281,-0.05327 0.01482,0.01693 0.04233,0.03351 0.04304,0.05115 0.0032,0.08114 0.0067,0.164042 -0.0063,0.243769 -0.0046,0.02963 -0.05256,0.07267 -0.08255,0.07444 -0.135114,0.0081 -0.270933,0.0053 -0.405342,0.0025 -0.06103,-0.0014 -0.09419,-0.04198 -0.0949,-0.100542 -0.0028,-0.128411 -0.0032,-0.256822 -7.06e-4,-0.385233 0.0014,-0.0628 0.03881,-0.09984 0.101953,-0.102306 0.07691,-0.0032 0.154164,-0.0046 0.230717,-0.0011 0.0194,0.0011 0.03669,0.0254 0.05503,0.03951 -0.0194,0.01341 -0.0388,0.03775 -0.05962,0.03916 -0.07867,0.0046 -0.158045,0.0018 -0.244828,0.0018"
       style="display:inline;fill:#231f20;fill-opacity:1;fill-rule:nonzero;stroke:none;stroke-width:0.0352778"
       id="path3052-5" />
    <path
       d="m 74.989937,40.522024 c -0.03246,0.02822 -0.0508,0.0441 -0.06879,0.05962 -0.01729,-0.02011 -0.0441,-0.03845 -0.04763,-0.06103 -0.0028,-0.01341 0.02752,-0.0448 0.04621,-0.04727 0.01658,-0.0025 0.03704,0.02399 0.0702,0.04868"
       style="display:inline;fill:#231f20;fill-opacity:1;fill-rule:nonzero;stroke:none;stroke-width:0.0352778"
       id="path3056" />
    <path
       d="m 71.101973,42.067191 h 5.834874 v -2.044319 h -5.834874 z"
       style="display:inline;fill:none;stroke:#231f20;stroke-width:0.19999;stroke-linecap:butt;stroke-linejoin:miter;stroke-miterlimit:22.926;stroke-dasharray:none;stroke-opacity:1"
       id="path3066-3" />
  </g>
</svg>
