<?xml version="1.0" encoding="UTF-8" standalone="no"?>
<!-- Created with Inkscape (http://www.inkscape.org/) -->

<svg
   width="3mm"
   height="3.0000005mm"
   viewBox="0 0 3 3.0000005"
   version="1.1"
   id="svg993"
   inkscape:version="1.1.2 (0a00cf5339, 2022-02-04)"
   sodipodi:docname="ui-1-5.svg"
   xmlns:inkscape="http://www.inkscape.org/namespaces/inkscape"
   xmlns:sodipodi="http://sodipodi.sourceforge.net/DTD/sodipodi-0.dtd"
   xmlns="http://www.w3.org/2000/svg"
   xmlns:svg="http://www.w3.org/2000/svg">
  <sodipodi:namedview
     id="namedview995"
     pagecolor="#ffffff"
     bordercolor="#666666"
     borderopacity="1.0"
     inkscape:pageshadow="2"
     inkscape:pageopacity="0.0"
     inkscape:pagecheckerboard="0"
     inkscape:document-units="mm"
     showgrid="false"
     fit-margin-top="0"
     fit-margin-left="0"
     fit-margin-right="0"
     fit-margin-bottom="0"
     inkscape:zoom="25.96312"
     inkscape:cx="-1.2132594"
     inkscape:cy="5.5463288"
     inkscape:window-width="1920"
     inkscape:window-height="1007"
     inkscape:window-x="1920"
     inkscape:window-y="0"
     inkscape:window-maximized="1"
     inkscape:current-layer="layer1" />
  <defs
     id="defs990" />
  <g
     inkscape:label="Слой 1"
     inkscape:groupmode="layer"
     id="layer1"
     transform="translate(-229.09006,-169.13664)">
    <rect
       style="fill:#ffffff;fill-opacity:1;stroke:#ffffff;stroke-width:0.105348;stroke-opacity:1"
       id="rect6506"
       width="2.8946519"
       height="2.8946524"
       x="229.14273"
       y="169.18932" />
    <path
       d="m 231.00106,170.77742 c 0.0145,0.004 0.03,0.006 0.0452,0.004 0.0113,-7.2e-4 0.0219,-0.005 0.0307,-0.0124 0.0226,-0.018 0.0441,-0.037 0.0649,-0.0575 0.018,-0.0176 0.0356,-0.0356 0.0533,-0.054 0.007,-0.009 0.0166,-0.0159 0.0272,-0.0205 0.004,-0.002 0.008,-0.003 0.012,-0.003 h 0.115 c 0.0148,-7.2e-4 0.0289,0.005 0.0399,0.0138 0.0346,0.0282 0.0677,0.0582 0.0998,0.0893 0.0166,0.0148 0.0317,0.0317 0.0452,0.0497 0.0169,0.0247 0.0268,0.054 0.0275,0.084 7.1e-4,0.0215 -0.002,0.043 -0.007,0.0639 -0.006,0.0208 -0.0272,0.0335 -0.0483,0.0296 -0.0116,-0.002 -0.0222,-0.008 -0.0286,-0.0183 -0.007,-0.01 -0.009,-0.0226 -0.006,-0.0342 0.004,-0.0155 0.005,-0.0321 0.004,-0.048 -0.001,-0.008 -0.004,-0.0162 -0.008,-0.0233 -0.012,-0.0148 -0.0243,-0.0289 -0.0385,-0.042 -0.008,-0.008 -0.0169,-0.0162 -0.0254,-0.024 v 0.23601 c 0,0.004 -3.5e-4,0.007 -0.001,0.0109 0.001,0.0459 0.006,0.0921 0.0116,0.13793 0.001,0.013 0.004,0.0257 0.008,0.0381 0.006,0.0116 0.0123,0.0222 0.0194,0.0321 0.0296,0.0395 0.0614,0.0776 0.0952,0.11324 0.0109,0.0116 0.0145,0.0279 0.0102,0.0427 -0.005,0.0148 -0.0169,0.0261 -0.0317,0.0296 -0.0152,0.003 -0.031,-0.001 -0.0409,-0.0127 -0.0321,-0.0332 -0.0621,-0.0681 -0.0903,-0.10477 -0.013,-0.0166 -0.0247,-0.0342 -0.0349,-0.0529 -0.007,-0.0127 -0.012,-0.0268 -0.0148,-0.0413 -0.007,-0.037 -0.0113,-0.0737 -0.0141,-0.11077 l -0.003,-0.0413 h -0.0275 c -0.0236,0.0346 -0.0462,0.0695 -0.067,0.10548 -0.008,0.0134 -0.0155,0.0272 -0.0212,0.0416 -0.007,0.024 -0.0116,0.0487 -0.0141,0.0734 -0.003,0.0317 -0.006,0.0635 -0.007,0.0949 7.1e-4,0.01 -0.001,0.0194 -0.006,0.0279 -0.0102,0.0173 -0.0303,0.0254 -0.0497,0.0198 -0.0187,-0.005 -0.0318,-0.024 -0.031,-0.0437 0.001,-0.0374 0.004,-0.0748 0.008,-0.11184 0.002,-0.0243 0.006,-0.0487 0.013,-0.0723 0.005,-0.0166 0.0116,-0.0325 0.0198,-0.0476 0.0187,-0.0353 0.0392,-0.0695 0.061,-0.10265 -0.006,-0.007 -0.009,-0.0166 -0.009,-0.0258 l -0.003,-0.21873 c -0.0176,0.0169 -0.0363,0.0332 -0.0557,0.048 -0.0254,0.018 -0.0547,0.0279 -0.0854,0.0286 -0.0243,0.001 -0.049,-0.003 -0.072,-0.0106 -0.0187,-0.006 -0.0303,-0.0243 -0.0286,-0.0441 0.001,-0.0191 0.0159,-0.0353 0.0353,-0.0392 l 10e-4,-3.4e-4 c 0.008,-7.1e-4 0.0159,0 0.024,0.003 z m 0.29739,-0.37148 h -0.004 c -0.0533,0 -0.0967,0.0427 -0.0977,0.096 -7.2e-4,0.0533 0.0416,0.0974 0.0949,0.0984 0.0533,0.001 0.0977,-0.0402 0.0995,-0.0935 0.002,-0.0533 -0.0392,-0.0981 -0.0924,-0.10089 z m -1.33879,-0.3369 v -0.25153 h 0.0737 v 0.21731 z m -0.23319,0.23001 0.84773,-0.38806 0.84772,0.38806 0.11254,-0.072 -0.96026,-0.43956 -0.42933,0.19614 V 169.706 h -0.29669 v 0.41381 l -0.2346,0.10724 z m 0.29986,1.26824 h 1.22485 c 0.0198,0 0.0385,-0.0106 0.0483,-0.0279 0.01,-0.0173 0.01,-0.0384 0,-0.0557 -0.01,-0.0173 -0.0286,-0.0279 -0.0483,-0.0279 h -1.22485 c -0.0314,0 -0.061,-0.0124 -0.0829,-0.0346 -0.0219,-0.0219 -0.0342,-0.0519 -0.0342,-0.0833 v -0.8382 h -0.11148 v 0.8382 c 0,0.061 0.024,0.11923 0.067,0.16227 0.0427,0.0427 0.1009,0.067 0.16158,0.067 z m 0.42274,-0.48967 c -0.0109,0.031 -0.0321,0.0579 -0.0603,0.0751 -0.025,0.0145 -0.0529,0.0222 -0.0815,0.0229 -0.024,0.002 -0.0483,-0.002 -0.0709,-0.01 -0.0346,-0.0134 -0.0617,-0.0392 -0.0769,-0.0727 -0.009,-0.0201 -0.0134,-0.0413 -0.0152,-0.0624 -0.002,-0.031 -0.001,-0.0621 0.002,-0.0928 l 0.11148,10e-4 c -0.002,0.0258 -0.002,0.0515 -7.1e-4,0.0773 0,0.0106 0.003,0.0205 0.007,0.0296 0.005,0.007 0.0109,0.013 0.0191,0.0162 0.012,0.004 0.0254,0.004 0.0377,0 0.0106,-0.004 0.0183,-0.0123 0.0212,-0.0233 0.003,-0.013 0.005,-0.0261 0.005,-0.0395 7.1e-4,-0.037 7.1e-4,-0.0737 0.001,-0.11077 7.2e-4,-0.0205 -3.4e-4,-0.0413 -0.002,-0.0617 -6.9e-4,-0.01 -0.005,-0.019 -0.0109,-0.0265 -0.008,-0.007 -0.0183,-0.0116 -0.0289,-0.0113 -0.0116,-0.001 -0.0229,0.005 -0.0282,0.0155 -0.003,0.009 -0.005,0.0191 -0.005,0.0289 -6.9e-4,0.0109 -3.4e-4,0.0215 7.2e-4,0.0328 h -0.11077 l 0.0109,-0.39229 h 0.28222 v 0.10795 h -0.17428 l -0.003,0.10901 c 0.002,-7.2e-4 0.004,-0.001 0.005,-0.002 0.0282,-0.0116 0.0596,-0.0134 0.0889,-0.005 0.0381,0.0102 0.0681,0.0392 0.0797,0.0769 0.005,0.0208 0.009,0.042 0.01,0.0635 10e-4,0.0413 10e-4,0.0822 0,0.12347 3.4e-4,0.0187 0,0.0374 -3.7e-4,0.0561 l -6.9e-4,0.0134 c -7.1e-4,0.0201 -0.004,0.0402 -0.0113,0.0593 z m 0.35419,-0.38806 -0.16863,0.16228 c -0.006,0.008 -0.0102,0.0169 -0.0113,0.0268 -0.002,0.0148 0.004,0.0296 0.0145,0.0395 l 0.16616,0.15734 c 0.01,0.01 0.0233,0.0145 0.0367,0.0134 0.0138,-10e-4 0.0261,-0.008 0.0342,-0.0194 0.0127,-0.0176 0.0123,-0.0416 -0.002,-0.0589 -0.001,-0.001 -0.002,-0.003 -0.004,-0.004 l -0.13088,-0.12382 0.12982,-0.12524 c 0.0138,-0.0127 0.0187,-0.0325 0.0127,-0.0501 -0.006,-0.0176 -0.0222,-0.03 -0.0409,-0.0314 l -0.003,-3.4e-4 c -0.0124,0 -0.0247,0.005 -0.0335,0.0138 z"
       style="display:inline;fill:none;stroke:#231f20;stroke-width:0.0201613;stroke-linecap:butt;stroke-linejoin:bevel;stroke-miterlimit:22.926;stroke-dasharray:none;stroke-opacity:1"
       id="path1172" />
  </g>
</svg>
