<?xml version="1.0" encoding="UTF-8" standalone="no"?>
<!-- Created with Inkscape (http://www.inkscape.org/) -->

<svg
   width="3mm"
   height="3.0000005mm"
   viewBox="0 0 3 3.0000005"
   version="1.1"
   id="svg1243"
   inkscape:version="1.1.2 (0a00cf5339, 2022-02-04)"
   sodipodi:docname="ui-1-2.svg"
   xmlns:inkscape="http://www.inkscape.org/namespaces/inkscape"
   xmlns:sodipodi="http://sodipodi.sourceforge.net/DTD/sodipodi-0.dtd"
   xmlns="http://www.w3.org/2000/svg"
   xmlns:svg="http://www.w3.org/2000/svg">
  <sodipodi:namedview
     id="namedview1245"
     pagecolor="#ffffff"
     bordercolor="#666666"
     borderopacity="1.0"
     inkscape:pageshadow="2"
     inkscape:pageopacity="0.0"
     inkscape:pagecheckerboard="0"
     inkscape:document-units="mm"
     showgrid="false"
     fit-margin-top="0"
     fit-margin-left="0"
     fit-margin-right="0"
     fit-margin-bottom="0"
     inkscape:zoom="36.717396"
     inkscape:cx="3.0367077"
     inkscape:cy="8.170514"
     inkscape:window-width="1920"
     inkscape:window-height="1007"
     inkscape:window-x="1920"
     inkscape:window-y="0"
     inkscape:window-maximized="1"
     inkscape:current-layer="layer1" />
  <defs
     id="defs1240" />
  <g
     inkscape:label="Слой 1"
     inkscape:groupmode="layer"
     id="layer1"
     transform="translate(-265.08203,-79.757423)">
    <rect
       style="fill:#ffffff;fill-opacity:1;stroke:#ffffff;stroke-width:0.105348;stroke-opacity:1"
       id="rect6506"
       width="2.8946519"
       height="2.8946524"
       x="265.1347"
       y="79.810097" />
    <path
       d="m 266.74742,81.62043 c -10e-4,-0.0035 -10e-4,-0.0074 -10e-4,-0.01094 v -0.246239 c -0.0187,0.01658 -0.0367,0.03387 -0.0536,0.05256 -0.006,0.0056 -0.0109,0.01199 -0.0145,0.01905 -0.006,0.01164 -0.008,0.02399 -0.008,0.03704 3.7e-4,0.0127 0.002,0.02505 0.005,0.03739 0.005,0.02399 -0.0102,0.04763 -0.0342,0.05292 -0.024,0.0053 -0.048,-0.01129 -0.054,-0.03492 -0.007,-0.02575 -0.009,-0.05221 -0.006,-0.07832 0.004,-0.03069 0.0166,-0.05997 0.0363,-0.08361 0.024,-0.02681 0.0494,-0.05186 0.0762,-0.07585 0.0201,-0.0187 0.0413,-0.03669 0.0624,-0.05397 0.0123,-0.012 0.0286,-0.0187 0.0462,-0.0187 h 0.1196 c 0.0127,0 0.0247,0.0056 0.0332,0.01446 0.0335,0.03704 0.0688,0.07197 0.10584,0.105128 0.01,0.0095 0.0205,0.01799 0.0321,0.02575 l 10e-4,7.14e-4 0.002,0.0014 c 0.0106,0.0049 0.0226,0.0074 0.0346,0.0067 0.0134,-7.14e-4 0.0272,-0.0028 0.0399,-0.0067 0.0236,-0.0067 0.0487,0.0067 0.0564,0.03034 0.003,0.01129 0.002,0.02399 -0.004,0.03422 -0.006,0.01094 -0.0159,0.0187 -0.0275,0.02223 -0.0279,0.0088 -0.0575,0.01235 -0.0875,0.0095 -0.0205,-0.0021 -0.0406,-0.0085 -0.0586,-0.0187 -0.0176,-0.01164 -0.0346,-0.02469 -0.0501,-0.03881 -0.008,-0.0071 -0.0162,-0.01446 -0.024,-0.02187 l -0.002,0.228247 c 0,0.0099 -0.003,0.0194 -0.01,0.02716 0.0215,0.03246 0.042,0.06562 0.0603,0.100189 0.0141,0.02469 0.024,0.05151 0.0293,0.07902 0.007,0.03598 0.0113,0.07232 0.013,0.108303 0.002,0.02152 0.003,0.04269 0.004,0.06421 0,0.02399 -0.0194,0.04374 -0.0434,0.04515 -0.0247,0.0011 -0.0455,-0.01834 -0.0473,-0.04269 -7.1e-4,-0.03634 -0.003,-0.07232 -0.007,-0.108303 -0.002,-0.02258 -0.006,-0.0448 -0.0123,-0.06668 -0.005,-0.01411 -0.0102,-0.02787 -0.0176,-0.04092 -0.0243,-0.04163 -0.0501,-0.08255 -0.0769,-0.122414 h -0.0293 c -0.002,0.04057 -0.006,0.08079 -0.0116,0.121003 -0.002,0.02011 -0.006,0.03951 -0.0123,0.05891 l -7.1e-4,0.0021 v 0.0014 c -0.009,0.0194 -0.0194,0.03775 -0.0317,0.05468 -0.0332,0.0448 -0.0691,0.08784 -0.10724,0.128411 -0.0162,0.01658 -0.0423,0.01905 -0.061,0.0046 -0.01,-0.0078 -0.0162,-0.0194 -0.0169,-0.03175 -0.001,-0.01305 0.004,-0.0254 0.0123,-0.03457 0.0328,-0.03457 0.0639,-0.07091 0.0928,-0.109007 0.009,-0.01094 0.0169,-0.02258 0.0233,-0.03528 0.004,-0.0099 0.007,-0.02011 0.009,-0.03069 10e-4,-0.0056 0.002,-0.01164 0.003,-0.01693 l 10e-4,-0.0088 c 0.006,-0.04551 0.01,-0.09066 0.0113,-0.136174 z m 0.0102,-0.540808 c 0,0.05398 0.0423,0.09878 0.0967,0.101247 h 0.005 c 0.0409,0 0.078,-0.02469 0.0938,-0.06244 0.0159,-0.03775 0.007,-0.08185 -0.0219,-0.110772 -0.0293,-0.02893 -0.0727,-0.03775 -0.11077,-0.02187 -0.0381,0.01588 -0.0628,0.05256 -0.0628,0.09384 z m -0.82656,-0.390172 v -0.251531 h 0.0741 v 0.217312 z m -0.23283,0.230363 0.84737,-0.388055 0.84773,0.388055 0.11289,-0.07197 -0.96062,-0.439913 -0.42933,0.196497 v -0.277283 h -0.29668 V 80.7406 l -0.23425,0.107244 z m 0.29986,1.267884 h 1.22449 c 0.0201,0 0.0385,-0.01058 0.0483,-0.02752 0.01,-0.01764 0.01,-0.0388 0,-0.05574 -0.01,-0.01764 -0.0282,-0.02787 -0.0483,-0.02787 h -1.22449 c -0.0314,0 -0.0614,-0.01235 -0.0829,-0.03457 -0.0222,-0.02187 -0.0346,-0.05186 -0.0346,-0.0829 v -0.838906 h -0.11148 v 0.838906 c 0,0.06068 0.024,0.118886 0.0674,0.161925 0.0427,0.04269 0.1009,0.06668 0.16158,0.06668 z m 0.43004,-0.403931 h -0.31468 v -0.102658 c 0.0462,-0.07973 0.0924,-0.160161 0.13758,-0.240242 0.0141,-0.02328 0.0265,-0.04763 0.0381,-0.07232 0.0113,-0.02575 0.0176,-0.05397 0.0187,-0.0822 10e-4,-0.01411 10e-4,-0.02858 3.7e-4,-0.04304 -3.7e-4,-0.01094 -0.003,-0.02117 -0.008,-0.03069 -0.005,-0.01058 -0.0159,-0.01693 -0.0275,-0.01764 -0.006,-0.0011 -0.0124,-3.44e-4 -0.0187,0.0018 -0.009,0.0049 -0.0159,0.01305 -0.0194,0.02293 -0.002,0.01023 -0.004,0.02117 -0.004,0.0321 v 0.110772 h -0.10972 c -6.9e-4,-0.03563 -6.9e-4,-0.07126 0,-0.107245 0,-0.01658 10e-4,-0.03351 0.003,-0.05009 0.002,-0.02399 0.0109,-0.04727 0.025,-0.06668 0.0169,-0.02328 0.0413,-0.03986 0.0688,-0.04798 0.0307,-0.0092 0.0639,-0.0095 0.0949,-0.0011 0.0349,0.01094 0.0646,0.03457 0.0825,0.06667 0.0106,0.01976 0.0176,0.04128 0.0212,0.0635 0.0109,0.07197 -3.4e-4,0.146403 -0.0328,0.211666 -0.008,0.01623 -0.0166,0.0321 -0.0254,0.04727 l -0.1143,0.197555 h 0.18415 z m 0.89229,-0.438163 c -0.0127,0.01905 -0.01,0.04445 0.007,0.06068 l 0.13052,0.123472 c -0.0434,0.04233 -0.0871,0.08467 -0.13052,0.126648 l -7.1e-4,7.14e-4 c -0.0141,0.02223 -0.008,0.05151 0.0141,0.06632 0.0222,0.01446 0.0381,0.02223 0.0533,3.44e-4 l 0.16828,-0.162278 c 0.008,-0.0099 0.0123,-0.02258 0.0116,-0.03563 -7.2e-4,-0.01164 -0.006,-0.02258 -0.0145,-0.03069 l -0.16652,-0.157339 c -0.01,-0.0099 -0.0236,-0.01482 -0.0381,-0.0134 -0.0138,0.0018 -0.0265,0.0092 -0.0342,0.02117 z"
       style="display:inline;fill:none;stroke:#231f20;stroke-width:0.0201613;stroke-linecap:butt;stroke-linejoin:bevel;stroke-miterlimit:22.926;stroke-dasharray:none;stroke-opacity:1"
       id="path1230" />
  </g>
</svg>
