<?xml version="1.0" encoding="UTF-8" standalone="no"?>
<!-- Created with Inkscape (http://www.inkscape.org/) -->

<svg
   width="3mm"
   height="3.0000005mm"
   viewBox="0 0 2.9999999 3.0000004"
   version="1.1"
   id="svg2402"
   inkscape:version="1.1.2 (0a00cf5339, 2022-02-04)"
   sodipodi:docname="ui-1-1.svg"
   xmlns:inkscape="http://www.inkscape.org/namespaces/inkscape"
   xmlns:sodipodi="http://sodipodi.sourceforge.net/DTD/sodipodi-0.dtd"
   xmlns="http://www.w3.org/2000/svg"
   xmlns:svg="http://www.w3.org/2000/svg">
  <sodipodi:namedview
     id="namedview2404"
     pagecolor="#ffffff"
     bordercolor="#666666"
     borderopacity="1.0"
     inkscape:pageshadow="2"
     inkscape:pageopacity="0.0"
     inkscape:pagecheckerboard="0"
     inkscape:document-units="mm"
     showgrid="false"
     fit-margin-top="0"
     fit-margin-left="0"
     fit-margin-right="0"
     fit-margin-bottom="0"
     inkscape:zoom="51.926239"
     inkscape:cx="4.689344"
     inkscape:cy="7.7417507"
     inkscape:window-width="1920"
     inkscape:window-height="1007"
     inkscape:window-x="1920"
     inkscape:window-y="0"
     inkscape:window-maximized="1"
     inkscape:current-layer="layer1"
     width="32.555mm"
     lock-margins="true" />
  <defs
     id="defs2399" />
  <g
     inkscape:label="Слой 1"
     inkscape:groupmode="layer"
     id="layer1"
     transform="translate(-161.38052,-81.330596)">
    <rect
       style="fill:#ffffff;fill-opacity:1;stroke:#ffffff;stroke-width:0.105348;stroke-opacity:1"
       id="rect6506"
       width="2.8946519"
       height="2.8946524"
       x="161.4332"
       y="81.38327" />
    <path
       d="m 162.67734,82.851409 c -0.0212,-0.02399 -0.0533,-0.03563 -0.085,-0.03104 -0.0275,0.0032 -0.0529,0.01835 -0.0688,0.04127 l -0.0162,0.02328 c 0,3.44e-4 -0.001,7.15e-4 -0.002,7.15e-4 -6.9e-4,-3.44e-4 -10e-4,-7.15e-4 -10e-4,-0.0014 v -0.113601 c -0.001,-0.0053 -0.002,-0.01094 -0.004,-0.01658 l 0.0116,-0.0081 c 0.0247,0.02469 0.0593,0.03634 0.0938,0.0321 0.0346,-0.0049 0.0649,-0.02469 0.0825,-0.05503 0.0212,-0.03704 0.0194,-0.08255 -0.004,-0.117828 -0.024,-0.03563 -0.0653,-0.05433 -0.1076,-0.04868 -0.06,0.0071 -0.10336,0.06138 -0.0974,0.121355 0.002,0.01341 0.006,0.02681 0.0113,0.03916 l -0.0123,0.0085 c -0.012,-0.0078 -0.0265,-0.01023 -0.0402,-0.0071 -0.024,0.006 -0.0406,0.02752 -0.0402,0.05221 v 0.839611 h 0.10901 v -0.280824 h 0.21873 v 0.280811 h 0.1083 v -0.340079 c 3.5e-4,-0.01799 -0.007,-0.03528 -0.0198,-0.04868 -0.004,-0.0049 -0.0106,-0.0081 -0.0176,-0.0095 l 0.001,-0.02046 c 0.0257,-3.44e-4 0.0515,7.14e-4 0.0773,0.0028 0.01,0 0.0194,0.0018 0.0286,0.0046 l 0.001,7.15e-4 c 0.005,7.14e-4 0.008,0.0035 0.01,0.0078 0.002,0.01164 0.004,0.02293 0.004,0.03422 0.003,0.0702 0.004,0.140407 0.004,0.210961 -3.5e-4,0.01799 -3.5e-4,0.03598 3.4e-4,0.05433 -6.9e-4,0.01976 0.01,0.0381 0.0268,0.04763 0.0219,0.01305 0.0494,0.01058 0.0684,-0.0064 0.0113,-0.01129 0.0173,-0.02716 0.0173,-0.04304 v -0.345369 c 7.2e-4,-0.02681 -0.0116,-0.05221 -0.0335,-0.06773 -0.0138,-0.0099 -0.0303,-0.01482 -0.0476,-0.01482 h -0.1972 l -0.0571,-0.176392 c -0.004,-0.01835 -0.0116,-0.03528 -0.024,-0.04939 z m -0.0515,0.332669 c 0.008,0.0028 0.0162,0.0049 0.0247,0.0063 l -0.002,0.02046 h -0.14428 v -0.277585 c 0,-7.15e-4 3.4e-4,-0.0014 0.001,-0.0014 0.001,-3.44e-4 0.002,3.44e-4 0.002,0.0011 l 0.0646,0.186972 c 0.005,0.02928 0.0257,0.05362 0.054,0.06421 z m -0.52143,-0.490714 v 0.838906 c 0,0.06068 0.024,0.118886 0.067,0.161925 0.0427,0.04269 0.10089,0.06668 0.16157,0.06668 v 0 h 1.09537 v 0 c 0.1263,0 0.22931,-0.102306 0.22931,-0.2286 h -0.11183 c 0,0.03104 -0.0123,0.06068 -0.0346,0.0829 -0.0219,0.02187 -0.0515,0.03457 -0.0829,0.03457 h -1.09538 c -0.031,0 -0.0614,-0.01235 -0.0829,-0.03457 -0.0219,-0.02187 -0.0346,-0.05186 -0.0346,-0.0829 v -0.838906 z m 0.16157,-0.430741 v -0.251531 h 0.0741 v 0.217312 z m -0.23319,0.230363 0.84808,-0.388055 0.84737,0.388055 0.11254,-0.07197 -0.95991,-0.439913 -0.42933,0.196497 v -0.277283 h -0.29669 v 0.413456 l -0.23459,0.107244 z m 1.52823,0.256823 -0.0134,0.0194 -0.0169,0.01482 c -0.007,0.0035 -0.013,0.0071 -0.0201,0.01094 l -0.0219,0.0074 -0.0268,0.0049 -0.0434,0.0018 v 0.07091 h 0.11429 v 0.50553 h 0.10937 v -0.68333 h -0.0649 l -0.006,0.02399 z"
       style="display:inline;fill:none;stroke:#231f20;stroke-width:0.0201613;stroke-linecap:butt;stroke-linejoin:bevel;stroke-miterlimit:22.926;stroke-dasharray:none;stroke-opacity:1"
       id="path968" />
  </g>
  <g
     inkscape:groupmode="layer"
     id="layer2"
     inkscape:label="Слой 2"
     transform="translate(-1.0604983,-0.58254089)" />
</svg>
