<?xml version="1.0" encoding="UTF-8" standalone="no"?>
<!-- Created with Inkscape (http://www.inkscape.org/) -->

<svg
   width="3mm"
   height="3.0000005mm"
   viewBox="0 0 3 3.0000005"
   version="1.1"
   id="svg1370"
   inkscape:version="1.1.2 (0a00cf5339, 2022-02-04)"
   sodipodi:docname="ui-1-3.svg"
   xmlns:inkscape="http://www.inkscape.org/namespaces/inkscape"
   xmlns:sodipodi="http://sodipodi.sourceforge.net/DTD/sodipodi-0.dtd"
   xmlns="http://www.w3.org/2000/svg"
   xmlns:svg="http://www.w3.org/2000/svg">
  <sodipodi:namedview
     id="namedview1372"
     pagecolor="#ffffff"
     bordercolor="#666666"
     borderopacity="1.0"
     inkscape:pageshadow="2"
     inkscape:pageopacity="0.0"
     inkscape:pagecheckerboard="0"
     inkscape:document-units="mm"
     showgrid="false"
     fit-margin-top="0"
     fit-margin-left="0"
     fit-margin-right="0"
     fit-margin-bottom="0"
     inkscape:zoom="51.926239"
     inkscape:cx="3.5531169"
     inkscape:cy="12.151852"
     inkscape:window-width="1920"
     inkscape:window-height="1007"
     inkscape:window-x="1920"
     inkscape:window-y="0"
     inkscape:window-maximized="1"
     inkscape:current-layer="layer1" />
  <defs
     id="defs1367" />
  <g
     inkscape:label="Слой 1"
     inkscape:groupmode="layer"
     id="layer1"
     transform="translate(-260.45032,-144.69409)">
    <rect
       style="fill:#ffffff;fill-opacity:1;stroke:#ffffff;stroke-width:0.105348;stroke-opacity:1"
       id="rect6506"
       width="2.8946519"
       height="2.8946524"
       x="260.50299"
       y="144.74677" />
    <path
       d="m 262.66449,145.96989 h -0.005 c -0.0533,0 -0.0967,0.0427 -0.0974,0.0956 -7.2e-4,0.0533 0.0416,0.0974 0.0949,0.0988 0.0529,0.001 0.0977,-0.0402 0.0998,-0.0935 0.002,-0.0529 -0.0392,-0.0981 -0.0924,-0.10089 z m 0.17568,0.46038 c -3.4e-4,-0.007 -0.002,-0.013 -0.005,-0.0194 -0.003,-0.007 -0.008,-0.0134 -0.013,-0.0187 -0.0169,-0.0187 -0.0353,-0.0367 -0.054,-0.0533 v 0.236 c 0,0.004 -7.1e-4,0.007 -0.002,0.0106 0.002,0.0522 0.007,0.10407 0.0148,0.15557 0.002,0.0106 0.005,0.0212 0.01,0.031 0.007,0.012 0.0152,0.024 0.024,0.0349 0.0268,0.0353 0.0554,0.0688 0.0857,0.10054 0.0169,0.0162 0.018,0.042 0.003,0.0596 -0.0148,0.0173 -0.0444,0.0169 -0.0621,0.003 -0.007,-0.006 -0.0127,-0.0123 -0.0183,-0.019 -0.0328,-0.0356 -0.0631,-0.0734 -0.0914,-0.11218 -0.0106,-0.0152 -0.0194,-0.0303 -0.0265,-0.0469 -0.006,-0.0176 -0.0102,-0.0356 -0.0123,-0.054 -0.006,-0.0406 -0.01,-0.0815 -0.0116,-0.12206 h -0.0282 c -0.0201,0.0296 -0.0399,0.0607 -0.0586,0.091 -0.0109,0.0183 -0.0212,0.037 -0.0293,0.0564 -0.007,0.0198 -0.0109,0.0406 -0.013,0.0614 -0.005,0.0378 -0.008,0.0762 -0.008,0.115 -7.1e-4,0.0148 -0.009,0.0289 -0.0229,0.036 -0.013,0.007 -0.0289,0.007 -0.0423,-0.001 -0.0159,-0.01 -0.0243,-0.0289 -0.0205,-0.0473 0.001,-0.0381 0.004,-0.0759 0.008,-0.11359 0.004,-0.0265 0.01,-0.0529 0.0173,-0.0783 0.006,-0.0145 0.012,-0.0286 0.0197,-0.042 0.0176,-0.0318 0.0363,-0.0628 0.0565,-0.0931 -0.002,-0.002 -0.004,-0.005 -0.005,-0.008 -0.002,-0.005 -0.004,-0.0109 -0.005,-0.0166 -7.1e-4,-0.0737 -0.002,-0.14676 -0.002,-0.21978 -0.006,0.005 -0.0113,0.0102 -0.0169,0.0155 -0.0169,0.0152 -0.0346,0.0296 -0.054,0.0423 -0.0187,0.0106 -0.0395,0.0169 -0.061,0.0183 -0.0268,0.002 -0.0533,-0.001 -0.079,-0.009 -0.0226,-0.007 -0.0363,-0.03 -0.03,-0.0529 0.006,-0.0229 0.0303,-0.0363 0.0533,-0.031 0.013,0.004 0.0265,0.006 0.0399,0.007 0.0116,3.4e-4 0.0229,-0.002 0.0335,-0.007 0.0127,-0.008 0.0247,-0.0173 0.0356,-0.0279 0.0293,-0.0265 0.0582,-0.0536 0.0857,-0.0818 0.005,-0.008 0.0113,-0.0145 0.0194,-0.0201 0.007,-0.006 0.0159,-0.01 0.0257,-0.0109 h 0.11465 c 0.0162,0 0.0325,0.006 0.0437,0.0176 0.0176,0.0145 0.0353,0.0293 0.0522,0.0444 0.0282,0.0254 0.0554,0.0519 0.0808,0.0804 0.0194,0.0222 0.031,0.0497 0.0346,0.0787 0.003,0.0254 0.001,0.0515 -0.005,0.0762 -0.003,0.0109 -0.01,0.0205 -0.0191,0.0265 -0.009,0.006 -0.0215,0.008 -0.0324,0.006 -0.0222,-0.005 -0.0367,-0.0261 -0.0328,-0.0487 0.002,-0.01 0.004,-0.0197 0.005,-0.0296 v -0.002 c 0,-0.006 0,-0.0116 -10e-4,-0.0176 z m -1.5265,-0.80398 v -0.25153 h 0.0744 v 0.21731 z m -0.23283,0.23036 0.84807,-0.38806 0.84738,0.38806 0.11253,-0.0723 -0.95991,-0.43991 -0.42968,0.19685 v -0.27764 h -0.29633 v 0.41346 l -0.2346,0.10724 z m 0.29986,1.26788 h 1.22484 c 0.0201,0 0.0384,-0.0106 0.0483,-0.0279 0.01,-0.0173 0.01,-0.0385 0,-0.0557 -0.01,-0.0173 -0.0282,-0.0279 -0.0483,-0.0279 h -1.22484 c -0.031,0 -0.061,-0.0123 -0.0829,-0.0342 -0.0222,-0.0219 -0.0342,-0.0519 -0.0342,-0.0833 v -0.83855 h -0.11148 v 0.83855 c 0,0.0607 0.024,0.11889 0.0674,0.16193 0.0427,0.043 0.1009,0.067 0.16122,0.067 z m 0.14887,-1.03929 c -0.005,0.0205 -0.007,0.0416 -0.008,0.0628 -10e-4,0.0219 -10e-4,0.0441 7.1e-4,0.0656 h 0.0977 c -0.004,-0.0261 -0.004,-0.0526 -3.4e-4,-0.079 3.4e-4,-0.01 0.004,-0.0187 0.009,-0.0268 0.005,-0.01 0.0155,-0.0152 0.0265,-0.0148 0.009,-0.001 0.0187,3.4e-4 0.0272,0.005 0.008,0.005 0.0138,0.012 0.0162,0.0208 0.002,0.0109 0.003,0.0222 0.004,0.0332 0.002,0.0205 0.002,0.0416 10e-4,0.0621 -6.9e-4,0.0127 -0.003,0.025 -0.009,0.0363 -0.005,0.0102 -0.0141,0.018 -0.0251,0.0215 -0.0208,0.005 -0.0423,0.006 -0.0635,0.001 l -0.002,0.10371 c 0.0201,-0.005 0.0406,-0.006 0.0603,-0.002 0.0106,0.001 0.0201,0.006 0.0275,0.0124 0.006,0.007 0.01,0.0141 0.0123,0.0219 0.004,0.0187 0.006,0.0381 0.006,0.0575 -6.8e-4,0.0198 -10e-4,0.0392 -10e-4,0.0589 3.4e-4,0.0127 -0.002,0.0254 -0.006,0.037 -0.005,0.012 -0.0152,0.0212 -0.0275,0.0247 -0.0138,0.005 -0.0293,0.004 -0.042,-0.002 -0.012,-0.006 -0.0201,-0.0169 -0.0226,-0.0296 -0.002,-0.0159 -0.003,-0.0314 -0.003,-0.0473 -6.9e-4,-0.0162 -3.5e-4,-0.0325 0.001,-0.049 l -0.0974,-0.001 c -0.002,0.0261 -0.002,0.0519 -0.002,0.0776 0,0.0194 0.002,0.0388 0.007,0.0575 0.007,0.0272 0.0233,0.0508 0.0466,0.0663 0.0265,0.0162 0.0572,0.0258 0.0885,0.0272 0.0265,0.002 0.0529,-0.002 0.0769,-0.0138 0.0374,-0.018 0.0656,-0.0512 0.0762,-0.0914 0.005,-0.0229 0.009,-0.0469 0.009,-0.0706 0,-0.0321 -0.002,-0.0642 -0.005,-0.0963 -6.8e-4,-0.0162 -0.005,-0.0321 -0.0102,-0.0466 -0.008,-0.0201 -0.0236,-0.037 -0.0423,-0.0476 0.0187,-0.0113 0.0321,-0.0289 0.0384,-0.0497 0.005,-0.0183 0.008,-0.037 0.008,-0.0557 0.002,-0.0272 10e-4,-0.0547 -0.002,-0.0818 -6.8e-4,-0.0201 -0.006,-0.0402 -0.0131,-0.0589 -0.0123,-0.0293 -0.0349,-0.0522 -0.0639,-0.0646 -0.025,-0.0106 -0.0522,-0.0141 -0.079,-0.012 -0.0159,0.001 -0.0307,0.004 -0.0459,0.009 -0.0113,0.004 -0.0222,0.0102 -0.0317,0.0176 l -0.004,0.003 c -0.0169,0.0159 -0.0289,0.036 -0.0353,0.0582 z m 0.65204,0.16792 -0.16862,0.16263 c -0.006,0.008 -0.0102,0.0169 -0.0116,0.0268 -0.001,0.0148 0.004,0.0293 0.0148,0.0399 l 0.16616,0.15699 c 0.01,0.01 0.0233,0.0145 0.0367,0.0134 0.0138,-0.001 0.0265,-0.008 0.0342,-0.0194 0.0127,-0.0176 0.0123,-0.042 -10e-4,-0.0589 -10e-4,-0.001 -0.002,-0.002 -0.003,-0.004 l -0.13124,-0.12312 0.13018,-0.12559 c 0.0134,-0.0127 0.018,-0.0321 0.012,-0.0501 -0.006,-0.0176 -0.0219,-0.03 -0.0402,-0.0314 l -0.004,-3.4e-4 c -0.0127,-3.5e-4 -0.025,0.005 -0.0339,0.0134 z"
       style="display:inline;fill:none;stroke:#231f20;stroke-width:0.0201613;stroke-linecap:butt;stroke-linejoin:bevel;stroke-miterlimit:22.926;stroke-dasharray:none;stroke-opacity:1"
       id="path926" />
  </g>
</svg>
