<?xml version="1.0" encoding="UTF-8" standalone="no"?>
<!-- Created with Inkscape (http://www.inkscape.org/) -->

<svg
   width="3mm"
   height="3.0000005mm"
   viewBox="0 0 3 3.0000005"
   version="1.1"
   id="svg870"
   inkscape:version="1.1.2 (0a00cf5339, 2022-02-04)"
   sodipodi:docname="ui-1-4.svg"
   xmlns:inkscape="http://www.inkscape.org/namespaces/inkscape"
   xmlns:sodipodi="http://sodipodi.sourceforge.net/DTD/sodipodi-0.dtd"
   xmlns="http://www.w3.org/2000/svg"
   xmlns:svg="http://www.w3.org/2000/svg">
  <sodipodi:namedview
     id="namedview872"
     pagecolor="#ffffff"
     bordercolor="#666666"
     borderopacity="1.0"
     inkscape:pageshadow="2"
     inkscape:pageopacity="0.0"
     inkscape:pagecheckerboard="0"
     inkscape:document-units="mm"
     showgrid="false"
     fit-margin-top="0"
     fit-margin-left="0"
     fit-margin-right="0"
     fit-margin-bottom="0"
     inkscape:zoom="32"
     inkscape:cx="2.015625"
     inkscape:cy="6.0625"
     inkscape:window-width="1920"
     inkscape:window-height="1007"
     inkscape:window-x="1920"
     inkscape:window-y="0"
     inkscape:window-maximized="1"
     inkscape:current-layer="layer1" />
  <defs
     id="defs867" />
  <g
     inkscape:label="Слой 1"
     inkscape:groupmode="layer"
     id="layer1"
     transform="translate(-284.89285,-221.25)">
    <rect
       style="fill:#ffffff;fill-opacity:1;stroke:#ffffff;stroke-width:0.105348;stroke-opacity:1"
       id="rect6506"
       width="2.8946519"
       height="2.8946524"
       x="284.94553"
       y="221.30267" />
    <path
       d="m 286.68134,222.47997 c -0.054,0 -0.0984,0.0427 -0.10089,0.097 v 0.004 c 0,0.0409 0.0247,0.0783 0.0628,0.0935 0.0381,0.0159 0.0815,0.007 0.11042,-0.0222 0.0289,-0.0289 0.0374,-0.0723 0.0215,-0.11042 -0.0159,-0.0377 -0.0526,-0.0621 -0.0938,-0.0621 z m 0.17745,0.78317 c 0.008,0.0201 0.0145,0.0413 0.0183,0.0628 0.007,0.0392 0.0113,0.0783 0.013,0.11818 0.001,0.0152 0.002,0.0303 0.002,0.0459 0,0.0243 -0.019,0.0445 -0.043,0.0455 -0.0247,7.1e-4 -0.0459,-0.0183 -0.0473,-0.043 -7.1e-4,-0.0381 -0.003,-0.0762 -0.008,-0.11395 -0.002,-0.0219 -0.006,-0.043 -0.012,-0.0639 -0.005,-0.013 -0.0102,-0.0257 -0.0173,-0.0377 -0.024,-0.0416 -0.0497,-0.0825 -0.0773,-0.12276 h -0.0282 c -0.002,0.0406 -0.006,0.0811 -0.0116,0.121 -0.002,0.0201 -0.007,0.0399 -0.0123,0.0589 l -7.1e-4,0.002 -0.001,0.002 c -0.008,0.0187 -0.0183,0.037 -0.0303,0.0536 -0.0307,0.0413 -0.0635,0.0815 -0.0988,0.11924 -0.004,0.006 -0.009,0.0102 -0.0141,0.0148 -0.0176,0.0159 -0.0445,0.0159 -0.0617,-7.2e-4 -0.0169,-0.0162 -0.0145,-0.0476 0.001,-0.0656 0.0332,-0.0346 0.0639,-0.0709 0.0924,-0.10901 0.009,-0.0113 0.0169,-0.0229 0.0236,-0.0353 0.004,-0.01 0.007,-0.0201 0.009,-0.0307 0.008,-0.0536 0.013,-0.10759 0.0152,-0.16157 -0.001,-0.004 -0.001,-0.007 -0.001,-0.0113 v -0.24659 c -0.019,0.0169 -0.0367,0.0342 -0.0536,0.0529 -0.006,0.006 -0.0106,0.012 -0.0152,0.019 -0.005,0.0116 -0.008,0.0247 -0.007,0.0374 7.2e-4,0.0131 0.002,0.0254 0.005,0.0381 0.002,0.0123 -0.002,0.025 -0.01,0.0349 -0.008,0.01 -0.0198,0.0159 -0.0321,0.0166 -0.0219,0.001 -0.0413,-0.0134 -0.0459,-0.0346 -0.007,-0.0254 -0.009,-0.0522 -0.006,-0.0783 0.004,-0.031 0.0159,-0.0603 0.036,-0.0843 0.0243,-0.0265 0.0501,-0.0522 0.0773,-0.0759 0.0201,-0.0187 0.0409,-0.0367 0.0617,-0.0543 0.0127,-0.0113 0.0286,-0.0176 0.0455,-0.018 h 0.1203 c 0.0123,3.4e-4 0.0243,0.006 0.0328,0.0145 0.0335,0.0374 0.0688,0.072 0.10583,0.10548 0.01,0.01 0.0208,0.018 0.0321,0.0254 l 10e-4,10e-4 0.001,7.2e-4 c 0.0106,0.005 0.0222,0.008 0.0339,0.007 0.0141,-3.5e-4 0.0279,-0.002 0.0413,-0.007 0.0116,-0.004 0.024,-0.002 0.0342,0.004 0.0102,0.006 0.0183,0.0155 0.0219,0.0268 0.003,0.0116 0.002,0.024 -0.004,0.0346 -0.006,0.0109 -0.0152,0.0187 -0.0268,0.0222 -0.0247,0.008 -0.0504,0.0113 -0.0762,0.01 -0.0247,-7.2e-4 -0.0487,-0.007 -0.0702,-0.0194 -0.0173,-0.0113 -0.0342,-0.0243 -0.0501,-0.0384 -0.008,-0.007 -0.0159,-0.0145 -0.024,-0.0222 l -0.002,0.2286 c 0,0.01 -0.004,0.0194 -0.01,0.0272 0.0106,0.0162 0.0212,0.0328 0.0314,0.0497 l 0.007,0.012 c 0.0127,0.0201 0.024,0.0413 0.0342,0.0628 z m -1.1296,-1.08091 v -0.25153 h 0.0745 v 0.21731 z m -0.23283,0.23036 0.84843,-0.38841 0.84738,0.38841 0.11253,-0.0727 -0.95991,-0.43956 -0.42933,0.1965 v -0.27729 h -0.29704 v 0.41346 l -0.23424,0.10689 z m 0.30022,1.26788 h 1.22484 c 0.0201,0 0.0381,-0.0106 0.048,-0.0282 0.0102,-0.0169 0.0102,-0.0381 0,-0.0554 -0.01,-0.0173 -0.0279,-0.0279 -0.048,-0.0279 h -1.22484 c -0.031,0 -0.061,-0.0123 -0.0829,-0.0346 -0.0222,-0.0219 -0.0346,-0.0519 -0.0346,-0.0833 v -0.83855 h -0.11113 v 0.83855 c 0,0.061 0.024,0.11924 0.067,0.16228 0.043,0.043 0.10054,0.067 0.16157,0.067 z m 0.38805,-1.08833 v 0.44486 h 0.0564 v 0.10795 h -0.0564 v 0.14887 h -0.11253 v -0.14887 h -0.16687 v -0.11254 l 0.13511,-0.44027 z m -0.0942,0.44486 h -0.10089 m 0.10089,0 0.004,-0.35172 m 0,0 -0.10442,0.35172 m 1.40018,0.0176 -0.002,0.005 -0.1711,0.16546 c -0.0194,0.0187 -0.0494,0.018 -0.0681,-7.2e-4 -0.008,-0.009 -0.0134,-0.0215 -0.013,-0.0339 3.5e-4,-0.0131 0.006,-0.0247 0.0148,-0.0335 l 0.13017,-0.12559 -0.13123,-0.12347 c -0.0176,-0.0176 -0.019,-0.0459 -0.003,-0.0653 0.009,-0.01 0.0208,-0.0155 0.0335,-0.0162 0.0131,-7.1e-4 0.0254,0.004 0.0353,0.0123 l 0.16722,0.15805 c 0.0152,0.0152 0.0187,0.0388 0.008,0.0575 z"
       style="display:inline;fill:none;stroke:#231f20;stroke-width:0.0201613;stroke-linecap:butt;stroke-linejoin:bevel;stroke-miterlimit:22.926;stroke-dasharray:none;stroke-opacity:1"
       id="path1114" />
  </g>
</svg>
