<?xml version="1.0" encoding="UTF-8" standalone="no"?>
<!-- Created with Inkscape (http://www.inkscape.org/) -->

<svg
   width="3mm"
   height="3.0000005mm"
   viewBox="0 0 3 3.0000005"
   version="1.1"
   id="svg1116"
   inkscape:version="1.1.2 (0a00cf5339, 2022-02-04)"
   sodipodi:docname="ui-1-6.svg"
   xmlns:inkscape="http://www.inkscape.org/namespaces/inkscape"
   xmlns:sodipodi="http://sodipodi.sourceforge.net/DTD/sodipodi-0.dtd"
   xmlns="http://www.w3.org/2000/svg"
   xmlns:svg="http://www.w3.org/2000/svg">
  <sodipodi:namedview
     id="namedview1118"
     pagecolor="#ffffff"
     bordercolor="#666666"
     borderopacity="1.0"
     inkscape:pageshadow="2"
     inkscape:pageopacity="0.0"
     inkscape:pagecheckerboard="0"
     inkscape:document-units="mm"
     showgrid="false"
     fit-margin-top="0"
     fit-margin-left="0"
     fit-margin-right="0"
     fit-margin-bottom="0"
     inkscape:zoom="36.717396"
     inkscape:cx="4.8886909"
     inkscape:cy="5.801065"
     inkscape:window-width="1920"
     inkscape:window-height="1007"
     inkscape:window-x="1920"
     inkscape:window-y="0"
     inkscape:window-maximized="1"
     inkscape:current-layer="layer1" />
  <defs
     id="defs1113" />
  <g
     inkscape:label="Слой 1"
     inkscape:groupmode="layer"
     id="layer1"
     transform="translate(-244.30901,-98.114906)">
    <rect
       style="fill:#ffffff;fill-opacity:1;stroke:#ffffff;stroke-width:0.105348;stroke-opacity:1"
       id="rect6506"
       width="2.8946519"
       height="2.8946524"
       x="244.36168"
       y="98.16758" />
    <path
       d="m 245.56286,99.942636 c -0.0342,-0.01623 -0.0741,-0.01376 -0.10689,0.0053 -0.0321,0.0194 -0.0526,0.05327 -0.0543,0.09137 l -3.5e-4,0.006 c 0,0.0557 0.0413,0.10336 0.0963,0.11147 0.0554,0.008 0.10865,-0.0258 0.12488,-0.079 0.0159,-0.054 -0.009,-0.110769 -0.0596,-0.134758 z m 0.68722,0.0127 c 0.025,0.01517 0.0451,0.03598 0.06,0.06068 0.012,0.018 0.0183,0.0395 0.0183,0.0617 v 0.0854 h -0.65263 v -0.249771 h 0.43039 0.003 c 0.0497,-3.44e-4 0.0995,0.01446 0.14075,0.04198 z m -0.91017,-0.141817 h -0.0755 c -0.007,0 -0.0134,0.0056 -0.0138,0.01341 v 0.566201 c 0,0.004 0.001,0.007 0.004,0.01 0.002,0.002 0.006,0.004 0.01,0.004 h 0.0755 c 0.004,0 0.007,-0.002 0.009,-0.004 0.003,-0.002 0.004,-0.006 0.004,-0.01 v -0.0889 h 0.89182 v 0.0889 c 0,0.004 10e-4,0.007 0.004,0.01 0.003,0.002 0.006,0.004 0.01,0.004 h 0.0561 c 0.007,0 0.0138,-0.006 0.0138,-0.0138 v -0.16474 c 0,-0.006 -0.002,-0.0116 -0.006,-0.0159 -0.005,-0.004 -0.0102,-0.007 -0.0162,-0.007 h -0.95285 v -0.378883 c 0,-0.0035 -0.001,-0.0071 -0.004,-0.0095 -0.003,-0.0025 -0.006,-0.0039 -0.009,-0.0039 z m -0.17075,-0.76694 v -0.250825 h 0.0744 v 0.217311 z m -0.23283,0.230716 0.84808,-0.388407 0.84772,0.388407 0.11219,-0.07197 -0.95991,-0.440268 -0.42933,0.19685 v -0.277278 h -0.29669 v 0.413454 l -0.23495,0.107246 z m 0.29986,1.267885 h 1.22485 c 0.0201,0 0.0381,-0.0106 0.0483,-0.0279 0.01,-0.0173 0.01,-0.0384 0,-0.0557 -0.0102,-0.0169 -0.0282,-0.0275 -0.0483,-0.0275 h -1.22485 c -0.031,0 -0.061,-0.0123 -0.0829,-0.0346 -0.0222,-0.0219 -0.0342,-0.0519 -0.0342,-0.0833 v -0.838201 h -0.11148 v 0.838201 c 0,0.061 0.024,0.11888 0.0674,0.16192 0.0427,0.043 0.1009,0.067 0.16122,0.067 z m 1.24154,-0.548231 c -7.2e-4,0.02081 6.9e-4,0.04163 0.004,0.06174 0.004,0.0286 0.0166,0.0554 0.0356,0.0769 0.0201,0.0222 0.0473,0.0374 0.0765,0.0427 0.024,0.004 0.0487,0.005 0.0727,7.1e-4 0.0314,-0.004 0.06,-0.0183 0.0822,-0.0406 0.0166,-0.0176 0.0275,-0.0392 0.0328,-0.0628 0.003,-0.0194 0.005,-0.0388 0.006,-0.0582 0.002,-0.04374 0.003,-0.08784 0.002,-0.13123 0,-0.02152 -0.002,-0.04269 -0.007,-0.06315 -0.003,-0.01587 -0.009,-0.0314 -0.018,-0.04515 -0.0215,-0.03034 -0.0557,-0.04939 -0.0924,-0.05186 -0.0289,-0.0018 -0.0582,0.0049 -0.0829,0.02011 0,-0.01164 -3.4e-4,-0.02399 -7.1e-4,-0.03598 0,-0.02434 7.1e-4,-0.04904 0.002,-0.07303 3.7e-4,-0.0095 0.002,-0.01905 0.005,-0.02787 0.005,-0.0127 0.0176,-0.02152 0.0318,-0.02223 0.008,-7.14e-4 0.0159,0 0.0233,0.0025 0.007,0.0025 0.0123,0.0067 0.0159,0.01235 0.003,0.0063 0.005,0.0134 0.005,0.02011 7.1e-4,0.02434 3.4e-4,0.04833 -3.5e-4,0.07267 h 0.1076 c 0.002,-0.0254 0.003,-0.05115 0.002,-0.07655 3.5e-4,-0.02046 -0.004,-0.04092 -0.0116,-0.05997 -0.0148,-0.0321 -0.042,-0.0568 -0.0748,-0.0695 -0.0254,-0.0081 -0.0522,-0.01164 -0.0787,-0.0099 -0.0212,3.44e-4 -0.042,0.0053 -0.061,0.01517 -0.0194,0.01058 -0.0363,0.0254 -0.0487,0.0441 -0.0162,0.0254 -0.0258,0.05503 -0.0275,0.08537 -0.002,0.03246 -0.002,0.06456 -10e-4,0.09701 v 0.05221 l -7.2e-4,0.05256 c 0,0.0575 0,0.1143 -6.8e-4,0.171803 z m 0.13052,0.06985 c 0.0127,0.008 0.0293,0.009 0.0427,0.002 0.0127,-0.007 0.0212,-0.0198 0.0233,-0.0339 7.1e-4,-0.0141 0.001,-0.0282 0.001,-0.04269 0.001,-0.03528 0.001,-0.07056 0.001,-0.106186 0,-0.0099 -0.002,-0.01976 -0.006,-0.02928 -0.006,-0.01446 -0.0201,-0.02364 -0.036,-0.02469 -0.008,-0.0011 -0.0166,7.14e-4 -0.0236,0.0042 -0.008,0.0056 -0.0148,0.01305 -0.018,0.02223 -0.002,0.0067 -0.004,0.01411 -0.004,0.02117 -3.5e-4,0.0039 -3.5e-4,0.0081 -3.5e-4,0.01199 v 0.123827 c -3.4e-4,0.008 3.5e-4,0.0166 0.002,0.0243 l 10e-4,0.004 c 0.002,0.01 0.007,0.0176 0.0159,0.0229 z m -1.02975,-0.300567 h -0.0564 v -0.06174 h 0.17004 l -0.0709,0.111125 h 0.0557 v 0.06174 h -0.16793 z m 0.25223,-0.01658 h -0.13723 l 0.048,-0.07726 h -0.031 v -0.05221 h 0.12736 l -0.0494,0.07726 h 0.0423 z"
       style="display:inline;fill:none;stroke:#231f20;stroke-width:0.0201613;stroke-linecap:butt;stroke-linejoin:bevel;stroke-miterlimit:22.926;stroke-dasharray:none;stroke-opacity:1"
       id="path1268" />
  </g>
</svg>
