<?xml version="1.0" encoding="UTF-8" standalone="no"?>
<!-- Created with Inkscape (http://www.inkscape.org/) -->

<svg
   width="32.555mm"
   height="28mm"
   viewBox="0 0 32.554999 28"
   version="1.1"
   id="svg2402"
   inkscape:version="1.1.2 (0a00cf5339, 2022-02-04)"
   sodipodi:docname="ui-5.svg"
   xmlns:inkscape="http://www.inkscape.org/namespaces/inkscape"
   xmlns:sodipodi="http://sodipodi.sourceforge.net/DTD/sodipodi-0.dtd"
   xmlns="http://www.w3.org/2000/svg"
   xmlns:svg="http://www.w3.org/2000/svg">
  <sodipodi:namedview
     id="namedview2404"
     pagecolor="#ffffff"
     bordercolor="#666666"
     borderopacity="1.0"
     inkscape:pageshadow="2"
     inkscape:pageopacity="0.0"
     inkscape:pagecheckerboard="0"
     inkscape:document-units="mm"
     showgrid="false"
     fit-margin-top="0"
     fit-margin-left="0"
     fit-margin-right="0"
     fit-margin-bottom="0"
     inkscape:zoom="12.109808"
     inkscape:cx="92.115418"
     inkscape:cy="32.618189"
     inkscape:window-width="1920"
     inkscape:window-height="1007"
     inkscape:window-x="1920"
     inkscape:window-y="0"
     inkscape:window-maximized="1"
     inkscape:current-layer="layer1"
     width="32.555mm" />
  <defs
     id="defs2399" />
  <g
     inkscape:label="Слой 1"
     inkscape:groupmode="layer"
     id="layer1"
     transform="translate(-158.23335,-77.651352)">
    <rect
       style="fill:#ffffff;fill-opacity:1;stroke:#ffffff;stroke-width:0.0982064;stroke-opacity:1"
       id="rect6506"
       width="32.456882"
       height="27.901794"
       x="158.28246"
       y="77.700455" />
    <path
       d="m 166.93378,88.474241 c 0,-0.09948 -0.0804,-0.179916 -0.17957,-0.179916 -0.0995,0 -0.18027,0.08043 -0.18027,0.179916 0,0.09913 0.0808,0.179917 0.18027,0.179917 0.0991,0 0.17957,-0.08079 0.17957,-0.179917 z m 0.10018,-1.137708 c 0,-0.09948 -0.0811,-0.180269 -0.18062,-0.180269 -0.0991,0 -0.17991,0.08079 -0.17991,0.180269 0,0.09948 0.0808,0.18027 0.17991,0.18027 0.0995,0 0.18062,-0.08079 0.18062,-0.18027 z m 0.34114,12.571943 c 0,-0.07585 -0.0614,-0.136878 -0.13652,-0.136878 -0.0755,0 -0.13688,0.06103 -0.13688,0.136878 0,0.07514 0.0614,0.136524 0.13688,0.136524 0.0751,0 0.13652,-0.06138 0.13652,-0.136524 z m 18.15536,-18.086565 c 0,-0.05786 -0.0469,-0.104775 -0.10548,-0.104775 -0.0575,0 -0.10513,0.04692 -0.10513,0.104775 0,0.05856 0.0476,0.10548 0.10513,0.10548 0.0586,0 0.10548,-0.04692 0.10548,-0.10548 z m -2.4444,7.862711 v -0.0039 c 0,-0.08961 -0.0723,-0.162278 -0.16193,-0.162984 -0.0892,-3.53e-4 -0.16263,0.07126 -0.16368,0.160867 -0.001,0.08925 0.0699,0.162983 0.15945,0.164747 0.0896,0.0018 0.16369,-0.06914 0.16616,-0.15875 z m 0.14887,0.0035 v -0.0074 c 0,-0.17145 -0.13793,-0.31115 -0.30974,-0.312209 -0.1718,-0.0011 -0.31185,0.136525 -0.31432,0.308328 -0.002,0.17145 0.13511,0.312561 0.30656,0.316089 0.17145,0.0028 0.31327,-0.132997 0.3175,-0.3048 z m 0.95885,1.555044 0.2219,0.196498 -0.21343,0.158044 h -0.55069 l -0.1905,-0.162983 0.20179,-0.191559 z m -0.93662,0.01764 0.15275,0.130175 0.20884,-0.198261 0.0875,-0.997303 -0.1852,-0.201789 -0.16652,0.1524 z m 1.06715,-1.110544 h -0.56868 l -0.18485,-0.201789 0.16651,-0.153106 h 0.65264 l 0.1464,0.160514 z m -0.93098,3.019072 0.2674,0.291395 -0.0646,0.738011 -0.20425,0.187325 -0.16863,-0.18415 0.0709,-0.811036 c 0.007,-0.0829 0.0423,-0.16122 0.0991,-0.221545 z m 0.20461,1.441803 h 0.51717 l 0.20426,-0.187678 -0.16863,-0.183797 h -0.51717 l -0.2039,0.187325 z m -0.40111,1.045634 0.29528,-0.270581 0.0646,-0.737658 -0.16828,-0.183798 -0.20426,0.186973 -0.0649,0.743302 c -0.009,0.09419 0.0194,0.187678 0.0776,0.261762 z m 0.88794,0.141816 c 0.0833,0 0.16405,-0.02822 0.22966,-0.07938 l -0.2674,-0.291747 h -0.51718 l -0.29527,0.270228 c 0.0688,0.06491 0.15981,0.100894 0.25435,0.100894 z m 0.17569,-2.746375 c 0.0938,0 0.18521,0.03598 0.25364,0.100189 l -0.29527,0.270933 h -0.51717 l -0.26741,-0.291747 c 0.0656,-0.05151 0.1464,-0.07937 0.22966,-0.07937 z m -4.96076,-3.045178 0.58878,0.642408 -0.14252,1.625248 -0.44979,0.41275 -0.37148,-0.405342 0.15628,-1.786819 c 0.0159,-0.182739 0.0928,-0.354542 0.21873,-0.488245 z m 2.55128,0.05398 -0.65052,0.596195 -0.14217,1.624894 0.37113,0.405342 0.45014,-0.41275 0.14323,-1.636889 c 0.018,-0.207081 -0.0434,-0.413103 -0.17181,-0.576792 z m -2.10149,3.121378 h 1.13912 l 0.45049,-0.412397 -0.37112,-0.404989 h -1.13947 l -0.45014,0.41275 z m 1.88701,1.870075 0.15663,-1.787172 -0.37148,-0.404636 -0.44979,0.412397 -0.14217,1.625247 0.58844,0.642761 c 0.12559,-0.134055 0.20249,-0.305858 0.21837,-0.488597 z m -2.77002,0.43427 0.65088,-0.595842 0.14182,-1.6256 -0.37113,-0.404636 -0.44979,0.412397 -0.14323,1.636889 c -0.0183,0.20708 0.043,0.413455 0.17145,0.576792 z m 1.95545,0.311855 c 0.1838,0 0.3616,-0.06174 0.50553,-0.174978 l -0.58878,-0.642408 h -1.13877 l -0.65017,0.595842 c 0.15134,0.142522 0.35172,0.221544 0.55986,0.221544 z m 0.38629,-6.049434 c 0.20779,0 0.40817,0.07902 0.55986,0.221545 l -0.65052,0.596194 h -1.13877 l -0.58878,-0.642761 c 0.14428,-0.113241 0.32244,-0.174978 0.50553,-0.174978 z m 3.048,3.715103 -0.0642,0.737659 0.16369,0.178858 h 0.0102 l 0.19897,-0.182033 0.0649,-0.743303 c 0.008,-0.09384 -0.0194,-0.187678 -0.078,-0.261408 z m 0.26917,1.184276 -0.16369,-0.178506 h -0.0102 l -0.19896,0.181681 -0.0646,0.738011 0.2674,0.291747 c 0.0568,-0.06068 0.0921,-0.138994 0.0991,-0.221897 z m -15.06961,-8.107893 0.28187,0.307623 -0.0681,0.777875 -0.21554,0.197555 -0.17745,-0.194028 0.0748,-0.855486 c 0.008,-0.08714 0.0445,-0.169686 0.10442,-0.233539 z m 0.21555,1.519767 h 0.54504 l 0.2159,-0.197203 -0.17744,-0.194027 h -0.54575 l -0.2152,0.197555 z m -0.42263,1.103136 0.31151,-0.285397 0.0677,-0.777522 -0.17745,-0.194028 -0.2152,0.197203 -0.0691,0.783519 c -0.008,0.09948 0.0212,0.197909 0.0826,0.276225 z m 0.93592,0.149225 c 0.0878,0 0.17322,-0.02928 0.24201,-0.08396 l -0.28152,-0.307269 h -0.54539 l -0.31115,0.285044 c 0.0723,0.06844 0.16827,0.106186 0.26776,0.106186 z m 0.18521,-2.8956 c 0.0991,0 0.19509,0.0381 0.26776,0.106186 l -0.31115,0.285045 h -0.54539 l -0.28152,-0.30727 c 0.0688,-0.05468 0.15381,-0.08396 0.24165,-0.08396 z m -0.004,0.434622 -0.0684,0.777875 0.17251,0.188384 h 0.0113 l 0.20955,-0.191911 0.0681,-0.78352 c 0.009,-0.09913 -0.0205,-0.197908 -0.0822,-0.275872 z m 0.28328,1.248834 -0.17286,-0.188736 h -0.0109 l -0.20955,0.191911 -0.0681,0.777875 0.28187,0.307975 c 0.06,-0.06421 0.0974,-0.146756 0.10442,-0.233892 z m -3.13901,-1.559984 0.28186,0.307623 -0.0681,0.777875 -0.21554,0.197555 -0.17745,-0.194028 0.0748,-0.855486 c 0.007,-0.08714 0.0444,-0.169686 0.10442,-0.233539 z m 0.2159,1.519767 h 0.54468 l 0.2159,-0.197203 -0.1778,-0.194027 h -0.54539 l -0.21519,0.197555 z m -0.42299,1.103136 0.31115,-0.285397 0.0681,-0.777522 -0.1778,-0.194028 -0.21519,0.197203 -0.0688,0.783519 c -0.008,0.09948 0.0208,0.197909 0.0825,0.276225 z m 0.93592,0.149225 c 0.0878,0 0.17322,-0.02928 0.24236,-0.08396 l -0.28187,-0.307269 h -0.54539 l -0.3115,0.285044 c 0.0727,0.06844 0.16827,0.106186 0.26811,0.106186 z m 0.18486,-2.8956 c 0.0998,0 0.19544,0.0381 0.26811,0.106186 l -0.3115,0.285045 h -0.5454 l -0.28187,-0.30727 c 0.0691,-0.05468 0.15452,-0.08396 0.24201,-0.08396 z m -0.004,0.434622 -0.0681,0.777875 0.17286,0.188384 h 0.0113 l 0.2092,-0.191911 0.0688,-0.78352 c 0.008,-0.09913 -0.0208,-0.197908 -0.0825,-0.275872 z m 0.28363,1.248834 -0.17251,-0.188736 h -0.0109 l -0.2099,0.191911 -0.0677,0.777875 0.28187,0.307975 c 0.06,-0.06421 0.097,-0.146756 0.10478,-0.233892 z m -3.61421,-1.559984 0.28187,0.307623 -0.0681,0.777875 -0.21554,0.197555 -0.1778,-0.194028 0.0748,-0.855486 c 0.008,-0.08714 0.0448,-0.169686 0.10477,-0.233539 z m 0.21555,1.519767 h 0.5454 l 0.21519,-0.197203 -0.17745,-0.194027 h -0.54504 l -0.2159,0.197555 z m -0.42263,1.103136 0.31115,-0.285397 0.0681,-0.777522 -0.17744,-0.194028 -0.2159,0.197203 -0.0681,0.783519 c -0.009,0.09948 0.0201,0.197909 0.0822,0.276225 z m 0.93592,0.149225 c 0.0878,0 0.17286,-0.02928 0.24201,-0.08396 l -0.28187,-0.307269 h -0.5454 l -0.31115,0.285044 c 0.0723,0.06844 0.16828,0.106186 0.26776,0.106186 z m 0.18486,-2.8956 c 0.0995,0 0.19508,0.0381 0.26811,0.106186 l -0.31186,0.285045 h -0.54504 l -0.28151,-0.30727 c 0.0688,-0.05468 0.15416,-0.08396 0.242,-0.08396 z m -0.004,0.434622 -0.0681,0.777875 0.17251,0.188384 h 0.0113 l 0.20955,-0.191911 0.0688,-0.78352 c 0.008,-0.09913 -0.0212,-0.197908 -0.0825,-0.275872 z m 0.28398,1.248834 -0.1725,-0.188736 h -0.0116 l -0.2092,0.191911 -0.0677,0.777875 0.28152,0.307975 c 0.0603,-0.06421 0.0967,-0.146756 0.10442,-0.233892 z m -3.13936,-1.559984 0.28186,0.307623 -0.0681,0.777875 -0.21554,0.197555 -0.17745,-0.194028 0.0748,-0.855486 c 0.007,-0.08714 0.0444,-0.169686 0.10442,-0.233539 z m 0.21554,1.519767 h 0.5454 l 0.21519,-0.197203 -0.17709,-0.194027 h -0.5454 l -0.21554,0.197555 z m -0.42263,1.103136 0.31151,-0.285397 0.0677,-0.777522 -0.1771,-0.194028 -0.2159,0.197203 -0.0684,0.783519 c -0.009,0.09948 0.0205,0.197909 0.0822,0.276225 z m 0.93628,0.149225 c 0.0875,0 0.17286,-0.02928 0.24165,-0.08396 l -0.28152,-0.307269 h -0.54539 l -0.31115,0.285044 c 0.0727,0.06844 0.16827,0.106186 0.26776,0.106186 z m 0.18521,-2.8956 c 0.0988,0 0.19473,0.0381 0.2674,0.106186 l -0.31115,0.285045 h -0.54539 l -0.28152,-0.30727 c 0.0688,-0.05468 0.15381,-0.08396 0.24165,-0.08396 z m -0.004,0.434622 -0.0677,0.777875 0.1725,0.188384 h 0.0109 l 0.20955,-0.191911 0.0684,-0.78352 c 0.009,-0.09913 -0.0208,-0.197908 -0.0822,-0.275872 z m 0.28363,1.248834 -0.17251,-0.188736 h -0.0113 l -0.2092,0.191911 -0.0681,0.777875 0.28152,0.307975 c 0.0603,-0.06421 0.097,-0.146756 0.10442,-0.233892 z m 10.98656,1.906411 0.58843,0.642408 -0.14217,1.625248 -0.45014,0.41275 -0.37077,-0.405342 0.15593,-1.786819 c 0.0159,-0.182739 0.0928,-0.354542 0.21872,-0.488245 z m 2.55129,0.05398 -0.65053,0.596195 -0.14252,1.624894 0.37112,0.405342 0.4505,-0.41275 0.14323,-1.636889 c 0.0183,-0.207081 -0.0434,-0.413103 -0.1718,-0.576792 z m -2.1015,3.121378 h 1.13947 L 177.36403,92.77 176.9929,92.365011 h -1.13912 l -0.45049,0.41275 z m 1.88701,1.870075 0.15663,-1.787172 -0.37147,-0.404636 -0.45015,0.412397 -0.14182,1.625247 0.58809,0.642761 c 0.12594,-0.134055 0.20284,-0.305858 0.21872,-0.488597 z m -2.77001,0.43427 0.65087,-0.595842 0.14182,-1.6256 -0.37112,-0.404636 -0.4498,0.412397 -0.14358,1.636889 c -0.0176,0.20708 0.0434,0.413455 0.17181,0.576792 z m 1.95544,0.311855 c 0.1838,0 0.36195,-0.06174 0.50589,-0.174978 l -0.58844,-0.642408 h -1.13947 l -0.65017,0.595842 c 0.15134,0.142522 0.35137,0.221544 0.55951,0.221544 z m 0.38665,-6.049434 c 0.20778,0 0.40781,0.07902 0.5595,0.221545 l -0.65052,0.596194 h -1.13877 l -0.58878,-0.642761 c 0.14428,-0.113241 0.32208,-0.174978 0.50518,-0.174978 z m 7.0806,10.041468 c -0.0392,0.01587 -0.0649,0.05327 -0.0667,0.0949 v 0.781759 c 0.008,0.0773 0.0688,0.13899 0.14605,0.14816 h 0.92181 c 0.0769,-0.009 0.13829,-0.0705 0.14711,-0.14816 v -0.781759 c -0.005,-0.05186 -0.043,-0.09454 -0.0942,-0.105481 -0.0155,-0.0046 -0.0307,-0.0078 -0.0473,-0.0081 0.007,-0.08149 -0.002,-0.163689 -0.0275,-0.2413 -0.0466,-0.157692 -0.16722,-0.282223 -0.32279,-0.333375 -0.16722,-0.04727 -0.34608,0.0099 -0.45403,0.145344 -0.096,0.116417 -0.14358,0.264936 -0.1337,0.414867 l 0.002,0.01446 c -0.025,0.0014 -0.0487,0.0081 -0.0705,0.0187 z m -3.43182,-0.5969 c -0.1898,0.189441 -0.29633,0.446264 -0.29598,0.714375 -3.5e-4,0.267754 0.10618,0.524934 0.29598,0.714374 0.18944,0.18944 0.44626,0.29633 0.71437,0.29633 0.26812,0 0.52529,-0.10653 0.71473,-0.29633 0.1898,-0.18944 0.29598,-0.44662 0.29598,-0.714374 0,-0.268111 -0.10618,-0.524934 -0.29598,-0.714375 -0.18591,-0.186267 -0.43674,-0.292806 -0.69991,-0.296334 l -0.0148,-3.52e-4 c -0.26811,3.52e-4 -0.52493,0.106891 -0.71437,0.296686 z m 1.33985,0.08925 c -0.16616,-0.166159 -0.39088,-0.259292 -0.62548,-0.259292 -0.23459,0 -0.45931,0.09313 -0.62512,0.259292 -0.16722,0.166863 -0.2607,0.394052 -0.25929,0.630766 0.002,0.232483 0.0945,0.455083 0.25929,0.619123 0.16898,0.16934 0.3997,0.26282 0.63853,0.25929 0.23036,-0.004 0.44944,-0.0963 0.61207,-0.25929 0.16263,-0.16228 0.25576,-0.38206 0.25859,-0.61242 V 99.9081 c 3.5e-4,-0.234597 -0.0928,-0.459317 -0.25859,-0.625122 z m -15.39628,1.511299 0.35101,-0.60784 c -0.115,-0.0684 -0.25894,-0.0656 -0.37112,0.007 -0.11218,0.073 -0.17357,0.20285 -0.15805,0.33585 0.0159,0.133 0.0434,0.21625 0.16934,0.26105 z m 0.6223,-0.69356 c -0.11642,0.0656 -0.18556,0.19121 -0.17886,0.32491 0.007,0.1337 0.0889,0.25153 0.21167,0.30445 0.12312,0.0529 0.20919,0.0709 0.31115,-0.0159 l 0.007,-0.006 z m -0.03,0.11889 c -0.0974,0.0847 -0.12065,0.22648 -0.0557,0.33796 0.0656,0.11147 0.19226,0.16298 0.31326,0.11994 l 0.006,-0.002 z m 15.35395,-17.478733 -0.001,-0.0095 c -0.0504,-0.416278 -0.41628,-0.721078 -0.83503,-0.694267 l 7.1e-4,-0.179211 c 0.51152,-0.02646 0.95497,0.351014 1.01247,0.859367 z m 0.39546,-0.05221 -0.001,-0.01411 c -0.0596,-0.622652 -0.60466,-1.08338 -1.22802,-1.036108 l 7.1e-4,-0.179564 c 0.7179,-0.04621 1.34161,0.489656 1.40581,1.206147 z m -0.48578,12.818534 c 0,-0.150636 -0.1217,-0.273403 -0.27269,-0.274461 -0.15064,-0.0011 -0.27376,0.120297 -0.27588,0.271286 -0.002,0.150636 0.11819,0.274814 0.26953,0.277636 0.15063,0.0028 0.27516,-0.11677 0.27904,-0.267759 z m 3.193,-4.445706 v 5.652911 c 0,0.337256 -0.13371,0.6604 -0.37183,0.898878 -0.23813,0.238125 -0.56233,0.372534 -0.89958,0.372534 h -21.33849 c -0.33726,3.52e-4 -0.6604,-0.13335 -0.89888,-0.371475 -0.23813,-0.238125 -0.37253,-0.562681 -0.37253,-0.899937 V 92.53787 c 0,-0.33655 0.13335,-0.660047 0.37147,-0.898525 0.23813,-0.238478 0.56268,-0.372181 0.89994,-0.372533 h 2.06516 V 91.08125 h -2.06516 c -0.387,3.53e-4 -0.75742,0.154164 -1.03082,0.427567 -0.2727,0.273403 -0.42651,0.642409 -0.42616,1.029053 v 4.176536 c 3.6e-4,0.386645 0.15417,0.757414 0.42757,1.030817 0.2734,0.27305 0.64241,0.426508 1.02941,0.426156 h 21.33847 c 0.38699,-3.53e-4 0.75706,-0.154164 1.03081,-0.42792 0.2727,-0.273403 0.42581,-0.642408 0.42581,-1.029053 v -5.652911 z m -0.76341,-5.728759 h -1.59244 v 1.116895 l -4.04919,-3.525309 -7.68209,7.016398 c -0.10089,0.09737 -0.13264,0.246239 -0.0801,0.376414 0.0533,0.130175 0.17745,0.215194 0.3175,0.214489 h 1.22696 v 5.208411 h 0.18521 v -5.393972 h -1.41217 c -0.066,3.52e-4 -0.12523,-0.04057 -0.14816,-0.102659 -0.0229,-0.06209 -0.004,-0.132644 0.0462,-0.17533 l 7.55015,-6.895043 7.78545,6.778273 0.12171,-0.140053 -2.26907,-1.975555 z m -20.55072,-1.055158 c 0,-0.429331 -0.34784,-0.778228 -0.77753,-0.779286 -0.42968,-0.0014 -0.77928,0.345016 -0.78175,0.7747 -0.003,0.429683 0.34255,0.779991 0.77258,0.784225 0.42933,0.0039 0.78105,-0.340431 0.78634,-0.769761 z m 0.091,0 c 0,-0.480131 -0.3877,-0.869597 -0.86784,-0.871009 -0.48013,-0.0014 -0.87136,0.385587 -0.87383,0.865717 -0.003,0.480131 0.38277,0.872067 0.8629,0.876653 0.47978,0.0042 0.87312,-0.380647 0.87877,-0.860778 z m 0.12418,16.094072 c -0.0967,0.0667 -0.20391,0.11677 -0.31786,0.14782 -0.0833,0.0226 -0.16968,0.0349 -0.25611,0.0374 -0.0744,0.002 -0.14888,-7.1e-4 -0.22225,-0.009 -0.16546,-0.0205 -0.32668,-0.061 -0.4819,-0.12206 -0.0459,-0.0183 -0.091,-0.0374 -0.13617,-0.0575 -0.0459,-0.0198 -0.0921,-0.0374 -0.139,-0.0533 -0.037,-0.0116 -0.0744,-0.0233 -0.11183,-0.0335 -0.0833,-0.0236 -0.16721,-0.0434 -0.25294,-0.0593 -0.079,-0.0141 -0.15945,-0.0219 -0.23953,-0.024 -0.0741,-0.001 -0.14852,0.006 -0.2212,0.0212 l 0.002,-10e-4 c 0.0836,-0.054 0.17675,-0.0914 0.27411,-0.10972 0.0667,-0.0123 0.13512,-0.0159 0.20285,-0.0109 0.0621,0.004 0.12347,0.013 0.1838,0.0268 0.0759,0.0166 0.15063,0.037 0.22436,0.0617 0.0466,0.0159 0.0931,0.0339 0.13829,0.0533 l 0.0346,0.0145 c 0.0452,0.019 0.0914,0.0367 0.13794,0.0533 l 0.018,0.006 c 0.12912,0.0441 0.26282,0.0734 0.39829,0.0882 0.14181,0.0173 0.28433,0.0205 0.42615,0.009 0.13018,-0.0102 0.25788,-0.0339 0.38276,-0.0706 -0.0145,0.0113 -0.0293,0.0219 -0.0444,0.0325 z m 0.0744,-0.32138 c -0.14747,-0.05397 -0.29422,-0.111122 -0.43957,-0.171094 -0.11959,-0.05009 -0.23741,-0.104069 -0.35383,-0.161925 -0.15452,-0.07867 -0.30339,-0.167569 -0.44556,-0.265994 -0.0967,-0.06738 -0.1905,-0.138289 -0.28116,-0.213078 -0.0963,-0.07761 -0.19086,-0.157339 -0.28434,-0.238478 -0.0406,-0.03528 -0.0819,-0.06985 -0.12347,-0.104422 -0.11042,-0.08925 -0.22755,-0.170745 -0.34996,-0.243417 -0.11748,-0.06879 -0.24095,-0.127 -0.3683,-0.174272 -0.12241,-0.0441 -0.24906,-0.07514 -0.37782,-0.09313 -0.10408,-0.01376 -0.20956,-0.01658 -0.31468,-0.0081 -0.0554,0.0046 -0.11078,0.01411 -0.16475,0.02752 l -0.018,0.0053 c 0.0109,0 0.0215,7.05e-4 0.0321,0.0011 0.0557,0.0035 0.11077,0.01058 0.16581,0.02046 0.10971,0.01905 0.21801,0.04657 0.32314,0.0822 0.15875,0.05292 0.31186,0.12065 0.45791,0.202494 0.16757,0.09313 0.32561,0.202494 0.47272,0.325967 0.0699,0.05856 0.14076,0.115358 0.21308,0.170391 0.14217,0.109362 0.28963,0.211667 0.44167,0.306917 0.14217,0.08819 0.28928,0.16757 0.44062,0.238478 0.18521,0.08573 0.37818,0.154164 0.57574,0.204611 0.084,0.02117 0.16862,0.04057 0.25364,0.05644 0.0483,0.0102 0.097,0.0208 0.145,0.0321 z m -0.31892,0.14782 c -0.12029,0.0519 -0.25188,0.0706 -0.38135,0.0554 -0.0614,-0.007 -0.12241,-0.0205 -0.18097,-0.0392 -0.0593,-0.018 -0.11713,-0.0399 -0.17392,-0.0649 -0.0466,-0.0198 -0.0917,-0.0416 -0.13688,-0.0649 -0.0773,-0.0399 -0.15169,-0.0833 -0.22507,-0.129826 -0.0734,-0.04586 -0.14641,-0.09243 -0.21872,-0.1397 -0.0734,-0.04692 -0.14676,-0.09172 -0.2219,-0.135819 -0.0385,-0.02328 -0.079,-0.04516 -0.11995,-0.06421 -0.11747,-0.05609 -0.24094,-0.09772 -0.3683,-0.12453 -0.085,-0.01799 -0.17109,-0.02858 -0.25752,-0.0314 -0.0617,-0.0018 -0.12383,0.0028 -0.18486,0.01305 0.006,-0.0035 0.0109,-0.0067 0.0166,-0.01023 l 0.0159,-0.0092 c 0.0483,-0.02858 0.0988,-0.05256 0.15064,-0.07197 0.0811,-0.03069 0.16686,-0.04763 0.25364,-0.05009 0.0744,-0.0014 0.14817,0.0078 0.22014,0.02787 0.066,0.01764 0.12947,0.04198 0.19014,0.07267 0.0339,0.01623 0.0667,0.03387 0.0988,0.05256 0.0543,0.02999 0.10654,0.06244 0.15805,0.09701 0.067,0.04445 0.1337,0.08961 0.19932,0.136172 0.0663,0.04551 0.13264,0.09031 0.20073,0.134056 0.0575,0.03634 0.11677,0.0695 0.17745,0.100189 0.0247,0.01164 0.0487,0.02364 0.0727,0.03563 0.0776,0.03916 0.15664,0.07479 0.23672,0.106888 0.0748,0.0293 0.15205,0.0529 0.23036,0.0716 0.0847,0.0187 0.1711,0.0286 0.25753,0.0289 z m -0.63006,-16.244009 c -3.5e-4,0.03457 -0.003,0.0695 -0.008,0.103716 -0.007,0.0374 -0.0194,0.07408 -0.037,0.108303 -0.0212,0.04339 -0.0438,0.08608 -0.0681,0.128058 l -0.007,0.01235 -0.24765,0.432152 v 0.149931 h 0.52423 v -0.132997 h -0.37289 l 0.24554,-0.425803 c 0.0162,-0.02752 0.0318,-0.05609 0.0459,-0.08502 0.061,-0.124177 0.0804,-0.263877 0.0561,-0.40005 -0.007,-0.03739 -0.0219,-0.07338 -0.0427,-0.105833 -0.031,-0.04763 -0.0797,-0.08149 -0.13512,-0.09454 -0.0564,-0.01341 -0.11571,-0.0095 -0.17003,0.01164 -0.0508,0.02011 -0.091,0.05927 -0.11254,0.109714 -0.0127,0.02928 -0.0197,0.06033 -0.0215,0.09207 -0.002,0.02752 -0.003,0.05468 -0.003,0.08185 v 0.153811 h 0.13723 c 0,-0.05645 0,-0.112889 0,-0.169686 0,-0.01976 10e-4,-0.03951 0.005,-0.05856 0.005,-0.02152 0.0148,-0.04198 0.0293,-0.05856 0.0113,-0.01235 0.0257,-0.02152 0.0423,-0.02681 0.0187,-0.0046 0.0381,-0.0046 0.0568,-7.05e-4 0.0314,0.0067 0.0575,0.02858 0.0688,0.05821 0.008,0.01905 0.0127,0.03916 0.0141,0.05997 0.001,0.0187 0.002,0.03775 7.1e-4,0.0568 z m -2.70227,-0.227542 -0.0282,0.04057 -0.0367,0.03281 c -0.0141,0.0071 -0.0279,0.01446 -0.0413,0.02258 l -0.0462,0.01517 -0.0533,0.0095 -0.0607,0.0032 v 0.08573 h 0.21554 v 0.954264 h 0.15769 v -1.241425 h -0.0787 l -0.008,0.02893 z m 0.81033,0.551039 c 0,-0.429331 -0.34749,-0.778228 -0.77753,-0.779286 -0.42933,-0.0014 -0.77858,0.345016 -0.7814,0.7747 -0.002,0.429683 0.3429,0.779991 0.77223,0.784225 0.42968,0.0039 0.7814,-0.340431 0.7867,-0.769761 z m 0.0917,0 c 0,-0.480131 -0.38841,-0.869597 -0.86854,-0.871009 -0.47978,-0.0014 -0.87101,0.385587 -0.87383,0.865717 -0.003,0.480131 0.38311,0.872067 0.86324,0.876653 0.47978,0.0042 0.87313,-0.380647 0.87877,-0.860778 z m 4.95758,15.942032 c -0.12206,-0.042 -0.25682,0.009 -0.32067,0.121 -0.0635,0.11218 -0.0455,0.24765 0.0529,0.33126 l 0.005,0.004 z m 0.5394,-0.311153 c 0.0243,0.126643 0.13547,0.217663 0.26458,0.216963 0.12912,-7.1e-4 0.23742,-0.0843 0.26035,-0.211672 l 0.001,-0.0053 z m 0.61383,-0.08608 h -0.70167 c -0.004,0.134761 0.0695,0.259643 0.18873,0.321733 0.11995,0.0621 0.26459,0.0501 0.37254,-0.03 0.10795,-0.0808 0.16651,-0.159456 0.1404,-0.291747 z m -1.2453,0.171803 c 0.002,-0.134056 -0.0727,-0.257175 -0.19191,-0.317853 -0.11889,-0.06103 -0.26247,-0.04868 -0.36971,0.03104 -0.1069,0.07973 -0.16546,0.145697 -0.14147,0.277284 l 7.1e-4,0.0095 z m -0.0878,-0.08573 c -0.0247,-0.127 -0.13582,-0.217664 -0.26459,-0.217312 -0.12911,0.0011 -0.23742,0.08467 -0.2607,0.211314 l -10e-4,0.006 z m 0.42086,-0.278342 c 0.11536,0.06844 0.25929,0.06562 0.37112,-0.0071 0.11219,-0.07303 0.17357,-0.2032 0.15805,-0.336197 -0.0155,-0.132644 -0.043,-0.216253 -0.16934,-0.261056 l -0.008,-0.0039 z m -0.27129,0.08573 c 0.11642,-0.06526 0.18627,-0.191206 0.17886,-0.324908 -0.007,-0.133703 -0.0885,-0.251884 -0.21131,-0.304448 -0.12312,-0.05327 -0.2092,-0.07056 -0.31115,0.01587 l -0.008,0.0056 z m 0.0303,-0.118886 c 0.0974,-0.08467 0.12065,-0.226836 0.055,-0.337961 -0.0649,-0.111478 -0.1912,-0.163689 -0.31291,-0.119945 l -0.005,0.0018 z m 0.35949,0 c 0.12206,0.04198 0.25646,-0.0088 0.32067,-0.121003 0.0635,-0.112183 0.0452,-0.24765 -0.0533,-0.331258 l -0.004,-0.0039 z m 3.01095,0.05539 v 0.10795 h 0.16687 v 0.638178 h 0.0892 v -0.638178 h 0.16792 v -0.10795 z m 0.7172,-0.0127 -0.0212,0.0014 -0.0212,0.0035 -0.0198,0.0056 -0.0194,0.0078 -0.0183,0.0095 -0.0176,0.01199 -0.0169,0.01376 -0.0155,0.01588 -0.0148,0.01764 -0.0141,0.0194 -0.003,0.0042 -0.012,0.01976 -0.0106,0.02081 -0.009,0.02258 -0.008,0.02328 -0.007,0.02469 -0.006,0.02575 -0.005,0.02716 -0.004,0.02858 -0.003,0.02928 -0.001,0.03069 -7e-4,0.0321 v 0.0212 l 0.002,0.0282 0.003,0.0275 0.004,0.0279 0.006,0.0265 0.007,0.0265 0.008,0.0265 0.006,0.0176 0.0106,0.0243 0.0116,0.0226 0.013,0.0212 0.0141,0.0194 0.0159,0.018 0.0169,0.0162 0.0169,0.0134 0.0176,0.0116 0.0187,0.01 0.0194,0.007 0.0201,0.006 0.0212,0.003 0.0212,0.001 0.0134,-3.5e-4 0.0205,-0.002 0.0205,-0.005 0.0194,-0.007 0.0194,-0.009 0.0187,-0.0106 0.0183,-0.0134 0.012,-0.0102 0.0166,-0.0162 0.0148,-0.0183 0.0141,-0.0201 0.0127,-0.0219 0.0113,-0.024 0.01,-0.0254 0.003,-0.009 0.008,-0.0247 0.006,-0.0261 0.005,-0.0265 0.004,-0.0272 0.003,-0.0286 0.002,-0.0293 0.001,-0.03 -3.6e-4,-0.007 -7e-4,-0.02928 -0.002,-0.02893 -0.003,-0.02822 -0.004,-0.02752 -0.005,-0.02611 -0.006,-0.02575 -0.008,-0.02434 -0.006,-0.01764 -0.0106,-0.02434 -0.0127,-0.02258 -0.0127,-0.02117 -0.0145,-0.01905 -0.0159,-0.01764 -0.0169,-0.01587 -0.0148,-0.01164 -0.018,-0.01199 -0.0187,-0.0099 -0.0194,-0.0078 -0.0205,-0.0053 -0.0208,-0.0028 -0.0212,-0.0014 z m 0.0222,0.105833 0.0176,0.0042 0.0162,0.0064 0.0166,0.0092 0.0155,0.01235 0.0138,0.01411 0.0134,0.01693 0.0113,0.02011 0.0106,0.02187 0.009,0.02399 0.004,0.01658 0.006,0.02399 0.004,0.02575 0.004,0.02681 0.001,0.02858 10e-4,0.02962 -7e-4,0.0155 -0.001,0.0307 -0.002,0.0289 -0.004,0.0272 -0.005,0.025 -0.007,0.0233 -0.008,0.0215 -0.009,0.0198 -0.0102,0.018 -0.004,0.006 -0.0138,0.018 -0.0141,0.0141 -0.0148,0.0116 -0.0159,0.009 -0.0166,0.006 -0.0173,0.004 -0.019,0.001 h -0.004 l -0.0187,-0.002 -0.0169,-0.005 -0.0159,-0.007 -0.0155,-0.0102 -0.0145,-0.0127 -0.0141,-0.0152 -0.0138,-0.0187 -0.001,-0.003 -0.0109,-0.0191 -0.009,-0.0201 -0.008,-0.0219 -0.006,-0.0236 -0.005,-0.0258 -0.004,-0.0272 -0.002,-0.0289 -7.1e-4,-0.0307 v -0.008 l 7.1e-4,-0.03316 0.002,-0.0314 0.003,-0.02858 0.005,-0.02646 0.005,-0.0247 0.007,-0.02187 0.008,-0.01976 0.008,-0.01729 0.0102,-0.01552 7e-4,-7.06e-4 0.0145,-0.01764 0.0145,-0.01446 0.0155,-0.01164 0.0159,-0.0088 0.0166,-0.0064 0.0173,-0.0042 0.018,-0.0011 z m -1.53388,0.05821 0.0145,0.05785 0.008,0.03104 0.054,0.205315 h -0.15275 l 0.0568,-0.216957 0.001,-0.0046 z m -0.24588,0.594785 h 0.0945 l 0.0505,-0.20038 h 0.20461 l 0.054,0.20038 h 0.0995 l -0.21343,-0.746127 h -0.0889 z m -0.16016,-0.906641 h 2.33549 v 1.067431 h -2.33549 z m -0.0889,-0.0889 h 2.51313 v 1.245471 h -2.51313 z m 0.79974,0.249414 v 0.451207 l 7.1e-4,0.0324 0.002,0.0303 0.003,0.0282 0.004,0.0258 0.005,0.024 0.005,0.0212 7e-4,0.004 0.009,0.0258 0.0113,0.0233 0.0134,0.0208 0.0159,0.0187 0.0176,0.0159 0.004,0.002 0.0166,0.0109 0.0176,0.009 0.0197,0.007 0.0205,0.005 0.0219,0.003 0.0233,0.001 h 0.01 l 0.0229,-0.002 0.0208,-0.004 0.0201,-0.006 0.0194,-0.008 0.0169,-0.0102 0.0162,-0.0123 10e-4,-0.002 0.0176,-0.0176 0.0148,-0.0194 0.0131,-0.0222 0.0102,-0.0236 0.008,-0.0247 0.002,-0.007 0.005,-0.0229 0.005,-0.0247 0.003,-0.0275 0.002,-0.0289 0.001,-0.0314 7e-4,-0.0335 v -0.429687 h -0.0896 v 0.431447 l -3.5e-4,0.0363 -0.002,0.0328 -0.004,0.0282 -0.004,0.0254 -0.005,0.0215 -0.006,0.0173 -0.008,0.0138 -0.01,0.0127 -0.0123,0.0109 -0.0145,0.008 -0.0173,0.006 -0.0194,0.004 -0.0222,0.002 -0.0176,-0.002 -0.018,-0.004 -0.0159,-0.007 -0.0148,-0.01 -0.006,-0.005 -0.0138,-0.0159 -0.0109,-0.0194 -0.008,-0.0229 v -3.5e-4 l -0.004,-0.0194 -0.004,-0.0229 -0.002,-0.0268 -0.002,-0.0307 -3.6e-4,-0.0356 v -0.428627 z m 2.24755,-8.57109 h -3.24528 v 0.185622 h 3.24528 z m -5.82154,-0.408163 -0.0215,0.0018 -0.0212,0.0021 -0.0212,0.0039 -0.0201,0.0046 -0.0198,0.0056 -0.019,0.0067 -0.0191,0.0078 -0.0162,0.0081 -0.0191,0.01164 -0.0176,0.0127 -0.0162,0.01411 -0.0148,0.01517 -0.0127,0.01658 -0.0116,0.01799 -0.004,0.0056 -0.0102,0.02081 -0.009,0.02117 -0.006,0.02187 -0.005,0.02187 -0.003,0.02258 -0.001,0.02293 7.1e-4,0.01129 0.002,0.02364 0.004,0.02258 0.006,0.02152 0.008,0.02081 0.01,0.02011 0.0109,0.01729 0.0127,0.01658 0.0148,0.01517 0.0159,0.01482 0.0183,0.01341 0.0201,0.0127 0.005,0.0028 0.013,0.0067 0.0155,0.0071 0.0169,0.0071 0.0194,0.0071 0.0215,0.0074 0.0236,0.0071 0.025,0.0074 0.0279,0.0074 0.0187,0.0053 0.0279,0.0078 0.0254,0.0071 0.0226,0.0067 0.019,0.006 0.0169,0.0053 0.013,0.0049 0.0106,0.0042 0.0123,0.006 0.0212,0.01094 0.018,0.01235 0.0152,0.01305 0.0113,0.01446 0.008,0.01376 0.008,0.02011 0.005,0.02223 0.002,0.02328 -0.001,0.01905 -0.004,0.02222 -0.008,0.02117 -0.0106,0.02011 -0.006,0.0085 -0.0138,0.01517 -0.0159,0.01376 -0.0187,0.01199 -0.0208,0.01058 -0.0123,0.0046 -0.0187,0.006 -0.0201,0.0046 -0.0205,0.0039 -0.0222,0.0018 -0.0226,7.05e-4 h -0.012 l -0.0219,-0.0014 -0.0215,-0.0028 -0.0205,-0.0039 -0.0194,-0.0056 -0.0194,-0.0071 -0.0187,-0.0081 -0.008,-0.0039 -0.0201,-0.01164 -0.0176,-0.01305 -0.0159,-0.01446 -0.0138,-0.01517 -0.0113,-0.01693 -0.005,-0.0074 -0.009,-0.01905 -0.008,-0.02011 -0.006,-0.02222 -0.005,-0.02364 -0.004,-0.02611 -0.10795,0.01094 7e-4,0.02222 0.003,0.02364 0.004,0.02293 0.005,0.02187 0.007,0.02152 0.008,0.02117 0.009,0.01975 0.0106,0.01976 0.0109,0.01729 0.013,0.01799 0.0141,0.01658 0.0152,0.01517 0.0162,0.01376 0.0173,0.0127 0.0187,0.01129 0.0194,0.01023 0.0109,0.0049 0.0176,0.0071 0.0176,0.0063 0.0194,0.0053 0.0198,0.0042 0.0208,0.0039 0.0215,0.0028 0.0222,0.0025 0.0233,7.06e-4 0.0243,7.05e-4 h 0.005 l 0.0222,-7.05e-4 0.0215,-0.0021 0.0212,-0.0028 0.0201,-0.0046 0.0205,-0.0053 0.0194,-0.0063 0.0187,-0.0078 0.0183,-0.0088 0.005,-0.0021 0.0194,-0.01164 0.0183,-0.01199 0.0166,-0.01376 0.0159,-0.01482 0.0141,-0.01588 0.0127,-0.01693 0.0116,-0.0187 0.008,-0.01305 0.01,-0.02117 0.008,-0.02117 0.006,-0.02152 0.005,-0.02223 0.002,-0.02258 0.001,-0.02293 v -0.0074 l -0.002,-0.02399 -0.003,-0.02293 -0.005,-0.02222 -0.007,-0.02152 -0.009,-0.02011 -0.0106,-0.0194 -0.0106,-0.01588 -0.0123,-0.01588 -0.0145,-0.01482 -0.0166,-0.01411 -0.0169,-0.01305 -0.0197,-0.0127 -0.0208,-0.01164 -0.006,-0.0028 -0.0123,-0.0056 -0.0152,-0.006 -0.0169,-0.0063 -0.0183,-0.0064 -0.0208,-0.0064 -0.0226,-0.0067 -0.0247,-0.0071 -0.0265,-0.0071 -0.0286,-0.0078 -0.0268,-0.0067 -0.0275,-0.0078 -0.0254,-0.0078 -0.0222,-0.0078 -0.0194,-0.0078 -0.0169,-0.0078 -0.0145,-0.0074 -0.012,-0.0078 -0.009,-0.0078 -0.004,-0.0035 -0.013,-0.01764 -0.009,-0.0194 -0.006,-0.02117 -0.002,-0.02399 3.6e-4,-0.0064 0.003,-0.02187 0.006,-0.02011 0.009,-0.01905 0.0134,-0.01834 0.0162,-0.01693 0.009,-0.0071 0.0141,-0.0088 0.0166,-0.0081 0.018,-0.0063 0.0208,-0.0053 0.0222,-0.0035 0.024,-0.0018 0.0265,-7.05e-4 h 0.0187 l 0.0243,0.0021 0.0219,0.0035 0.0205,0.0049 0.0194,0.0071 0.0169,0.0081 0.0159,0.0095 0.0141,0.01129 0.0123,0.0127 0.0123,0.01623 0.0106,0.01835 0.009,0.01975 0.006,0.02187 0.006,0.02399 0.003,0.0254 0.11042,-0.0095 -0.001,-0.02328 -0.004,-0.02293 -0.004,-0.02258 -0.006,-0.02187 -0.007,-0.02117 -0.01,-0.02011 -0.0106,-0.01975 -0.001,-0.0025 -0.0116,-0.01799 -0.0134,-0.01658 -0.0148,-0.01588 -0.0159,-0.01411 -0.0173,-0.01305 -0.019,-0.01164 -0.0194,-0.01058 -0.006,-0.0025 -0.0183,-0.0074 -0.0191,-0.0064 -0.0194,-0.0056 -0.0205,-0.0042 -0.0208,-0.0035 -0.0215,-0.0025 -0.0222,-0.0018 -0.0229,-3.53e-4 z m 1.27071,0.01623 v 0.113948 h 0.28575 v 0.8509 h 0.1143 v -0.8509 h 0.28716 v -0.113935 z m -0.11395,0 h -0.62759 v 0.964848 h 0.6477 v -0.113935 h -0.5327 v -0.328436 h 0.47978 v -0.112889 h -0.47978 v -0.295627 h 0.51259 z m 10.77348,9.233606 v 0.08784 l -0.061,0.0353 -0.11289,-0.05927 -0.0896,0.05151 0.11078,0.0603 -0.0325,0.0187 -0.0656,-0.0335 -0.0896,0.0512 0.0639,0.0349 -0.0656,0.0381 -0.0194,0.0698 0.0709,0.0191 0.0656,-0.0378 -0.001,0.072 0.0896,-0.0515 0.003,-0.073 0.0328,-0.0187 -0.003,0.12523 0.0896,-0.0512 0.005,-0.127 0.0554,-0.0318 0.085,0.0494 -0.0247,0.12947 0.10865,-0.0815 0.0825,0.0473 v 0.0635 l -0.1083,0.0674 v 0.10301 l 0.1083,-0.0653 v 0.0374 l -0.0621,0.0399 v 0.10301 l 0.0621,-0.0377 v 0.0758 l 0.0512,0.0512 0.0515,-0.0512 v -0.0758 l 0.0624,0.0377 v -0.10301 l -0.0624,-0.0399 v -0.0374 l 0.10795,0.0653 v -0.10301 l -0.10795,-0.0674 v -0.0586 l 0.0878,-0.0504 0.097,0.0833 -0.0159,-0.12947 0.0875,-0.0504 0.0504,0.0296 0.005,0.12665 0.0892,0.0515 -0.003,-0.12559 0.0332,0.0187 0.003,0.073 0.09,0.0519 -0.001,-0.0723 0.0656,0.0378 0.0709,-0.0191 -0.019,-0.0698 -0.066,-0.0378 0.0635,-0.0353 -0.0892,-0.0512 -0.0656,0.0339 -0.0328,-0.0187 0.11077,-0.0607 -0.0892,-0.05115 -0.11289,0.05891 -0.0522,-0.0303 v -0.09878 l 0.12065,-0.04198 -0.12065,-0.05151 v -0.100894 l 0.0522,-0.02858 0.11289,0.05927 0.0892,-0.05151 -0.11077,-0.06032 0.0332,-0.01905 0.0653,0.03351 0.0893,-0.05115 -0.0635,-0.03457 0.0663,-0.03775 0.0187,-0.07055 -0.0709,-0.0187 -0.0656,0.03775 0.001,-0.07197 -0.0892,0.05151 -0.004,0.07267 -0.0328,0.01905 0.003,-0.125589 -0.0892,0.05151 -0.005,0.126647 -0.0603,0.03245 -0.0808,-0.04621 0.0251,-0.130528 -0.10971,0.08184 -0.0811,-0.04657 v -0.06738 l 0.10795,-0.06703 v -0.103011 l -0.10795,0.06562 v -0.0381 l 0.0621,-0.03916 v -0.102993 l -0.0621,0.0374 v -0.07585 l -0.0519,-0.05151 -0.0512,0.05151 v 0.07585 l -0.0621,-0.0374 v 0.103011 l 0.0621,0.03916 v 0.0381 l -0.10795,-0.06562 v 0.103011 l 0.10795,0.06703 v 0.07197 l -0.0804,0.04621 -0.10443,-0.08961 0.0166,0.140053 -0.0741,0.04269 -0.0646,-0.03492 -0.005,-0.126647 -0.0896,-0.05151 0.003,0.125589 -0.0328,-0.01905 -0.003,-0.07303 -0.09,-0.05151 0.001,0.07232 -0.0656,-0.0381 -0.0709,0.01905 0.0194,0.0702 0.0656,0.0381 -0.0639,0.03457 0.0896,0.05115 0.0656,-0.03351 0.0325,0.0187 -0.11042,0.06068 0.0892,0.05115 0.11289,-0.05891 0.061,0.03281 v 0.09596 l -0.12982,0.0448 z m 2.60597,0.04798 c 0.0222,7.06e-4 0.0441,7.06e-4 0.0663,0 0.0339,-0.0088 0.055,-0.04304 0.0473,-0.07726 -0.008,-0.03422 -0.0159,-0.05609 -0.0501,-0.04868 -0.0219,-7.06e-4 -0.0441,-7.06e-4 -0.0663,0 -0.0335,0.0014 -0.06,0.02928 -0.06,0.06315 v 0.0014 c 7.1e-4,0.03457 0.0289,0.06174 0.0628,0.06138 z m 1.38959,-0.125941 c -0.0219,-7.06e-4 -0.0437,-7.06e-4 -0.066,0 -0.0342,0.0085 -0.0554,0.04304 -0.0473,0.07691 0.008,0.03457 0.0159,0.05609 0.0501,0.04939 0.0222,3.53e-4 0.0445,3.53e-4 0.0667,-3.53e-4 0.0325,-0.0014 0.0582,-0.02716 0.06,-0.05962 v -0.0032 c 0,-0.01693 -0.007,-0.03316 -0.0187,-0.0448 -0.012,-0.01199 -0.0279,-0.01834 -0.0448,-0.01834 z m -0.63147,0.691445 c -0.009,-0.0339 -0.0434,-0.0547 -0.0776,-0.0469 -0.0342,0.008 -0.0561,0.0159 -0.0487,0.0501 -3.5e-4,0.0222 -3.5e-4,0.0444 3.5e-4,0.0663 0.005,0.0335 0.0363,0.0571 0.0702,0.0529 0.0335,-0.004 0.0579,-0.0191 0.0557,-0.0529 v -0.003 c 7.1e-4,-0.0219 7.1e-4,-0.0441 0,-0.0663 z m -2.96404,-0.49248 0.0762,-0.0437 0.0875,0.0511 -0.16369,0.0938 z m -0.12665,-0.215193 v 0.09137 l 0.0797,0.04586 c 0.0265,-0.01517 0.0529,-0.03069 0.0797,-0.04586 v -0.09137 l -0.0797,-0.04621 c -0.025,0.01446 -0.0494,0.02858 -0.0744,0.04269 l -7e-4,7.06e-4 z m 0.127,-0.123825 v -0.1016 l 0.15029,0.08643 -0.0903,0.04904 -0.004,-0.0021 c -0.0187,-0.01058 -0.0374,-0.02117 -0.0557,-0.03175 z m 0.12383,0.203905 v -0.08749 l 0.0882,-0.04833 v 0.187678 z m -0.43039,0.04833 v -0.179564 l 0.0882,0.04727 v 0.08149 z m 0.0459,0.09243 0.0875,-0.0508 c 0.0233,0.0134 0.0466,0.02681 0.0702,0.04022 v 0.10124 z m 0.1203,-0.318992 -0.0155,0.0088 -0.002,0.0014 -0.0903,-0.04904 0.14534,-0.08361 v 0.10125 l -0.0187,0.01058 -7e-4,3.53e-4 z m 3.01625,0.235302 0.44203,0.18952 c 0.048,-0.0236 0.0681,-0.0822 0.0441,-0.13088 -0.0243,-0.04798 0.054,-0.009 0.006,0.0152 l -0.40393,-0.173293 v -0.65332 c 0,-0.02258 -0.012,-0.04339 -0.0318,-0.05468 -0.0194,-0.01129 -0.0437,-0.01129 -0.0631,0 -0.0194,0.01129 -0.0314,0.0321 -0.0314,0.05468 v 0.694972 c 0,0.02505 0.0152,0.04798 0.0385,0.05785 z m -7.33637,-15.68836 c 0,-0.429331 -0.34749,-0.778228 -0.77682,-0.779286 -0.42968,-0.0014 -0.77928,0.345016 -0.7821,0.7747 -0.003,0.429683 0.34254,0.779991 0.77223,0.784225 0.42933,0.0039 0.7814,-0.340431 0.78669,-0.769761 z m -0.66442,-0.29419 h 0.13477 c 7e-4,-0.02928 0.001,-0.05891 0.001,-0.08855 0.001,-0.02928 -0.002,-0.05821 -0.008,-0.08643 -0.01,-0.04198 -0.0328,-0.07937 -0.0663,-0.107244 -0.0307,-0.02505 -0.067,-0.04198 -0.10584,-0.04974 -0.0462,-0.0088 -0.0942,-0.0088 -0.1404,7.06e-4 -0.036,0.006 -0.0695,0.02258 -0.0963,0.04692 -0.0353,0.03351 -0.0603,0.0762 -0.0734,0.123472 -0.008,0.03316 -0.0123,0.06738 -0.0123,0.101953 0,0.146756 -3.6e-4,0.293864 -0.001,0.44062 0,0.0762 0,0.152047 -0.001,0.227894 -7.1e-4,0.02963 3.5e-4,0.05891 0.004,0.0882 0.002,0.03034 0.01,0.05962 0.0226,0.08714 0.01,0.02187 0.0226,0.04163 0.0388,0.05927 0.0138,0.01587 0.0296,0.02928 0.0473,0.04057 0.0265,0.01517 0.0557,0.02575 0.0861,0.02999 0.0339,0.0049 0.0677,0.0056 0.10195,0.0025 0.0434,-0.0039 0.085,-0.0187 0.12136,-0.04374 0.0363,-0.0254 0.0628,-0.06209 0.0755,-0.104775 0.007,-0.02646 0.012,-0.05362 0.0141,-0.08079 7e-4,-0.01023 0.002,-0.02011 0.002,-0.03034 l 7e-4,-0.01517 c 0.004,-0.07796 0.006,-0.15628 0.006,-0.234597 0,-0.03563 -0.003,-0.07126 -0.009,-0.106891 -0.003,-0.02364 -0.01,-0.04692 -0.0205,-0.06844 -0.0279,-0.05398 -0.0797,-0.09137 -0.14005,-0.100542 -0.0441,-0.0078 -0.0903,-0.0018 -0.13123,0.01729 -0.0243,0.012 -0.0466,0.02752 -0.0663,0.04586 -0.004,0.0032 -0.007,0.0067 -0.0102,0.01023 -7.1e-4,-0.04657 -10e-4,-0.09384 -0.002,-0.140406 7e-4,-0.04163 0.002,-0.08325 0.004,-0.12453 3.5e-4,-0.0194 0.003,-0.03881 0.006,-0.05786 0.005,-0.03069 0.024,-0.05715 0.0508,-0.07267 0.0173,-0.0085 0.036,-0.01305 0.055,-0.0127 0.0183,-0.0014 0.0374,0.0018 0.0543,0.0092 0.018,0.0074 0.0328,0.02011 0.0434,0.03598 0.007,0.01341 0.0116,0.02787 0.0134,0.04269 0.002,0.03034 0.002,0.06103 0.002,0.09207 z m 0.006,0.38347 c -0.001,-0.02293 -0.008,-0.04586 -0.018,-0.06668 -0.0131,-0.02293 -0.0332,-0.04057 -0.0579,-0.05009 -0.0215,-0.0071 -0.0437,-0.0088 -0.0656,-0.0046 -0.0233,0.0035 -0.0445,0.01446 -0.0603,0.03175 -0.0134,0.01517 -0.0229,0.03316 -0.0275,0.05292 -0.004,0.01975 -0.006,0.04022 -0.005,0.06068 v 0.233187 c 0,0.02011 0.002,0.04057 0.006,0.05997 0.007,0.02928 0.0257,0.05433 0.0511,0.0702 0.0198,0.01094 0.0423,0.01588 0.0646,0.01341 h 0.003 c 0.025,-0.0018 0.0476,-0.01129 0.0663,-0.02716 0.024,-0.02152 0.0385,-0.05151 0.0406,-0.08361 l 3.6e-4,-0.0063 c 7e-4,-0.0063 10e-4,-0.0127 10e-4,-0.01905 0,-0.04304 3.5e-4,-0.08573 0.002,-0.128764 7e-4,-0.04057 7e-4,-0.08149 7e-4,-0.122414 0,-0.0042 -7e-4,-0.0088 -10e-4,-0.01341 z m 0.75106,-0.08925 c 0,-0.480131 -0.38841,-0.869597 -0.86854,-0.871009 -0.48013,-0.0014 -0.87066,0.385587 -0.87383,0.865717 -0.003,0.480131 0.38312,0.872067 0.86325,0.876653 0.47978,0.0042 0.87312,-0.380647 0.87912,-0.860778 z m -2.62149,0 c 0,-0.429331 -0.34784,-0.778228 -0.77717,-0.779286 -0.42969,-0.0014 -0.77929,0.345016 -0.78211,0.7747 -0.002,0.429683 0.3429,0.779991 0.77223,0.784225 0.42968,0.0039 0.78176,-0.340431 0.78705,-0.769761 z m 0.0914,0 c 0,-0.480131 -0.38806,-0.869597 -0.86854,-0.871009 -0.47978,-0.0014 -0.87066,0.385587 -0.87348,0.865717 -0.003,0.480131 0.38312,0.872067 0.86289,0.876653 0.48013,0.0042 0.87313,-0.380647 0.87913,-0.860778 z m -0.62971,-0.475192 h -0.32773 l -0.008,0.308681 c 0.0148,-0.01588 0.0328,-0.02822 0.0529,-0.03634 0.0293,-0.012 0.0603,-0.01835 0.0914,-0.01835 0.0448,-7.05e-4 0.0885,0.01376 0.12418,0.04022 0.0279,0.02187 0.0483,0.05115 0.0596,0.08467 0.008,0.02611 0.0138,0.05362 0.0166,0.08079 0.005,0.06244 0.006,0.124883 0.004,0.187325 -7.1e-4,0.05327 -0.001,0.106538 -0.001,0.160161 3.5e-4,0.02822 -0.001,0.05644 -0.005,0.08502 -0.004,0.03422 -0.013,0.06738 -0.0296,0.09772 -0.0173,0.03316 -0.0423,0.06174 -0.0723,0.08361 -0.0363,0.02505 -0.078,0.04022 -0.12101,0.04516 -0.037,0.0046 -0.0744,0.0032 -0.11077,-0.0042 -0.0596,-0.01058 -0.11218,-0.04515 -0.1457,-0.0956 -0.0138,-0.01975 -0.024,-0.04163 -0.0303,-0.06491 -0.007,-0.0254 -0.0113,-0.0508 -0.013,-0.07655 -0.003,-0.04515 -0.003,-0.09031 -3.5e-4,-0.135466 l 0.14076,0.0018 c -0.001,0.03104 -0.001,0.06209 0,0.09349 0,0.02046 0.003,0.04092 0.008,0.06103 0.004,0.01446 0.009,0.02787 0.0176,0.04022 0.0127,0.01764 0.031,0.03034 0.0515,0.03669 0.0293,0.0099 0.061,0.0099 0.0896,-3.53e-4 0.0212,-0.0071 0.0388,-0.02046 0.0512,-0.0381 0.009,-0.01517 0.0148,-0.03175 0.018,-0.04904 0.004,-0.03034 0.006,-0.06138 0.006,-0.09243 -3.6e-4,-0.05433 3.5e-4,-0.108303 0.002,-0.16263 0.001,-0.04128 0,-0.0829 -0.004,-0.123825 -0.001,-0.01658 -0.004,-0.03281 -0.01,-0.04833 -0.0127,-0.03704 -0.0455,-0.0635 -0.0847,-0.06844 -0.0166,-0.0025 -0.0332,-0.0014 -0.0487,0.0035 -0.0219,0.006 -0.0406,0.02117 -0.0515,0.04092 -0.007,0.01623 -0.012,0.03351 -0.0138,0.05115 -0.002,0.01623 -0.002,0.03281 -0.002,0.04868 h -0.13582 l 0.019,-0.669572 h 0.46355 z m -4.73499,0.105481 c 0.004,0.0568 0.004,0.113947 -0.001,0.170744 -0.002,0.02434 -0.007,0.04763 -0.0138,0.07056 -0.0127,0.03704 -0.0392,0.06703 -0.0744,0.08396 -0.0145,0.0064 -0.03,0.01094 -0.0459,0.01341 0.0155,0.0035 0.031,0.0081 0.0459,0.01376 0.0423,0.01729 0.0751,0.05292 0.0885,0.09701 0.007,0.02046 0.0113,0.04233 0.013,0.0642 0.005,0.04375 0.007,0.08784 0.008,0.131939 0.001,0.03704 0,0.07444 -0.002,0.111478 l -10e-4,0.0081 c -0.001,0.01094 -0.003,0.02152 -0.005,0.0321 -0.006,0.02928 -0.0159,0.0568 -0.0296,0.08326 -0.0325,0.05821 -0.0878,0.100189 -0.15275,0.116064 -0.0441,0.01058 -0.0903,0.01164 -0.13441,0.0025 -0.0392,-0.0067 -0.0769,-0.02187 -0.11042,-0.04339 -0.0233,-0.01587 -0.0427,-0.03704 -0.0572,-0.06174 -0.013,-0.02434 -0.0219,-0.0508 -0.0254,-0.07832 -0.006,-0.03422 -0.007,-0.06844 -0.006,-0.102658 7.1e-4,-0.03034 7.1e-4,-0.05997 0.002,-0.09031 l 0.13441,0.0018 -7e-4,0.01376 c -0.001,0.0448 3.5e-4,0.08961 0.005,0.134055 0.002,0.01799 0.007,0.03492 0.0162,0.0508 0.0162,0.02505 0.0423,0.04233 0.072,0.04692 0.0215,0.0042 0.0444,0.0028 0.0656,-0.0042 0.0187,-0.0053 0.0356,-0.01552 0.049,-0.02999 0.013,-0.01517 0.0226,-0.03387 0.0265,-0.05433 0.005,-0.02258 0.007,-0.04621 0.006,-0.0695 -7.1e-4,-0.0261 -3.6e-4,-0.05186 7e-4,-0.07796 0.001,-0.02752 7.1e-4,-0.05468 -10e-4,-0.08184 -0.002,-0.02399 -0.008,-0.04798 -0.0162,-0.07091 -0.008,-0.0194 -0.0226,-0.03598 -0.0409,-0.04692 -0.019,-0.01094 -0.0402,-0.01764 -0.0621,-0.0194 -0.0265,-0.0028 -0.0522,-0.0028 -0.0783,3.53e-4 l 0.002,-0.13723 c 0.0102,0.0011 0.0208,0.0014 0.031,0.0014 0.0254,0 0.0508,-0.0035 0.0751,-0.01058 0.018,-0.0056 0.0335,-0.01623 0.0459,-0.03034 0.0116,-0.01446 0.0198,-0.03104 0.024,-0.04904 0.007,-0.02399 0.01,-0.04868 0.01,-0.07373 0.001,-0.04163 -7e-4,-0.08361 -0.005,-0.125236 -7e-4,-0.01587 -0.003,-0.03175 -0.008,-0.04692 -0.008,-0.02258 -0.0258,-0.04127 -0.048,-0.0508 -0.0169,-0.0064 -0.0353,-0.0095 -0.0536,-0.0081 -0.0169,-3.52e-4 -0.0339,0.0046 -0.048,0.01376 -0.0162,0.01164 -0.0286,0.02752 -0.0346,0.04621 -0.007,0.01799 -0.0113,0.03704 -0.0123,0.05609 -0.003,0.0374 -0.004,0.07514 0,0.112184 h -0.13441 c -0.002,-0.0508 -0.001,-0.101953 0.004,-0.152753 0.003,-0.02893 0.01,-0.05715 0.019,-0.08431 0.0194,-0.04974 0.06,-0.0889 0.10972,-0.107245 0.0205,-0.0064 0.042,-0.01129 0.0639,-0.01411 0.0441,-0.006 0.0903,-0.0021 0.13335,0.01058 0.0328,0.01094 0.0621,0.02928 0.0871,0.05327 0.024,0.02505 0.0413,0.05574 0.0497,0.08925 0.009,0.02999 0.0141,0.06138 0.0155,0.09243 z m 2.12267,0.610305 0.007,-0.699558 -0.20814,0.699558 z m 0.14287,-0.839964 v 0.839259 h 0.10619 v 0.133702 h -0.10619 v 0.280812 h -0.14287 V 84.65116 h -0.31468 v -0.17213 l 0.24589,-0.800806 z m 0.67981,0.607131 c 0,-0.433917 -0.35067,-0.785989 -0.78458,-0.787047 -0.43392,-0.0014 -0.78705,0.348897 -0.78952,0.782461 -0.003,0.433916 0.34608,0.788105 0.77964,0.791986 0.43427,0.0042 0.78916,-0.343606 0.79446,-0.777522 z m 0.0921,0 c 0,-0.484364 -0.39194,-0.877358 -0.8763,-0.87877 -0.48437,-0.0014 -0.87877,0.389467 -0.88124,0.873478 -0.004,0.484364 0.38594,0.879828 0.8703,0.884414 0.48436,0.0046 0.88124,-0.383822 0.88724,-0.868186 z m -2.48321,-0.0078 c 0,-0.429331 -0.34713,-0.778228 -0.77681,-0.779286 -0.42969,-0.0014 -0.77929,0.345016 -0.78176,0.7747 -0.003,0.429683 0.3429,0.779991 0.77223,0.784225 0.42968,0.0039 0.78105,-0.340431 0.78634,-0.769761 z m 0.0917,0 c 0,-0.480131 -0.38805,-0.869597 -0.86818,-0.871009 -0.47978,-0.0014 -0.87101,0.385587 -0.87383,0.865717 -0.003,0.480131 0.38347,0.872067 0.86324,0.876653 0.48013,0.0042 0.87313,-0.380647 0.87877,-0.860778 z m 9.68693,0 c 0,-0.429331 -0.34713,-0.778228 -0.77682,-0.779286 -0.42933,-0.0014 -0.77928,0.345016 -0.78211,0.7747 -0.002,0.429683 0.3429,0.779991 0.77259,0.784225 0.42933,0.0039 0.78105,-0.340431 0.78634,-0.769761 z m 0.0921,0 c 0,-0.480131 -0.38876,-0.869597 -0.86854,-0.871009 -0.48013,-0.0014 -0.87101,0.385587 -0.87383,0.865717 -0.003,0.480131 0.38276,0.872067 0.86289,0.876653 0.48013,0.0042 0.87313,-0.380647 0.87948,-0.860778 z m -1.13348,-0.458611 v -0.13898 h 0.52988 v 0.115711 c -0.0279,0.05292 -0.0526,0.107598 -0.073,0.164042 -0.0166,0.04621 -0.0321,0.09349 -0.0462,0.140758 l -0.005,0.01623 c -0.0505,0.17145 -0.0825,0.347486 -0.0967,0.525639 -0.007,0.09701 -0.0113,0.194028 -0.0134,0.291394 h -0.1651 c 0.003,-0.1397 0.0162,-0.279047 0.0395,-0.41663 0.0261,-0.148167 0.0639,-0.293864 0.11253,-0.436033 0.0307,-0.08784 0.0628,-0.175331 0.0956,-0.262114 z m 3.76979,1.68663 c -0.19685,-0.01411 -0.36936,0.130175 -0.38912,0.32632 -0.001,0.01235 -0.002,0.02469 -0.002,0.03739 v 1.21532 c -0.23142,0.172861 -0.30868,0.484716 -0.1845,0.745772 0.0815,0.172508 0.23918,0.296686 0.4258,0.335844 0.20603,0.04163 0.4184,-0.02505 0.56339,-0.176741 0.11959,-0.125942 0.17992,-0.296686 0.16545,-0.4699 -0.0148,-0.172861 -0.1016,-0.330553 -0.24094,-0.434975 v -1.21532 c 0,-0.191558 -0.14747,-0.350308 -0.33797,-0.363714 z m 0.26317,2.286353 c -0.0639,0.08361 -0.16051,0.135467 -0.26494,0.142522 -0.10477,0.0071 -0.20814,-0.03175 -0.28222,-0.105833 -0.0804,-0.08114 -0.11888,-0.195086 -0.10407,-0.308328 0.0176,-0.136172 0.11077,-0.250472 0.24024,-0.295627 v -0.74751 c 0.11854,-0.06738 0.26917,-0.0254 0.3362,0.09313 0.0674,0.118533 0.0254,-0.160514 -0.0931,-0.09313 v 0.747537 c 0.0691,0.02716 0.12982,0.07338 0.17392,0.134055 l 0.004,0.0056 c 0.09,0.129469 0.0854,0.30233 -0.01,0.427566 z M 179.02989,87.3587 c -0.0935,0.194381 -0.0483,0.426861 0.11148,0.571853 0.18521,0.168275 0.46708,0.168275 0.65193,3.53e-4 0.13794,-0.12312 0.19297,-0.31362 0.14253,-0.491067 -0.0353,-0.121356 -0.11607,-0.224367 -0.22472,-0.288219 v -1.282348 c 0,-0.07691 -0.0367,-0.149225 -0.0984,-0.195086 -0.061,-0.04586 -0.14076,-0.05997 -0.21414,-0.0381 -0.10301,0.03069 -0.17392,0.125589 -0.17392,0.233186 v 1.282348 c -0.084,0.04798 -0.15205,0.119944 -0.19473,0.20708 z m 3.34292,-4.564945 c -0.009,-0.105833 -0.0617,-0.2032 -0.14428,-0.269522 -0.0829,-0.06668 -0.18839,-0.09701 -0.29387,-0.08396 l 7.1e-4,-0.179564 c 0.30374,-0.02575 0.57397,0.193322 0.61277,0.496006 l 0.002,0.01376 z m -0.17956,-0.06773 v -0.0071 c 0,-0.07937 -0.0639,-0.144286 -0.14323,-0.144991 -0.0797,-0.0011 -0.14534,0.06244 -0.14711,0.141464 -0.002,0.07973 0.0603,0.145697 0.1397,0.148519 0.0797,0.0028 0.14641,-0.05821 0.15064,-0.137936 z m 2.62996,17.833985 h 0.0639 v -0.27023 c 0.0222,-0.004 0.0434,-0.0134 0.0617,-0.0264 0.0328,-0.0282 0.0501,-0.0706 0.0459,-0.1136 0.001,-0.0385 -0.0138,-0.0755 -0.0406,-0.10336 -0.0265,-0.0275 -0.0632,-0.0434 -0.1016,-0.0434 -0.0381,0 -0.0744,0.0159 -0.1009,0.0437 -0.0261,0.0282 -0.0399,0.0649 -0.0381,0.10301 -0.006,0.066 0.0392,0.12559 0.10372,0.13864 l 0.006,0.001 z m 0.51153,-0.620898 v 0.711568 c 0,0.01 -0.004,0.0191 -0.0109,0.0261 -0.007,0.007 -0.0162,0.0109 -0.0261,0.0109 h -0.88477 c -0.01,0 -0.0191,-0.004 -0.0261,-0.0109 -0.007,-0.007 -0.0109,-0.0166 -0.0109,-0.0261 v -0.711568 c 0,-0.0099 0.004,-0.01905 0.0109,-0.02646 0.007,-0.0067 0.0162,-0.01058 0.0261,-0.01058 h 0.88477 c 0.01,0 0.0191,0.0039 0.0261,0.01058 0.007,0.0074 0.0109,0.01658 0.0109,0.02646 z m -0.82162,-0.167569 h 0.6798 c 0.004,-0.03316 0.004,-0.06668 0.001,-0.100542 -0.0109,-0.134761 -0.0854,-0.256117 -0.20038,-0.326672 -0.0769,-0.04304 -0.16933,-0.04868 -0.25047,-0.01517 -0.11042,0.0508 -0.1905,0.149578 -0.21766,0.267406 l -0.002,0.01129 c -0.0127,0.05362 -0.0159,0.109008 -0.0102,0.163689 z m -0.80822,-14.25327 v 1.092553 l 1.22097,1.063272 v -2.155825 z m 1.45133,-3.984272 0.11007,0.08079 c -0.0642,0.04939 -0.10195,0.126294 -0.10195,0.207433 0,0.08149 0.0374,0.157692 0.10195,0.207081 l -0.11007,0.08114 c -0.0801,-0.07479 -0.12523,-0.178859 -0.12559,-0.28822 0,-0.109008 0.0459,-0.213783 0.12559,-0.28822 z m -0.23177,-0.169333 0.10865,0.07902 c -0.20355,0.211666 -0.2039,0.545394 0,0.756708 l -0.10865,0.07938 c -0.23637,-0.258939 -0.23637,-0.656167 0,-0.915105 z m -0.12207,-0.08961 -0.1083,-0.07867 c -0.30833,0.360538 -0.30833,0.891116 0,1.251655 l 0.1083,-0.07902 c -0.27481,-0.312561 -0.2741,-0.78105 0,-1.093965 z m 0.89289,0.258939 -0.11042,0.08079 c 0.0646,0.04939 0.10195,0.125942 0.10195,0.207081 0,0.08114 -0.0378,0.158044 -0.10195,0.207433 l 0.11042,0.08114 c 0.0797,-0.07514 0.12488,-0.179211 0.12453,-0.288572 0,-0.109362 -0.0448,-0.213431 -0.12453,-0.287868 z m 0.23142,-0.169334 -0.1083,0.07902 c 0.2032,0.210961 0.2032,0.545394 0,0.756708 l 0.1083,0.07938 c 0.23636,-0.259644 0.23671,-0.656167 0,-0.915105 z m 0.12206,-0.08961 0.10795,-0.07867 c 0.30868,0.359834 0.30833,0.891117 0,1.251656 l -0.10795,-0.07902 c 0.27446,-0.313267 0.27481,-0.78105 0,-1.093964 z m -0.47555,1.921581 h -0.29562 l 0.0857,-1.068564 h 0.12453 z m -12.91907,17.413116 v 0.19579 h 1.69333 V 100.6098 Z M 162.06156,81.740419 c -0.0212,-0.02399 -0.0533,-0.03563 -0.085,-0.03104 -0.0275,0.0032 -0.0529,0.01835 -0.0688,0.04127 l -0.0162,0.02328 c 0,3.53e-4 -0.001,7.05e-4 -0.002,7.05e-4 -7e-4,-3.52e-4 -10e-4,-7.05e-4 -10e-4,-0.0014 v -0.113601 c -0.001,-0.0053 -0.002,-0.01094 -0.004,-0.01658 l 0.0116,-0.0081 c 0.0247,0.02469 0.0593,0.03634 0.0938,0.0321 0.0346,-0.0049 0.0649,-0.02469 0.0825,-0.05503 0.0212,-0.03704 0.0194,-0.08255 -0.004,-0.117828 -0.024,-0.03563 -0.0653,-0.05433 -0.1076,-0.04868 -0.06,0.0071 -0.10336,0.06138 -0.0974,0.121355 0.002,0.01341 0.006,0.02681 0.0113,0.03916 l -0.0123,0.0085 c -0.012,-0.0078 -0.0265,-0.01023 -0.0402,-0.0071 -0.024,0.006 -0.0406,0.02752 -0.0402,0.05221 v 0.839611 h 0.10901 v -0.280815 h 0.21873 v 0.280811 h 0.1083 v -0.340078 c 3.5e-4,-0.01799 -0.007,-0.03528 -0.0198,-0.04868 -0.004,-0.0049 -0.0106,-0.0081 -0.0176,-0.0095 l 0.001,-0.02046 c 0.0257,-3.53e-4 0.0515,7.05e-4 0.0773,0.0028 0.01,0 0.0194,0.0018 0.0286,0.0046 l 0.001,7.06e-4 c 0.005,7.05e-4 0.008,0.0035 0.01,0.0078 0.002,0.01164 0.004,0.02293 0.004,0.03422 0.003,0.0702 0.004,0.140406 0.004,0.210961 -3.5e-4,0.01799 -3.5e-4,0.03598 3.5e-4,0.05433 -7e-4,0.01976 0.01,0.0381 0.0268,0.04763 0.0219,0.01305 0.0494,0.01058 0.0684,-0.0064 0.0113,-0.01129 0.0173,-0.02716 0.0173,-0.04304 v -0.345369 c 7.1e-4,-0.02681 -0.0116,-0.05221 -0.0335,-0.06773 -0.0138,-0.0099 -0.0303,-0.01482 -0.0476,-0.01482 h -0.1972 l -0.0571,-0.176392 c -0.004,-0.01835 -0.0116,-0.03528 -0.024,-0.04939 z m -0.0515,0.332669 c 0.008,0.0028 0.0162,0.0049 0.0247,0.0063 l -0.002,0.02046 h -0.14428 v -0.277585 c 0,-7.05e-4 3.5e-4,-0.0014 0.001,-0.0014 0.001,-3.53e-4 0.002,3.53e-4 0.002,0.0011 l 0.0646,0.186972 c 0.005,0.02928 0.0257,0.05362 0.054,0.06421 z m 5.74605,-0.580672 h -0.005 c -0.0533,0 -0.0967,0.04269 -0.0974,0.0956 -7.1e-4,0.05327 0.0416,0.09737 0.0949,0.09878 0.0529,0.0014 0.0977,-0.04022 0.0998,-0.09349 0.002,-0.05292 -0.0392,-0.09807 -0.0924,-0.100894 z m 0.17568,0.460375 c -3.5e-4,-0.0067 -0.002,-0.01305 -0.005,-0.0194 -0.003,-0.0071 -0.008,-0.0134 -0.013,-0.0187 -0.0169,-0.0187 -0.0353,-0.03669 -0.054,-0.05327 v 0.236008 c 0,0.0035 -7.1e-4,0.0074 -0.002,0.01058 0.002,0.05221 0.007,0.10407 0.0148,0.155575 0.002,0.01058 0.005,0.02117 0.01,0.03104 0.007,0.01199 0.0152,0.02399 0.024,0.03493 0.0268,0.03528 0.0554,0.06879 0.0857,0.100541 0.0169,0.01623 0.018,0.04198 0.003,0.05962 -0.0148,0.01729 -0.0444,0.01693 -0.0621,0.0028 -0.007,-0.0056 -0.0127,-0.01235 -0.0183,-0.01905 -0.0328,-0.03563 -0.0631,-0.07338 -0.0914,-0.112183 -0.0106,-0.01517 -0.0194,-0.03034 -0.0265,-0.04692 -0.006,-0.01764 -0.0102,-0.03563 -0.0123,-0.05397 -0.006,-0.04057 -0.01,-0.08149 -0.0116,-0.122061 h -0.0282 c -0.0201,0.02963 -0.0399,0.06068 -0.0586,0.09102 -0.0109,0.01834 -0.0212,0.03704 -0.0293,0.05644 -0.007,0.01976 -0.0109,0.04057 -0.013,0.06138 -0.005,0.03775 -0.008,0.0762 -0.008,0.115005 -7.1e-4,0.01482 -0.009,0.02893 -0.0229,0.03598 -0.013,0.0074 -0.0289,0.0067 -0.0423,-0.0011 -0.0159,-0.0099 -0.0243,-0.02893 -0.0205,-0.04727 0.001,-0.0381 0.004,-0.07585 0.008,-0.113594 0.004,-0.02646 0.01,-0.05292 0.0173,-0.07832 0.006,-0.01446 0.012,-0.02858 0.0197,-0.04198 0.0176,-0.03175 0.0363,-0.06279 0.0565,-0.09313 -0.002,-0.0025 -0.004,-0.0049 -0.005,-0.0078 -0.002,-0.0053 -0.004,-0.01094 -0.005,-0.01658 -7.1e-4,-0.07373 -0.002,-0.146755 -0.002,-0.21978 -0.006,0.0049 -0.0113,0.01023 -0.0169,0.01552 -0.0169,0.01517 -0.0346,0.02963 -0.054,0.04233 -0.0187,0.01058 -0.0395,0.01693 -0.061,0.01835 -0.0268,0.0018 -0.0533,-0.0011 -0.079,-0.0092 -0.0226,-0.0067 -0.0363,-0.02999 -0.03,-0.05292 0.006,-0.02293 0.0303,-0.03634 0.0533,-0.03104 0.013,0.0035 0.0265,0.0063 0.0399,0.0071 0.0116,3.53e-4 0.0229,-0.0018 0.0335,-0.0071 0.0127,-0.0081 0.0247,-0.01729 0.0356,-0.02787 0.0293,-0.02646 0.0582,-0.05362 0.0857,-0.08184 0.005,-0.0078 0.0113,-0.01446 0.0194,-0.02011 0.007,-0.006 0.0159,-0.0099 0.0257,-0.01094 h 0.11465 c 0.0162,0 0.0325,0.0063 0.0437,0.01764 0.0176,0.01446 0.0353,0.02928 0.0522,0.04445 0.0282,0.0254 0.0554,0.05186 0.0808,0.08043 0.0194,0.02222 0.031,0.04974 0.0346,0.07867 0.003,0.0254 10e-4,0.05151 -0.005,0.0762 -0.003,0.01094 -0.01,0.02046 -0.0191,0.02646 -0.009,0.0064 -0.0215,0.0081 -0.0324,0.0056 -0.0222,-0.0046 -0.0367,-0.02611 -0.0328,-0.04868 0.002,-0.0099 0.004,-0.01975 0.005,-0.02963 v -0.0018 c 0,-0.006 0,-0.01164 -0.001,-0.01764 z m -3.13514,0.129822 c -0.001,-0.0035 -0.001,-0.0074 -0.001,-0.01094 v -0.246239 c -0.0187,0.01658 -0.0367,0.03387 -0.0536,0.05256 -0.006,0.0056 -0.0109,0.01199 -0.0145,0.01905 -0.006,0.01164 -0.008,0.02399 -0.008,0.03704 3.6e-4,0.0127 0.002,0.02505 0.005,0.03739 0.005,0.02399 -0.0102,0.04763 -0.0342,0.05292 -0.024,0.0053 -0.048,-0.01129 -0.054,-0.03492 -0.007,-0.02575 -0.009,-0.05221 -0.006,-0.07832 0.004,-0.03069 0.0166,-0.05997 0.0363,-0.08361 0.024,-0.02681 0.0494,-0.05186 0.0762,-0.07585 0.0201,-0.0187 0.0413,-0.03669 0.0624,-0.05397 0.0123,-0.012 0.0286,-0.0187 0.0462,-0.0187 h 0.1196 c 0.0127,0 0.0247,0.0056 0.0332,0.01446 0.0335,0.03704 0.0688,0.07197 0.10584,0.105128 0.01,0.0095 0.0205,0.01799 0.0321,0.02575 l 0.001,7.06e-4 0.002,0.0014 c 0.0106,0.0049 0.0226,0.0074 0.0346,0.0067 0.0134,-7.05e-4 0.0272,-0.0028 0.0399,-0.0067 0.0236,-0.0067 0.0487,0.0067 0.0564,0.03034 0.003,0.01129 0.002,0.02399 -0.004,0.03422 -0.006,0.01094 -0.0159,0.0187 -0.0275,0.02223 -0.0279,0.0088 -0.0575,0.01235 -0.0875,0.0095 -0.0205,-0.0021 -0.0406,-0.0085 -0.0586,-0.0187 -0.0176,-0.01164 -0.0346,-0.02469 -0.0501,-0.03881 -0.008,-0.0071 -0.0162,-0.01446 -0.024,-0.02187 l -0.002,0.228247 c 0,0.0099 -0.003,0.0194 -0.01,0.02716 0.0215,0.03246 0.042,0.06562 0.0603,0.100189 0.0141,0.02469 0.024,0.05151 0.0293,0.07902 0.007,0.03598 0.0113,0.07232 0.013,0.108303 0.002,0.02152 0.003,0.04269 0.004,0.06421 0,0.02399 -0.0194,0.04374 -0.0434,0.04515 -0.0247,0.0011 -0.0455,-0.01834 -0.0473,-0.04269 -7.1e-4,-0.03634 -0.003,-0.07232 -0.007,-0.108303 -0.002,-0.02258 -0.006,-0.0448 -0.0123,-0.06668 -0.005,-0.01411 -0.0102,-0.02787 -0.0176,-0.04092 -0.0243,-0.04163 -0.0501,-0.08255 -0.0769,-0.122414 h -0.0293 c -0.002,0.04057 -0.006,0.08079 -0.0116,0.121003 -0.002,0.02011 -0.006,0.03951 -0.0123,0.05891 l -7.1e-4,0.0021 v 0.0014 c -0.009,0.0194 -0.0194,0.03775 -0.0317,0.05468 -0.0332,0.0448 -0.0691,0.08784 -0.10724,0.128411 -0.0162,0.01658 -0.0423,0.01905 -0.061,0.0046 -0.01,-0.0078 -0.0162,-0.0194 -0.0169,-0.03175 -0.001,-0.01305 0.004,-0.0254 0.0123,-0.03457 0.0328,-0.03457 0.0639,-0.07091 0.0928,-0.109008 0.009,-0.01094 0.0169,-0.02258 0.0233,-0.03528 0.004,-0.0099 0.007,-0.02011 0.009,-0.03069 0.001,-0.0056 0.002,-0.01164 0.003,-0.01693 l 0.001,-0.0088 c 0.006,-0.04551 0.01,-0.09066 0.0113,-0.136173 z m 0.0102,-0.540808 c 0,0.05398 0.0423,0.09878 0.0967,0.101247 h 0.005 c 0.0409,0 0.078,-0.02469 0.0938,-0.06244 0.0159,-0.03775 0.007,-0.08185 -0.0219,-0.110772 -0.0293,-0.02893 -0.0727,-0.03775 -0.11077,-0.02187 -0.0381,0.01588 -0.0628,0.05256 -0.0628,0.09384 z m 7.48454,0.318206 c 0.0145,0.0042 0.03,0.006 0.0452,0.0042 0.0113,-7.06e-4 0.0219,-0.0053 0.0307,-0.01235 0.0226,-0.01799 0.0441,-0.03704 0.0649,-0.0575 0.018,-0.01764 0.0356,-0.03563 0.0533,-0.05398 0.007,-0.0088 0.0166,-0.01587 0.0272,-0.02046 0.004,-0.0021 0.008,-0.0028 0.012,-0.0028 h 0.115 c 0.0148,-7.06e-4 0.0289,0.0046 0.0399,0.01376 0.0346,0.02822 0.0677,0.05821 0.0998,0.08925 0.0166,0.01482 0.0317,0.03175 0.0452,0.04974 0.0169,0.02469 0.0268,0.05397 0.0275,0.08396 7.1e-4,0.02152 -0.002,0.04304 -0.007,0.06385 -0.006,0.02081 -0.0272,0.03351 -0.0483,0.02963 -0.0116,-0.0018 -0.0222,-0.0085 -0.0286,-0.01835 -0.007,-0.0099 -0.009,-0.02258 -0.006,-0.03422 0.004,-0.01552 0.005,-0.0321 0.004,-0.04798 -0.001,-0.0081 -0.004,-0.01623 -0.008,-0.02328 -0.012,-0.01482 -0.0243,-0.02893 -0.0385,-0.04198 -0.008,-0.0081 -0.0169,-0.01623 -0.0254,-0.02399 v 0.236008 c 0,0.0035 -3.5e-4,0.0074 -0.001,0.01094 0.001,0.04586 0.006,0.09207 0.0116,0.137936 0.001,0.01305 0.004,0.02575 0.008,0.0381 0.006,0.01164 0.0123,0.02223 0.0194,0.0321 0.0296,0.03951 0.0614,0.07761 0.0952,0.113242 0.0109,0.01164 0.0145,0.02787 0.0102,0.04269 -0.005,0.01482 -0.0169,0.02611 -0.0317,0.02963 -0.0152,0.0032 -0.031,-0.0011 -0.0409,-0.0127 -0.0321,-0.03316 -0.0621,-0.06809 -0.0903,-0.104775 -0.013,-0.01658 -0.0247,-0.03422 -0.0349,-0.05292 -0.007,-0.0127 -0.012,-0.02681 -0.0148,-0.04127 -0.007,-0.03704 -0.0113,-0.07373 -0.0141,-0.110772 -10e-4,-0.01376 -0.002,-0.02752 -0.003,-0.04127 h -0.0275 c -0.0236,0.03457 -0.0462,0.0695 -0.067,0.10548 -0.008,0.01341 -0.0155,0.02716 -0.0212,0.04163 -0.007,0.02399 -0.0116,0.04868 -0.0141,0.07338 -0.003,0.03175 -0.006,0.0635 -0.007,0.0949 7.1e-4,0.0099 -0.001,0.0194 -0.006,0.02787 -0.0102,0.01729 -0.0303,0.0254 -0.0497,0.01976 -0.0187,-0.0053 -0.0318,-0.02399 -0.031,-0.04374 0.001,-0.0374 0.004,-0.07479 0.008,-0.111831 0.002,-0.02434 0.006,-0.04868 0.013,-0.07232 0.005,-0.01658 0.0116,-0.03246 0.0198,-0.04763 0.0187,-0.03528 0.0392,-0.0695 0.061,-0.102659 -0.006,-0.0071 -0.009,-0.01658 -0.009,-0.02575 l -0.003,-0.218722 c -0.0176,0.01693 -0.0363,0.03316 -0.0557,0.04798 -0.0254,0.01799 -0.0547,0.02787 -0.0854,0.02858 -0.0243,0.0011 -0.049,-0.0028 -0.072,-0.01058 -0.0187,-0.0063 -0.0303,-0.02434 -0.0286,-0.0441 0.001,-0.01905 0.0159,-0.03528 0.0353,-0.03916 l 0.001,-3.53e-4 c 0.008,-7.05e-4 0.0159,0 0.024,0.0028 z m 0.29739,-0.371475 h -0.004 c -0.0533,0 -0.0967,0.04269 -0.0977,0.09596 -7.1e-4,0.05327 0.0416,0.09737 0.0949,0.09843 0.0533,0.0014 0.0977,-0.04022 0.0995,-0.09349 0.002,-0.05327 -0.0392,-0.09807 -0.0924,-0.100894 z m -2.81764,-0.04198 c -0.054,0 -0.0984,0.04269 -0.10089,0.09701 v 0.0042 c 0,0.04092 0.0247,0.07832 0.0628,0.09349 0.0381,0.01588 0.0815,0.0071 0.11042,-0.02222 0.0289,-0.02893 0.0374,-0.07232 0.0215,-0.110419 -0.0159,-0.03775 -0.0526,-0.06209 -0.0938,-0.06209 z m 0.17745,0.783167 c 0.008,0.02011 0.0145,0.04128 0.0183,0.06279 0.007,0.03916 0.0113,0.07832 0.013,0.118181 10e-4,0.01517 0.002,0.03034 0.002,0.04586 0,0.02434 -0.019,0.04445 -0.043,0.04551 -0.0247,7.06e-4 -0.0459,-0.01834 -0.0473,-0.04304 -7.1e-4,-0.0381 -0.003,-0.0762 -0.008,-0.113947 -0.002,-0.02187 -0.006,-0.04304 -0.012,-0.06385 -0.005,-0.01305 -0.0102,-0.02575 -0.0173,-0.03775 -0.024,-0.04163 -0.0497,-0.08255 -0.0773,-0.122767 h -0.0282 c -0.002,0.04057 -0.006,0.08114 -0.0116,0.121003 -0.002,0.02011 -0.007,0.03986 -0.0123,0.05891 l -7.1e-4,0.0021 -10e-4,0.0018 c -0.008,0.0187 -0.0183,0.03704 -0.0303,0.05362 -0.0307,0.04127 -0.0635,0.08149 -0.0988,0.119239 -0.004,0.0056 -0.009,0.01023 -0.0141,0.01482 -0.0176,0.01587 -0.0445,0.01587 -0.0617,-7.05e-4 -0.0169,-0.01623 -0.0145,-0.04763 0.001,-0.06562 0.0332,-0.03457 0.0639,-0.07091 0.0924,-0.109008 0.009,-0.01129 0.0169,-0.02293 0.0236,-0.03528 0.004,-0.0099 0.007,-0.02011 0.009,-0.03069 0.008,-0.05362 0.013,-0.107597 0.0152,-0.161572 -0.001,-0.0035 -0.001,-0.0074 -0.001,-0.01129 v -0.246592 c -0.019,0.01693 -0.0367,0.03422 -0.0536,0.05292 -0.006,0.0056 -0.0106,0.012 -0.0152,0.01905 -0.005,0.01164 -0.008,0.02469 -0.007,0.0374 7.1e-4,0.01305 0.002,0.0254 0.005,0.0381 0.002,0.01235 -0.002,0.02505 -0.01,0.03492 -0.008,0.0099 -0.0198,0.01588 -0.0321,0.01658 -0.0219,0.0014 -0.0413,-0.01341 -0.0459,-0.03457 -0.007,-0.0254 -0.009,-0.05221 -0.006,-0.07832 0.004,-0.03104 0.0159,-0.06033 0.036,-0.08431 0.0243,-0.02646 0.0501,-0.05221 0.0773,-0.07585 0.0201,-0.0187 0.0409,-0.03669 0.0617,-0.05433 0.0127,-0.01129 0.0286,-0.01764 0.0455,-0.01799 h 0.1203 c 0.0123,3.53e-4 0.0243,0.0056 0.0328,0.01446 0.0335,0.03739 0.0688,0.07197 0.10583,0.10548 0.01,0.0095 0.0208,0.01799 0.0321,0.0254 l 0.001,0.0011 10e-4,7.05e-4 c 0.0106,0.0049 0.0222,0.0078 0.0339,0.0074 0.0141,-3.52e-4 0.0279,-0.0025 0.0413,-0.0071 0.0116,-0.0035 0.024,-0.0021 0.0342,0.0035 0.0102,0.006 0.0183,0.01552 0.0219,0.02681 0.003,0.01164 0.002,0.02399 -0.004,0.03457 -0.006,0.01094 -0.0152,0.0187 -0.0268,0.02223 -0.0247,0.0078 -0.0504,0.01129 -0.0762,0.0099 -0.0247,-7.06e-4 -0.0487,-0.0074 -0.0702,-0.0194 -0.0173,-0.01129 -0.0342,-0.02434 -0.0501,-0.03845 -0.008,-0.0074 -0.0159,-0.01446 -0.024,-0.02222 l -0.002,0.2286 c 0,0.0095 -0.004,0.0194 -0.01,0.02716 0.0106,0.01623 0.0212,0.03281 0.0314,0.04974 l 0.007,0.01199 c 0.0127,0.02011 0.024,0.04128 0.0342,0.06279 z m 4.11903,-0.183092 c -0.0342,-0.01623 -0.0741,-0.01376 -0.10689,0.0053 -0.0321,0.0194 -0.0526,0.05327 -0.0543,0.09137 l -3.5e-4,0.0056 c 0,0.05574 0.0413,0.103363 0.0963,0.111477 0.0554,0.0078 0.10865,-0.02575 0.12488,-0.07902 0.0159,-0.05397 -0.009,-0.110772 -0.0596,-0.134761 z m 0.68722,0.0127 c 0.025,0.01517 0.0451,0.03598 0.06,0.06068 0.012,0.01799 0.0183,0.03951 0.0183,0.06174 v 0.08537 h -0.65263 v -0.249767 h 0.43039 0.003 c 0.0497,-3.52e-4 0.0995,0.01446 0.14075,0.04198 z m -0.91017,-0.141817 h -0.0755 c -0.007,0 -0.0134,0.0056 -0.0138,0.01341 v 0.566208 c 0,0.0039 0.001,0.0071 0.004,0.0095 0.002,0.0025 0.006,0.0042 0.01,0.0042 h 0.0755 c 0.004,0 0.007,-0.0018 0.009,-0.0042 0.003,-0.0025 0.004,-0.0056 0.004,-0.0095 v -0.0889 h 0.89182 v 0.0889 c 0,0.0039 0.001,0.0071 0.004,0.0095 0.003,0.0025 0.006,0.0042 0.01,0.0042 h 0.0561 c 0.007,0 0.0138,-0.0063 0.0138,-0.01376 v -0.164747 c 0,-0.006 -0.002,-0.01164 -0.006,-0.01588 -0.005,-0.0042 -0.0102,-0.0067 -0.0162,-0.0067 h -0.95285 v -0.378883 c 0,-0.0035 -0.001,-0.0071 -0.004,-0.0095 -0.003,-0.0025 -0.006,-0.0039 -0.009,-0.0039 z m -12.35604,-0.33514 v 0.838906 c 0,0.06068 0.024,0.118886 0.067,0.161925 0.0427,0.04269 0.10089,0.06668 0.16157,0.06668 v 0 h 1.09537 v 0 c 0.1263,0 0.22931,-0.102306 0.22931,-0.2286 h -0.11183 c 0,0.03104 -0.0123,0.06068 -0.0346,0.0829 -0.0219,0.02187 -0.0515,0.03457 -0.0829,0.03457 h -1.09538 c -0.031,0 -0.0614,-0.01235 -0.0829,-0.03457 -0.0219,-0.02187 -0.0346,-0.05186 -0.0346,-0.0829 v -0.838906 z m 0.16157,-0.430741 v -0.251531 h 0.0741 v 0.217312 z m -0.23319,0.230363 0.84808,-0.388055 0.84737,0.388055 0.11254,-0.07197 -0.95991,-0.439913 -0.42933,0.196497 v -0.277283 h -0.29669 v 0.413456 l -0.23459,0.107244 z m 2.56328,-0.230363 v -0.251531 h 0.0741 v 0.217312 z m -0.23283,0.230363 0.84737,-0.388055 0.84773,0.388055 0.11289,-0.07197 -0.96062,-0.439913 -0.42933,0.196497 v -0.277283 h -0.29668 v 0.413456 l -0.23425,0.107244 z m 0.29986,1.267884 h 1.22449 c 0.0201,0 0.0385,-0.01058 0.0483,-0.02752 0.01,-0.01764 0.01,-0.0388 0,-0.05574 -0.01,-0.01764 -0.0282,-0.02787 -0.0483,-0.02787 h -1.22449 c -0.0314,0 -0.0614,-0.01235 -0.0829,-0.03457 -0.0222,-0.02187 -0.0346,-0.05186 -0.0346,-0.0829 v -0.838906 h -0.11148 v 0.838906 c 0,0.06068 0.024,0.118886 0.0674,0.161925 0.0427,0.04269 0.1009,0.06668 0.16158,0.06668 z m 2.35797,-1.50107 v -0.25153 h 0.0744 v 0.217311 z m -0.23283,0.230364 0.84807,-0.388055 0.84738,0.388055 0.11253,-0.07232 -0.95991,-0.439914 -0.42968,0.19685 v -0.277635 h -0.29633 v 0.413456 l -0.2346,0.107244 z m 0.29986,1.267884 h 1.22484 c 0.0201,0 0.0384,-0.01058 0.0483,-0.02787 0.01,-0.01729 0.01,-0.03845 0,-0.05574 -0.01,-0.01729 -0.0282,-0.02787 -0.0483,-0.02787 h -1.22484 c -0.031,0 -0.061,-0.01235 -0.0829,-0.03422 -0.0222,-0.02187 -0.0342,-0.05186 -0.0342,-0.08326 v -0.838553 h -0.11148 v 0.838553 c 0,0.06068 0.024,0.118886 0.0674,0.161925 0.0427,0.04304 0.1009,0.06703 0.16122,0.06703 z m 2.34667,-1.498248 v -0.25153 h 0.0745 v 0.217311 z m -0.23283,0.230364 0.84843,-0.388408 0.84738,0.388408 0.11253,-0.07267 -0.95991,-0.439561 -0.42933,0.196497 v -0.277285 h -0.29704 v 0.413456 l -0.23424,0.106891 z m 0.30022,1.267884 h 1.22484 c 0.0201,0 0.0381,-0.01058 0.048,-0.02822 0.0102,-0.01693 0.0102,-0.0381 0,-0.05539 -0.01,-0.01729 -0.0279,-0.02787 -0.048,-0.02787 h -1.22484 c -0.031,0 -0.061,-0.01235 -0.0829,-0.03457 -0.0222,-0.02187 -0.0346,-0.05186 -0.0346,-0.08326 v -0.838553 h -0.11113 v 0.838553 c 0,0.06103 0.024,0.119239 0.067,0.162278 0.043,0.04304 0.10054,0.06703 0.16157,0.06703 z m 2.36361,-1.495425 v -0.251531 h 0.0737 v 0.217312 z m -0.23319,0.230011 0.84773,-0.388056 0.84772,0.388056 0.11254,-0.07197 -0.96026,-0.439562 -0.42933,0.196145 v -0.277632 h -0.29669 v 0.413808 l -0.2346,0.107244 z m 0.29986,1.268236 h 1.22485 c 0.0198,0 0.0385,-0.01058 0.0483,-0.02787 0.01,-0.01729 0.01,-0.03845 0,-0.05574 -0.01,-0.01729 -0.0286,-0.02787 -0.0483,-0.02787 h -1.22485 c -0.0314,0 -0.061,-0.01235 -0.0829,-0.03457 -0.0219,-0.02187 -0.0342,-0.05186 -0.0342,-0.08326 v -0.8382 h -0.11148 v 0.8382 c 0,0.06103 0.024,0.119239 0.067,0.162278 0.0427,0.04269 0.1009,0.06703 0.16158,0.06703 z m 2.35726,-1.499306 v -0.250825 h 0.0744 v 0.217311 z m -0.23283,0.230717 0.84808,-0.388408 0.84772,0.388408 0.11219,-0.07197 -0.95991,-0.440267 -0.42933,0.19685 v -0.277279 h -0.29669 v 0.413455 l -0.23495,0.107245 z m 0.29986,1.267883 h 1.22485 c 0.0201,0 0.0381,-0.01058 0.0483,-0.02787 0.01,-0.01729 0.01,-0.03845 0,-0.05574 -0.0102,-0.01693 -0.0282,-0.02752 -0.0483,-0.02752 h -1.22485 c -0.031,0 -0.061,-0.01235 -0.0829,-0.03457 -0.0222,-0.02187 -0.0342,-0.05186 -0.0342,-0.08326 v -0.8382 h -0.11148 v 0.8382 c 0,0.06103 0.024,0.118886 0.0674,0.161925 0.0427,0.04304 0.1009,0.06703 0.16122,0.06703 z m -9.26359,-0.403225 h -0.31468 v -0.102658 c 0.0462,-0.07973 0.0924,-0.160161 0.13758,-0.240242 0.0141,-0.02328 0.0265,-0.04763 0.0381,-0.07232 0.0113,-0.02575 0.0176,-0.05397 0.0187,-0.0822 0.001,-0.01411 0.001,-0.02858 3.6e-4,-0.04304 -3.6e-4,-0.01094 -0.003,-0.02117 -0.008,-0.03069 -0.005,-0.01058 -0.0159,-0.01693 -0.0275,-0.01764 -0.006,-0.0011 -0.0124,-3.52e-4 -0.0187,0.0018 -0.009,0.0049 -0.0159,0.01305 -0.0194,0.02293 -0.002,0.01023 -0.004,0.02117 -0.004,0.0321 0,0.03704 0,0.07373 0,0.110772 h -0.10972 c -7e-4,-0.03563 -7e-4,-0.07126 0,-0.107245 0,-0.01658 0.001,-0.03351 0.003,-0.05009 0.002,-0.02399 0.0109,-0.04727 0.025,-0.06668 0.0169,-0.02328 0.0413,-0.03986 0.0688,-0.04798 0.0307,-0.0092 0.0639,-0.0095 0.0949,-0.0011 0.0349,0.01094 0.0646,0.03457 0.0825,0.06667 0.0106,0.01976 0.0176,0.04128 0.0212,0.0635 0.0109,0.07197 -3.5e-4,0.146403 -0.0328,0.211666 -0.008,0.01623 -0.0166,0.0321 -0.0254,0.04727 l -0.1143,0.197555 h 0.18415 z m -1.53212,-0.60713 -0.0134,0.0194 -0.0169,0.01482 c -0.007,0.0035 -0.013,0.0071 -0.0201,0.01094 l -0.0219,0.0074 -0.0268,0.0049 -0.0434,0.0018 v 0.07091 h 0.11429 v 0.50553 h 0.10937 v -0.68333 h -0.0649 l -0.006,0.02399 z m 3.67595,-0.03105 c -0.005,0.02046 -0.007,0.04163 -0.008,0.0628 -0.001,0.02187 -0.001,0.0441 7.1e-4,0.06562 h 0.0977 c -0.004,-0.02611 -0.004,-0.05256 -3.5e-4,-0.07902 3.5e-4,-0.0095 0.004,-0.0187 0.009,-0.02681 0.005,-0.0095 0.0155,-0.01517 0.0265,-0.01482 0.009,-0.0014 0.0187,3.52e-4 0.0272,0.0046 0.008,0.0046 0.0138,0.01199 0.0162,0.02081 0.002,0.01094 0.003,0.02223 0.004,0.03316 0.002,0.02046 0.002,0.04163 0.001,0.06209 -7e-4,0.0127 -0.003,0.02505 -0.009,0.03634 -0.005,0.01023 -0.0141,0.01799 -0.0251,0.02152 -0.0208,0.0053 -0.0423,0.006 -0.0635,0.0014 l -0.002,0.103717 c 0.0201,-0.0049 0.0406,-0.0056 0.0603,-0.0018 0.0106,0.0014 0.0201,0.0056 0.0275,0.01235 0.006,0.0067 0.01,0.01411 0.0123,0.02187 0.004,0.0187 0.006,0.0381 0.006,0.0575 -7e-4,0.01976 -0.001,0.03916 -0.001,0.05891 3.5e-4,0.0127 -0.002,0.0254 -0.006,0.03704 -0.005,0.01199 -0.0152,0.02117 -0.0275,0.02469 -0.0138,0.0049 -0.0293,0.0042 -0.042,-0.0025 -0.012,-0.0063 -0.0201,-0.01693 -0.0226,-0.02963 -0.002,-0.01587 -0.003,-0.0314 -0.003,-0.04727 -7e-4,-0.01623 -3.5e-4,-0.03246 0.001,-0.04904 l -0.0974,-0.0014 c -0.002,0.02611 -0.002,0.05186 -0.002,0.07761 0,0.0194 0.002,0.03881 0.007,0.0575 0.007,0.02716 0.0233,0.0508 0.0466,0.06632 0.0265,0.01623 0.0572,0.02575 0.0885,0.02716 0.0265,0.0021 0.0529,-0.0025 0.0769,-0.01376 0.0374,-0.01799 0.0656,-0.05115 0.0762,-0.09137 0.005,-0.02293 0.009,-0.04692 0.009,-0.07056 0,-0.0321 -0.002,-0.06421 -0.005,-0.09631 -7e-4,-0.01623 -0.005,-0.0321 -0.0102,-0.04657 -0.008,-0.02011 -0.0236,-0.03704 -0.0423,-0.04763 0.0187,-0.01129 0.0321,-0.02893 0.0384,-0.04974 0.005,-0.01834 0.008,-0.03704 0.008,-0.05574 0.002,-0.02716 0.001,-0.05468 -0.002,-0.08184 -7e-4,-0.02011 -0.006,-0.04022 -0.0131,-0.05891 -0.0123,-0.02928 -0.0349,-0.05221 -0.0639,-0.06456 -0.025,-0.01058 -0.0522,-0.01411 -0.079,-0.01199 -0.0159,0.0011 -0.0307,0.0042 -0.0459,0.0092 -0.0113,0.0042 -0.0222,0.01023 -0.0317,0.01764 l -0.004,0.0032 c -0.0169,0.01587 -0.0289,0.03598 -0.0353,0.05821 z m 2.65324,-0.04904 v 0.444853 h 0.0564 v 0.10795 h -0.0564 v 0.148872 h -0.11253 v -0.148872 h -0.16687 v -0.112536 l 0.13511,-0.440267 z m -0.0942,0.444853 h -0.10089 m 0.10089,0 0.004,-0.351719 m 0,0 -0.10442,0.351719 m 2.65959,0.156633 c -0.0109,0.03105 -0.0321,0.05786 -0.0603,0.07514 -0.025,0.01446 -0.0529,0.02223 -0.0815,0.02293 -0.024,0.0018 -0.0483,-0.0018 -0.0709,-0.0099 -0.0346,-0.01341 -0.0617,-0.03916 -0.0769,-0.07267 -0.009,-0.02011 -0.0134,-0.04127 -0.0152,-0.06244 -0.002,-0.03104 -10e-4,-0.06209 0.002,-0.09278 l 0.11148,0.0014 c -0.002,0.02575 -0.002,0.0515 -7.1e-4,0.07726 0,0.01058 0.003,0.02046 0.007,0.02963 0.005,0.0074 0.0109,0.01305 0.0191,0.01623 0.012,0.0042 0.0254,0.0042 0.0377,0 0.0106,-0.0042 0.0183,-0.01235 0.0212,-0.02328 0.003,-0.01305 0.005,-0.02611 0.005,-0.03951 7.1e-4,-0.03704 7.1e-4,-0.07373 0.001,-0.110773 7.1e-4,-0.02046 -3.5e-4,-0.04127 -0.002,-0.06174 -7e-4,-0.0099 -0.005,-0.01905 -0.0109,-0.02646 -0.008,-0.0074 -0.0183,-0.01164 -0.0289,-0.01129 -0.0116,-0.0014 -0.0229,0.0046 -0.0282,0.01552 -0.003,0.0092 -0.005,0.01905 -0.005,0.02893 -7e-4,0.01094 -3.5e-4,0.02152 7.1e-4,0.03281 h -0.11077 l 0.0109,-0.392289 h 0.28222 v 0.10795 h -0.17427 l -0.003,0.109009 c 0.002,-7.06e-4 0.004,-0.0014 0.005,-0.0018 0.0282,-0.01164 0.0596,-0.01341 0.0889,-0.0046 0.0381,0.01023 0.0681,0.03916 0.0797,0.07691 0.005,0.02081 0.009,0.04198 0.01,0.0635 0.001,0.04128 0.001,0.0822 0,0.123473 3.5e-4,0.0187 0,0.03739 -3.6e-4,0.05609 l -7e-4,0.01341 c -7.1e-4,0.02011 -0.004,0.04022 -0.0113,0.05927 z m 3.24309,-0.05927 c -7.1e-4,0.02081 7e-4,0.04163 0.004,0.06174 0.004,0.02858 0.0166,0.05539 0.0356,0.07691 0.0201,0.02222 0.0473,0.0374 0.0765,0.04269 0.024,0.0042 0.0487,0.0046 0.0727,7.05e-4 0.0314,-0.0039 0.06,-0.01834 0.0822,-0.04057 0.0166,-0.01764 0.0275,-0.03916 0.0328,-0.06279 0.003,-0.0194 0.005,-0.0388 0.006,-0.05821 0.002,-0.04374 0.003,-0.08784 0.002,-0.131233 0,-0.02152 -0.002,-0.04269 -0.007,-0.06315 -0.003,-0.01587 -0.009,-0.0314 -0.018,-0.04515 -0.0215,-0.03034 -0.0557,-0.04939 -0.0924,-0.05186 -0.0289,-0.0018 -0.0582,0.0049 -0.0829,0.02011 0,-0.01164 -3.5e-4,-0.02399 -7.1e-4,-0.03598 0,-0.02434 7.1e-4,-0.04904 0.002,-0.07303 3.6e-4,-0.0095 0.002,-0.01905 0.005,-0.02787 0.005,-0.0127 0.0176,-0.02152 0.0318,-0.02223 0.008,-7.06e-4 0.0159,0 0.0233,0.0025 0.007,0.0025 0.0123,0.0067 0.0159,0.01235 0.003,0.0063 0.005,0.0134 0.005,0.02011 7.1e-4,0.02434 3.5e-4,0.04833 -3.5e-4,0.07267 h 0.1076 c 0.002,-0.0254 0.003,-0.05115 0.002,-0.07655 3.5e-4,-0.02046 -0.004,-0.04092 -0.0116,-0.05997 -0.0148,-0.0321 -0.042,-0.0568 -0.0748,-0.0695 -0.0254,-0.0081 -0.0522,-0.01164 -0.0787,-0.0099 -0.0212,3.53e-4 -0.042,0.0053 -0.061,0.01517 -0.0194,0.01058 -0.0363,0.0254 -0.0487,0.0441 -0.0162,0.0254 -0.0258,0.05503 -0.0275,0.08537 -0.002,0.03246 -0.002,0.06456 -0.001,0.09701 v 0.05221 l -7.1e-4,0.05256 c 0,0.0575 0,0.1143 -7e-4,0.171803 z m 0.13052,0.06985 c 0.0127,0.0081 0.0293,0.0088 0.0427,0.0021 0.0127,-0.0074 0.0212,-0.01975 0.0233,-0.03387 7.1e-4,-0.01411 0.001,-0.02822 0.001,-0.04269 10e-4,-0.03528 10e-4,-0.07056 10e-4,-0.106186 0,-0.0099 -0.002,-0.01976 -0.006,-0.02928 -0.006,-0.01446 -0.0201,-0.02364 -0.036,-0.02469 -0.008,-0.0011 -0.0166,7.05e-4 -0.0236,0.0042 -0.008,0.0056 -0.0148,0.01305 -0.018,0.02223 -0.002,0.0067 -0.004,0.01411 -0.004,0.02117 -3.5e-4,0.0039 -3.5e-4,0.0081 -3.5e-4,0.01199 v 0.123825 c -3.5e-4,0.0085 3.5e-4,0.01658 0.002,0.02434 l 0.001,0.0039 c 0.002,0.0095 0.007,0.01764 0.0159,0.02293 z m -9.74336,-0.363009 c -0.0127,0.01905 -0.01,0.04445 0.007,0.06068 l 0.13052,0.123472 c -0.0434,0.04233 -0.0871,0.08467 -0.13052,0.126648 l -7.1e-4,7.05e-4 c -0.0141,0.02223 -0.008,0.05151 0.0141,0.06632 0.0222,0.01446 0.0381,0.02223 0.0533,3.53e-4 l 0.16828,-0.162278 c 0.008,-0.0099 0.0123,-0.02258 0.0116,-0.03563 -7.1e-4,-0.01164 -0.006,-0.02258 -0.0145,-0.03069 l -0.16652,-0.157339 c -0.01,-0.0099 -0.0236,-0.01482 -0.0381,-0.0134 -0.0138,0.0018 -0.0265,0.0092 -0.0342,0.02117 z m 1.90358,-0.0321 -0.16862,0.16263 c -0.006,0.0078 -0.0102,0.01693 -0.0116,0.02681 -0.001,0.01482 0.004,0.02928 0.0148,0.03986 l 0.16616,0.156986 c 0.01,0.0095 0.0233,0.01446 0.0367,0.01341 0.0138,-0.0011 0.0265,-0.0081 0.0342,-0.0194 0.0127,-0.01764 0.0123,-0.04198 -10e-4,-0.05891 -0.001,-0.0014 -0.002,-0.0025 -0.003,-0.0042 l -0.13124,-0.12312 0.13018,-0.125588 c 0.0134,-0.0127 0.018,-0.0321 0.012,-0.05009 -0.006,-0.01764 -0.0219,-0.02999 -0.0402,-0.0314 l -0.004,-3.53e-4 c -0.0127,-3.53e-4 -0.025,0.0049 -0.0339,0.01341 z m 3.20676,0.245533 -0.002,0.0053 -0.1711,0.165452 c -0.0194,0.0187 -0.0494,0.01799 -0.0681,-7.05e-4 -0.008,-0.0092 -0.0134,-0.02152 -0.013,-0.03387 3.5e-4,-0.01305 0.006,-0.02469 0.0148,-0.03351 l 0.13017,-0.125589 -0.13123,-0.123472 c -0.0176,-0.01764 -0.019,-0.04586 -0.003,-0.06526 0.009,-0.0099 0.0208,-0.01552 0.0335,-0.01623 0.0131,-7.06e-4 0.0254,0.0035 0.0353,0.01235 l 0.16722,0.158044 c 0.0152,0.01517 0.0187,0.03881 0.008,0.0575 z m 1.6136,-0.249061 -0.16863,0.162278 c -0.006,0.0078 -0.0102,0.01693 -0.0113,0.02681 -0.002,0.01482 0.004,0.02963 0.0145,0.03951 l 0.16616,0.157339 c 0.01,0.0095 0.0233,0.01446 0.0367,0.0134 0.0138,-0.0011 0.0261,-0.0081 0.0342,-0.0194 0.0127,-0.01764 0.0123,-0.04163 -0.002,-0.05891 -0.001,-0.0011 -0.002,-0.0028 -0.004,-0.0039 l -0.13088,-0.123825 0.12982,-0.125236 c 0.0138,-0.0127 0.0187,-0.03246 0.0127,-0.05009 -0.006,-0.01764 -0.0222,-0.02999 -0.0409,-0.0314 l -0.003,-3.52e-4 c -0.0124,0 -0.0247,0.0049 -0.0335,0.01376 z m 1.98967,0.09807 h -0.0564 v -0.06174 h 0.17004 l -0.0709,0.111125 h 0.0557 v 0.06174 h -0.16793 z m 0.25223,-0.01658 h -0.13723 l 0.048,-0.07726 h -0.031 v -0.05221 h 0.12736 l -0.0494,0.07726 h 0.0423 z m 2.03871,17.361606 c -0.0194,-0.01411 -0.0448,-0.01623 -0.0656,-0.0049 -0.0212,0.01094 -0.0342,0.03281 -0.0335,0.05645 3.5e-4,0.02364 0.004,0.03845 0.0254,0.04868 0.14005,0.103011 0.22154,0.267406 0.21837,0.441325 -0.003,0.17392 -0.0907,0.335841 -0.2339,0.434621 -0.0572,0.0392 -0.0914,0.10407 -0.0914,0.17357 v 0.46672 c 0.009,0.0272 0.0339,0.0455 0.0628,0.0455 0.0282,-3.5e-4 0.0533,-0.0183 0.0617,-0.0455 V 100.365 c 0,-0.0275 0.0127,-0.0533 0.0349,-0.0695 l 0.002,-0.002 c 0.17675,-0.12136 0.28364,-0.320677 0.28716,-0.535166 0.003,-0.214489 -0.096,-0.416278 -0.26846,-0.543278 z m -0.84491,1.119366 c 0.0381,0.0395 0.06,0.0924 0.06,0.14746 v 0.34819 c -0.005,0.0303 -0.0303,0.0529 -0.0607,0.0536 -0.0307,7.1e-4 -0.0579,-0.0236 -0.0639,-0.0536 v -0.34819 c 0,-0.0229 -0.009,-0.0441 -0.0243,-0.0603 -0.23071,-0.23601 -0.31855,-0.576792 -0.23177,-0.894998 0.0138,-0.02399 0.0413,-0.03669 0.0684,-0.0314 0.0272,0.0056 0.048,0.02858 0.0512,0.05609 l 3.5e-4,0.0071 c -0.0755,0.276578 7.1e-4,0.571498 0.20073,0.776108 z m 0.0367,-0.587024 c -7e-4,0.02893 -0.0205,0.05397 -0.048,0.06103 -0.0286,0.0071 -0.0586,-0.0064 -0.0727,-0.03104 -0.0441,-0.174625 -0.0416,-0.357717 0.007,-0.531283 0.0141,-0.02328 0.0416,-0.03528 0.0684,-0.02963 0.0265,0.0053 0.0469,0.02752 0.0508,0.05433 l 7.1e-4,0.0078 c -0.0427,0.153106 -0.0448,0.314325 -0.006,0.468842 z m 0.25859,-0.08573 c -0.0571,-0.2286 -0.0243,-0.470606 0.0928,-0.675217 0.0106,-0.0194 0.0106,-0.04304 -7.1e-4,-0.06209 -0.0113,-0.0194 -0.0321,-0.03104 -0.0543,-0.03069 -0.0226,3.52e-4 -0.0423,0.01199 -0.0533,0.0314 -0.12982,0.227894 -0.16898,0.497064 -0.10865,0.752828 l 0.003,0.01341 c 0.0127,0.02822 0.0441,0.04269 0.0737,0.03492 0.03,-0.0081 0.0501,-0.03387 0.0473,-0.06456 z m 0.18556,-0.06138 c 0.0123,0.02999 0.0455,0.04586 0.0765,0.03634 0.0307,-0.0095 0.0508,-0.03422 0.0441,-0.06597 -0.0773,-0.312208 0.0145,-0.642055 0.24201,-0.869244 0.008,-0.02364 0.003,-0.04974 -0.0134,-0.06844 -0.0162,-0.01835 -0.0413,-0.02716 -0.0656,-0.02187 l -0.009,0.0021 c -0.25894,0.257881 -0.36336,0.632531 -0.27517,0.987073 z m -2.23097,0.753534 0.16757,-0.25541 c 0.0385,-0.0589 0.0353,-0.135469 -0.009,-0.190855 l -0.0974,-0.123472 c -0.10548,-0.132997 -0.11394,-0.318911 -0.0208,-0.461081 l 0.12983,-0.197555 0.10265,0.06809 -0.12911,0.197203 c -0.0639,0.09772 -0.0586,0.225425 0.0141,0.316794 l 0.0977,0.123472 c 0.0765,0.09666 0.0825,0.231774 0.0148,0.335144 l -0.16757,0.25576 z m -0.15416,-0.18768 -0.16792,0.25577 -0.10266,-0.0681 0.16722,-0.25542 c 0.0384,-0.0589 0.0353,-0.135463 -0.008,-0.190849 l -0.0974,-0.123472 c -0.10548,-0.132997 -0.11395,-0.318911 -0.0208,-0.461081 l 0.12946,-0.197555 0.10302,0.06809 -0.12947,0.197203 c -0.0639,0.09772 -0.0582,0.225425 0.0141,0.316794 l 0.0981,0.123472 c 0.0765,0.09666 0.0825,0.231778 0.0148,0.335138 z m -0.69568,0.18768 0.16757,-0.25541 c 0.0385,-0.0589 0.0353,-0.135469 -0.009,-0.190855 l -0.0974,-0.123472 c -0.10548,-0.132997 -0.11359,-0.318911 -0.0205,-0.461081 l 0.12912,-0.197555 0.10301,0.06809 -0.12947,0.197203 c -0.0639,0.09772 -0.0586,0.225425 0.0141,0.316794 l 0.0981,0.123472 c 0.0765,0.09666 0.0825,0.231774 0.0152,0.335144 l -0.16792,0.25576 z m -1.6771,-6.57719 0.18415,0.163689 -0.1771,0.131233 h -0.4579 l -0.1584,-0.135467 0.16792,-0.159455 z m -0.77894,0.01446 0.12736,0.108655 0.17356,-0.164747 0.0723,-0.829734 -0.15346,-0.167216 -0.13864,0.126294 z m 0.88724,-0.92322 h -0.47272 l -0.15381,-0.167922 0.13828,-0.126647 h 0.54293 l 0.12206,0.132644 z m -1.02941,-0.386997 v -0.0035 c 0,-0.07408 -0.06,-0.134761 -0.1344,-0.135467 -0.0744,0 -0.13547,0.05962 -0.13653,0.133703 -7.1e-4,0.07479 0.0586,0.13582 0.133,0.137231 0.0744,0.0014 0.13617,-0.0575 0.13793,-0.131939 z m 0.12418,0.0028 v -0.0063 c 0,-0.142522 -0.11536,-0.258586 -0.25788,-0.259292 -0.14287,-0.0011 -0.25929,0.113595 -0.26105,0.256117 -0.002,0.142875 0.11183,0.259997 0.2547,0.262819 0.14252,0.0025 0.2607,-0.110772 0.26423,-0.253294 z m -3.2004,0.415219 0.36125,0.394053 -0.0875,0.997303 -0.27588,0.252942 -0.22789,-0.248356 0.096,-1.096433 c 0.01,-0.111831 0.0571,-0.217664 0.13405,-0.299509 z m 0.27623,1.948392 h 0.7881 l 0.27623,-0.253294 -0.2279,-0.248709 h -0.78775 l -0.27623,0.253295 z m -0.54152,1.413228 0.39899,-0.365478 0.0868,-0.997303 -0.22754,-0.248355 -0.27622,0.252942 -0.0878,1.004358 c -0.0109,0.127353 0.0265,0.253647 0.10583,0.353836 z m 1.2887,0.191206 c 0.11254,0 0.22154,-0.03775 0.31009,-0.107245 l -0.36124,-0.394053 h -0.78776 l -0.39899,0.365831 c 0.0931,0.08714 0.21555,0.135467 0.3429,0.135467 z m 0.23671,-3.711223 c 0.12771,0 0.25048,0.04868 0.34361,0.13582 l -0.39935,0.365477 h -0.7874 l -0.36124,-0.3937 c 0.0882,-0.0695 0.1972,-0.107597 0.31009,-0.107597 z m -3.76272,0.158397 0.36124,0.394053 -0.0868,0.997303 -0.27622,0.252942 -0.2279,-0.248356 0.096,-1.096433 c 0.01,-0.111831 0.0568,-0.217664 0.1337,-0.299509 z m 0.27622,1.948392 h 0.78811 l 0.27622,-0.253294 -0.22754,-0.248709 h -0.78811 l -0.27622,0.253295 z m -0.54151,1.413228 0.39899,-0.365478 0.0875,-0.997303 -0.2279,-0.248355 -0.27587,0.252942 -0.0886,1.004358 c -0.0106,0.127353 0.0268,0.253647 0.10583,0.353836 z m 1.28869,0.191206 c 0.11254,0 0.22155,-0.03775 0.3101,-0.107245 l -0.36125,-0.394053 h -0.78775 l -0.39899,0.365831 c 0.0931,0.08714 0.21554,0.135467 0.34325,0.135467 z m 0.23672,-3.711223 c 0.1277,0 0.25082,0.04868 0.3436,0.13582 l -0.39899,0.365477 h -0.78775 l -0.36125,-0.3937 c 0.0882,-0.0695 0.19756,-0.107597 0.30974,-0.107597 z m 0.3944,0.191206 -0.39899,0.36583 -0.0875,0.997303 0.22754,0.248356 0.27658,-0.252942 0.0878,-1.004358 c 0.0109,-0.127353 -0.0265,-0.253648 -0.10548,-0.354189 z m -0.62653,2.967919 0.36124,0.394053 c 0.0769,-0.08184 0.12418,-0.187325 0.13371,-0.299861 l 0.096,-1.096081 -0.2279,-0.248355 -0.27587,0.252942 z m 3.12879,-2.967919 -0.39864,0.36583 -0.0875,0.997303 0.22754,0.248356 0.27622,-0.252942 0.0878,-1.004358 c 0.0113,-0.127353 -0.0265,-0.253648 -0.10548,-0.354189 z m -0.62618,2.967919 0.36089,0.394053 c 0.0773,-0.08184 0.12453,-0.187325 0.13405,-0.299861 l 0.096,-1.096081 -0.22754,-0.248355 -0.27658,0.252942 z m 1.32397,0.366889 c 0,-0.102658 -0.0829,-0.185561 -0.18521,-0.185561 -0.10266,0 -0.18591,0.0829 -0.18591,0.185561 0,0.102306 0.0833,0.185209 0.18591,0.185209 0.10231,0 0.18521,-0.0829 0.18521,-0.185209 z m 1.2566,-0.62865 0.10407,0.113595 -0.043,0.490008 c -0.004,0.04763 -0.0229,0.09313 -0.0547,0.129822 l -0.1718,-0.187677 0.0377,-0.428978 z m -0.16828,0.813859 c 0.0476,0 0.0949,-0.01517 0.1337,-0.04269 l -0.1718,-0.188031 h -0.29139 l -0.19121,0.175331 c 0.0416,0.03598 0.0949,0.05539 0.14958,0.05539 z m -0.56162,-0.697089 0.1277,-0.11677 0.10443,0.113595 -0.0381,0.428625 -0.19086,0.17533 c -0.0321,-0.0448 -0.0473,-0.09948 -0.0423,-0.154164 z m 0.85795,-0.913695 -0.1912,0.175684 -0.0377,0.428625 0.10442,0.113947 0.12735,-0.117475 0.0392,-0.446264 c 0.005,-0.05503 -0.01,-0.109361 -0.042,-0.154517 z m -0.56162,0.642056 h 0.29175 l 0.10407,0.113594 -0.12771,0.11677 h -0.29139 l -0.10442,-0.113242 z m -0.22613,-0.527756 -0.0434,0.490009 0.10442,0.113947 0.12771,-0.117475 0.0374,-0.428625 -0.1718,-0.187678 c -0.0314,0.03669 -0.0505,0.0822 -0.0543,0.129822 z m 0.60008,-0.210608 c 0.055,0 0.1083,0.01975 0.14993,0.05574 l -0.19121,0.174978 h -0.29175 l -0.17145,-0.187325 c 0.0388,-0.02822 0.0857,-0.04339 0.13406,-0.04339 z"
       style="display:inline;fill:none;stroke:#231f20;stroke-width:0.0762;stroke-linecap:butt;stroke-linejoin:bevel;stroke-miterlimit:22.926;stroke-dasharray:none;stroke-opacity:1"
       id="path458" />
    <rect
       style="fill:none;stroke:#ff0000;stroke-width:0.1"
       id="rect845"
       width="5.793304"
       height="3.4362693"
       x="181.15198"
       y="80.346268" />
  </g>
</svg>
