<?xml version="1.0" encoding="UTF-8" standalone="no"?>
<!-- Created with Inkscape (http://www.inkscape.org/) -->

<svg
   width="2.1166666mm"
   height="2.1166666mm"
   viewBox="0 0 2.1166665 2.1166666"
   version="1.1"
   id="svg2507"
   inkscape:version="1.1.2 (0a00cf5339, 2022-02-04)"
   sodipodi:docname="ui-work-mode-2.svg"
   xmlns:inkscape="http://www.inkscape.org/namespaces/inkscape"
   xmlns:sodipodi="http://sodipodi.sourceforge.net/DTD/sodipodi-0.dtd"
   xmlns="http://www.w3.org/2000/svg"
   xmlns:svg="http://www.w3.org/2000/svg">
  <sodipodi:namedview
     id="namedview2509"
     pagecolor="#ffffff"
     bordercolor="#666666"
     borderopacity="1.0"
     inkscape:pageshadow="2"
     inkscape:pageopacity="0.0"
     inkscape:pagecheckerboard="0"
     inkscape:document-units="mm"
     showgrid="false"
     fit-margin-top="0"
     fit-margin-left="0"
     fit-margin-right="0"
     fit-margin-bottom="0"
     inkscape:zoom="36.717396"
     inkscape:cx="5.4061568"
     inkscape:cy="5.7738299"
     inkscape:window-width="1920"
     inkscape:window-height="1007"
     inkscape:window-x="1920"
     inkscape:window-y="0"
     inkscape:window-maximized="1"
     inkscape:current-layer="layer1" />
  <defs
     id="defs2504" />
  <g
     inkscape:label="Слой 1"
     inkscape:groupmode="layer"
     id="layer1"
     transform="translate(-102.14146,-120.11794)">
    <rect
       style="fill:#ffffff;fill-opacity:1;stroke:none;stroke-width:0.0647995"
       id="rect2599"
       width="2.1166666"
       height="2.1166666"
       x="102.14146"
       y="120.11794" />
    <path
       d="m 103.59973,120.71916 c -0.0167,-0.0121 -0.0385,-0.0139 -0.0564,-0.004 -0.0182,0.009 -0.0294,0.0282 -0.0288,0.0485 2.9e-4,0.0203 0.003,0.0331 0.0218,0.0419 0.12044,0.0886 0.19052,0.22997 0.18779,0.37953 -0.003,0.14957 -0.078,0.28882 -0.20114,0.37376 -0.0492,0.0337 -0.0786,0.0895 -0.0786,0.14927 v 0.40136 c 0.008,0.0234 0.0292,0.0391 0.054,0.0391 0.0243,-2.9e-4 0.0458,-0.0157 0.0531,-0.0391 v -0.40136 c 0,-0.0237 0.0109,-0.0458 0.03,-0.0598 l 0.002,-0.002 c 0.15199,-0.10437 0.24391,-0.27577 0.24695,-0.46022 0.003,-0.18446 -0.0826,-0.35799 -0.23087,-0.46721 z m -0.72659,0.96262 c 0.0328,0.034 0.0516,0.0795 0.0516,0.12682 v 0.29943 c -0.004,0.0261 -0.026,0.0455 -0.0522,0.0461 -0.0264,6.2e-4 -0.0498,-0.0203 -0.055,-0.0461 v -0.29943 c 0,-0.0197 -0.008,-0.0379 -0.0209,-0.0519 -0.1984,-0.20296 -0.27394,-0.49602 -0.19931,-0.76967 0.0119,-0.0206 0.0355,-0.0316 0.0588,-0.027 0.0234,0.005 0.0413,0.0246 0.0439,0.0482 l 2.9e-4,0.006 c -0.0649,0.23785 6.2e-4,0.49147 0.17262,0.66743 z m 0.0316,-0.50482 c -6.1e-4,0.0249 -0.0176,0.0464 -0.0413,0.0525 -0.0246,0.006 -0.0504,-0.005 -0.0625,-0.0267 -0.0379,-0.15017 -0.0358,-0.30763 0.006,-0.45689 0.0121,-0.02 0.0358,-0.0304 0.0588,-0.0255 0.0228,0.004 0.0403,0.0237 0.0437,0.0467 l 6.2e-4,0.007 c -0.0367,0.13167 -0.0385,0.27032 -0.005,0.4032 z m 0.22238,-0.0737 c -0.0492,-0.19658 -0.0209,-0.40471 0.0798,-0.58066 0.009,-0.0167 0.009,-0.037 -6.2e-4,-0.0534 -0.01,-0.0167 -0.0276,-0.0267 -0.0467,-0.0264 -0.0194,2.9e-4 -0.0364,0.0103 -0.0458,0.027 -0.11164,0.19598 -0.14532,0.42746 -0.0934,0.64742 l 0.003,0.0115 c 0.0109,0.0242 0.0379,0.0367 0.0634,0.03 0.0258,-0.007 0.0431,-0.0292 0.0407,-0.0555 z m 0.15957,-0.0528 c 0.0106,0.0258 0.0391,0.0395 0.0658,0.0312 0.0264,-0.008 0.0437,-0.0294 0.0379,-0.0568 -0.0665,-0.26849 0.0125,-0.55215 0.20812,-0.74753 0.007,-0.0203 0.003,-0.0427 -0.0115,-0.0588 -0.0139,-0.0157 -0.0355,-0.0234 -0.0564,-0.0188 l -0.007,0.002 c -0.22268,0.22177 -0.31249,0.54395 -0.23664,0.84886 z"
       style="display:inline;fill:none;stroke:#231f20;stroke-width:0.0173381;stroke-linecap:butt;stroke-linejoin:bevel;stroke-miterlimit:22.926;stroke-dasharray:none;stroke-opacity:1"
       id="path3122" />
  </g>
</svg>
