<?xml version="1.0" encoding="UTF-8" standalone="no"?>
<!-- Created with Inkscape (http://www.inkscape.org/) -->

<svg
   width="2.1166666mm"
   height="2.1166666mm"
   viewBox="0 0 2.1166665 2.1166666"
   version="1.1"
   id="svg2507"
   inkscape:version="1.1.2 (0a00cf5339, 2022-02-04)"
   sodipodi:docname="ui-work-mode-1.svg"
   xmlns:inkscape="http://www.inkscape.org/namespaces/inkscape"
   xmlns:sodipodi="http://sodipodi.sourceforge.net/DTD/sodipodi-0.dtd"
   xmlns="http://www.w3.org/2000/svg"
   xmlns:svg="http://www.w3.org/2000/svg">
  <sodipodi:namedview
     id="namedview2509"
     pagecolor="#ffffff"
     bordercolor="#666666"
     borderopacity="1.0"
     inkscape:pageshadow="2"
     inkscape:pageopacity="0.0"
     inkscape:pagecheckerboard="0"
     inkscape:document-units="mm"
     showgrid="false"
     fit-margin-top="0"
     fit-margin-left="0"
     fit-margin-right="0"
     fit-margin-bottom="0"
     inkscape:zoom="36.717396"
     inkscape:cx="5.4061568"
     inkscape:cy="5.7738299"
     inkscape:window-width="1920"
     inkscape:window-height="1007"
     inkscape:window-x="1920"
     inkscape:window-y="0"
     inkscape:window-maximized="1"
     inkscape:current-layer="layer1" />
  <defs
     id="defs2504" />
  <g
     inkscape:label="Слой 1"
     inkscape:groupmode="layer"
     id="layer1"
     transform="translate(-102.14146,-120.11794)">
    <rect
       style="fill:#ffffff;fill-opacity:1;stroke:none;stroke-width:0.0647995"
       id="rect2599"
       width="2.1166666"
       height="2.1166666"
       x="102.14146"
       y="120.11794" />
    <path
       d="m 102.35313,121.8196 v 0.19579 h 1.69333 v -0.19575 z m 1.12501,-0.25574 0.16756,-0.25541 c 0.0385,-0.0589 0.0353,-0.13547 -0.009,-0.19085 l -0.0974,-0.12347 c -0.10548,-0.133 -0.11394,-0.31891 -0.0208,-0.46108 l 0.12982,-0.19756 0.10266,0.0681 -0.12912,0.1972 c -0.0639,0.0977 -0.0586,0.22543 0.0141,0.3168 l 0.0977,0.12347 c 0.0765,0.0967 0.0825,0.23177 0.0148,0.33514 l -0.16757,0.25576 z m -0.15417,-0.18768 -0.16792,0.25577 -0.10266,-0.0681 0.16722,-0.25541 c 0.0384,-0.0589 0.0353,-0.13547 -0.008,-0.19086 l -0.0974,-0.12347 c -0.10548,-0.13299 -0.11395,-0.31891 -0.0208,-0.46108 l 0.12947,-0.19755 0.10301,0.0681 -0.12947,0.1972 c -0.0639,0.0977 -0.0582,0.22542 0.0141,0.31679 l 0.0981,0.12348 c 0.0766,0.0967 0.0826,0.23177 0.0148,0.33513 z m -0.69568,0.18768 0.16757,-0.25541 c 0.0384,-0.0589 0.0353,-0.13547 -0.009,-0.19085 l -0.0974,-0.12347 c -0.10548,-0.133 -0.11359,-0.31891 -0.0205,-0.46108 l 0.12912,-0.19756 0.10301,0.0681 -0.12947,0.1972 c -0.0639,0.0977 -0.0586,0.22543 0.0141,0.3168 l 0.0981,0.12347 c 0.0765,0.0967 0.0825,0.23177 0.0152,0.33514 l -0.16792,0.25576 z"
       style="display:inline;fill:none;stroke:#231f20;stroke-width:0.0201613;stroke-linecap:butt;stroke-linejoin:bevel;stroke-miterlimit:22.926;stroke-dasharray:none;stroke-opacity:1"
       id="path2456" />
  </g>
</svg>
