<?xml version="1.0" encoding="UTF-8" standalone="no"?>
<!-- Created with Inkscape (http://www.inkscape.org/) -->

<svg
   width="2.1166666mm"
   height="2.1166666mm"
   viewBox="0 0 2.1166665 2.1166666"
   version="1.1"
   id="svg2507"
   inkscape:version="1.1.2 (0a00cf5339, 2022-02-04)"
   sodipodi:docname="ui-work-mode-4.svg"
   xmlns:inkscape="http://www.inkscape.org/namespaces/inkscape"
   xmlns:sodipodi="http://sodipodi.sourceforge.net/DTD/sodipodi-0.dtd"
   xmlns="http://www.w3.org/2000/svg"
   xmlns:svg="http://www.w3.org/2000/svg">
  <sodipodi:namedview
     id="namedview2509"
     pagecolor="#ffffff"
     bordercolor="#666666"
     borderopacity="1.0"
     inkscape:pageshadow="2"
     inkscape:pageopacity="0.0"
     inkscape:pagecheckerboard="0"
     inkscape:document-units="mm"
     showgrid="false"
     fit-margin-top="0"
     fit-margin-left="0"
     fit-margin-right="0"
     fit-margin-bottom="0"
     inkscape:zoom="36.717396"
     inkscape:cx="5.4333918"
     inkscape:cy="5.7738299"
     inkscape:window-width="1920"
     inkscape:window-height="1007"
     inkscape:window-x="1920"
     inkscape:window-y="0"
     inkscape:window-maximized="1"
     inkscape:current-layer="layer1" />
  <defs
     id="defs2504" />
  <g
     inkscape:label="Слой 1"
     inkscape:groupmode="layer"
     id="layer1"
     transform="translate(-102.14146,-120.11794)">
    <rect
       style="fill:#ffffff;fill-opacity:1;stroke:none;stroke-width:0.0647995"
       id="rect2599"
       width="2.1166666"
       height="2.1166666"
       x="102.14146"
       y="120.11794" />
    <path
       d="m 102.57136,120.54815 c -0.16691,0.16661 -0.26061,0.39247 -0.26031,0.62827 -2.9e-4,0.23549 0.0934,0.46167 0.26031,0.62828 0.16661,0.16661 0.39249,0.26061 0.62828,0.26061 0.2358,0 0.46197,-0.0937 0.62858,-0.26061 0.16693,-0.16661 0.26032,-0.39279 0.26032,-0.62828 0,-0.2358 -0.0934,-0.46166 -0.26032,-0.62827 -0.1635,-0.16382 -0.38409,-0.25752 -0.61555,-0.26063 l -0.013,-2.9e-4 c -0.2358,2.9e-4 -0.46166,0.094 -0.62827,0.26093 z m 1.17837,0.0785 c -0.14614,-0.14614 -0.34377,-0.22804 -0.55009,-0.22804 -0.20632,0 -0.40396,0.0819 -0.54978,0.22804 -0.14706,0.14675 -0.22928,0.34655 -0.22804,0.55474 0.002,0.20447 0.0831,0.40024 0.22804,0.54451 0.14862,0.14892 0.35152,0.23114 0.56157,0.22804 0.2026,-0.003 0.39527,-0.0847 0.5383,-0.22804 0.14303,-0.14273 0.22494,-0.33602 0.22742,-0.53861 v -0.0108 c 3e-4,-0.20633 -0.0816,-0.40396 -0.22742,-0.54979 z m -1.16131,0.60501 c 0.0195,6.3e-4 0.0388,6.3e-4 0.0583,0 0.0298,-0.008 0.0484,-0.0378 0.0416,-0.068 -0.007,-0.0301 -0.014,-0.0493 -0.0441,-0.0428 -0.0193,-6.2e-4 -0.0388,-6.2e-4 -0.0583,0 -0.0295,8.8e-4 -0.0528,0.0258 -0.0528,0.0556 v 8.7e-4 c 6.4e-4,0.0304 0.0254,0.0543 0.0552,0.054 z m 1.22212,-0.11076 c -0.0193,-6.3e-4 -0.0385,-6.3e-4 -0.058,0 -0.0301,0.007 -0.0487,0.0378 -0.0416,0.0676 0.007,0.0304 0.014,0.0493 0.0441,0.0434 0.0195,3.1e-4 0.0391,3.1e-4 0.0587,-3e-4 0.0286,-8.8e-4 0.0512,-0.0239 0.0528,-0.0524 v -0.003 c 0,-0.0149 -0.006,-0.0292 -0.0165,-0.0394 -0.0105,-0.0106 -0.0245,-0.0161 -0.0394,-0.0161 z m -0.55537,0.60811 c -0.008,-0.0298 -0.0382,-0.0481 -0.0682,-0.0412 -0.0301,0.007 -0.0493,0.014 -0.0428,0.0441 -2.9e-4,0.0195 -2.9e-4,0.039 3.1e-4,0.0583 0.004,0.0295 0.0319,0.0502 0.0617,0.0465 0.0295,-0.004 0.0508,-0.0168 0.049,-0.0465 v -0.003 c 6.2e-4,-0.0193 6.2e-4,-0.0388 0,-0.0583 z m -0.0772,-0.50169 0.38876,0.16661 c 0.0422,-0.0208 0.0599,-0.0723 0.0388,-0.11511 -0.0214,-0.0422 0.0475,-0.008 0.005,0.0134 l -0.35525,-0.15234 v -0.5746 c 0,-0.0199 -0.0105,-0.0382 -0.0279,-0.0481 -0.0171,-0.01 -0.0384,-0.01 -0.0556,0 -0.0171,0.01 -0.0276,0.0282 -0.0276,0.0481 v 0.61121 c 0,0.022 0.0134,0.0422 0.0339,0.0508 z"
       style="display:inline;fill:none;stroke:#231f20;stroke-width:0.0177314;stroke-linecap:butt;stroke-linejoin:bevel;stroke-miterlimit:22.926;stroke-dasharray:none;stroke-opacity:1"
       id="path3260" />
  </g>
</svg>
