<?xml version="1.0" encoding="UTF-8" standalone="no"?>
<!-- Created with Inkscape (http://www.inkscape.org/) -->

<svg
   width="2.1166666mm"
   height="2.1166666mm"
   viewBox="0 0 2.1166665 2.1166666"
   version="1.1"
   id="svg2507"
   inkscape:version="1.1.2 (0a00cf5339, 2022-02-04)"
   sodipodi:docname="ui-work-mode-3.svg"
   xmlns:inkscape="http://www.inkscape.org/namespaces/inkscape"
   xmlns:sodipodi="http://sodipodi.sourceforge.net/DTD/sodipodi-0.dtd"
   xmlns="http://www.w3.org/2000/svg"
   xmlns:svg="http://www.w3.org/2000/svg">
  <sodipodi:namedview
     id="namedview2509"
     pagecolor="#ffffff"
     bordercolor="#666666"
     borderopacity="1.0"
     inkscape:pageshadow="2"
     inkscape:pageopacity="0.0"
     inkscape:pagecheckerboard="0"
     inkscape:document-units="mm"
     showgrid="false"
     fit-margin-top="0"
     fit-margin-left="0"
     fit-margin-right="0"
     fit-margin-bottom="0"
     inkscape:zoom="36.717396"
     inkscape:cx="5.4333918"
     inkscape:cy="5.7738299"
     inkscape:window-width="1920"
     inkscape:window-height="1007"
     inkscape:window-x="1920"
     inkscape:window-y="0"
     inkscape:window-maximized="1"
     inkscape:current-layer="layer1" />
  <defs
     id="defs2504" />
  <g
     inkscape:label="Слой 1"
     inkscape:groupmode="layer"
     id="layer1"
     transform="translate(-102.14146,-120.11794)">
    <rect
       style="fill:#ffffff;fill-opacity:1;stroke:none;stroke-width:0.0647995"
       id="rect2599"
       width="2.1166666"
       height="2.1166666"
       x="102.14146"
       y="120.11794" />
    <path
       d="m 102.85072,121.22965 v 0.0878 l -0.061,0.0353 -0.11289,-0.0593 -0.0896,0.0515 0.11077,0.0603 -0.0325,0.0187 -0.0656,-0.0335 -0.0896,0.0512 0.0639,0.0349 -0.0656,0.0381 -0.0194,0.0699 0.0709,0.019 0.0656,-0.0378 -10e-4,0.072 0.0896,-0.0515 0.003,-0.073 0.0328,-0.0187 -0.003,0.12523 0.0896,-0.0512 0.005,-0.127 0.0554,-0.0318 0.085,0.0494 -0.0247,0.12947 0.10865,-0.0815 0.0825,0.0473 v 0.0635 l -0.1083,0.0674 v 0.10301 l 0.1083,-0.0653 v 0.0374 l -0.0621,0.0399 v 0.10301 l 0.0621,-0.0378 v 0.0759 l 0.0512,0.0511 0.0515,-0.0511 v -0.0759 l 0.0624,0.0378 v -0.10301 l -0.0624,-0.0399 v -0.0374 l 0.10795,0.0653 v -0.10301 l -0.10795,-0.0674 v -0.0586 l 0.0878,-0.0504 0.097,0.0833 -0.0159,-0.12947 0.0875,-0.0504 0.0504,0.0296 0.005,0.12665 0.0892,0.0515 -0.003,-0.12559 0.0332,0.0187 0.003,0.073 0.09,0.0519 -0.001,-0.0723 0.0656,0.0378 0.0709,-0.019 -0.0191,-0.0699 -0.066,-0.0378 0.0635,-0.0353 -0.0893,-0.0512 -0.0656,0.0339 -0.0328,-0.0187 0.11077,-0.0607 -0.0892,-0.0512 -0.11289,0.0589 -0.0522,-0.0303 v -0.0988 l 0.12065,-0.042 -0.12065,-0.0515 v -0.10089 l 0.0522,-0.0286 0.11289,0.0593 0.0892,-0.0515 -0.11077,-0.0603 0.0332,-0.0191 0.0653,0.0335 0.0893,-0.0512 -0.0635,-0.0346 0.0663,-0.0377 0.0187,-0.0706 -0.0709,-0.0187 -0.0656,0.0378 0.001,-0.072 -0.0892,0.0515 -0.004,0.0727 -0.0328,0.019 0.003,-0.12559 -0.0892,0.0515 -0.005,0.12664 -0.0603,0.0324 -0.0808,-0.0462 0.0251,-0.13052 -0.10971,0.0818 -0.0811,-0.0466 v -0.0674 l 0.10795,-0.067 v -0.10301 l -0.10795,0.0656 v -0.0381 l 0.0621,-0.0392 v -0.103 l -0.0621,0.0374 v -0.0759 l -0.0519,-0.0515 -0.0511,0.0515 v 0.0759 l -0.0621,-0.0374 v 0.10301 l 0.0621,0.0392 v 0.0381 l -0.10795,-0.0656 v 0.10301 l 0.10795,0.067 v 0.072 l -0.0804,0.0462 -0.10443,-0.0896 0.0166,0.14006 -0.0741,0.0427 -0.0646,-0.0349 -0.005,-0.12665 -0.0896,-0.0515 0.003,0.12559 -0.0328,-0.0191 -0.003,-0.073 -0.09,-0.0515 0.001,0.0723 -0.0656,-0.0381 -0.0709,0.019 0.0194,0.0702 0.0656,0.0381 -0.0639,0.0346 0.0896,0.0512 0.0656,-0.0335 0.0325,0.0187 -0.11042,0.0607 0.0893,0.0512 0.11288,-0.0589 0.061,0.0328 v 0.096 l -0.12982,0.0448 z m 0.40005,0.121 0.0762,-0.0437 0.0875,0.0511 -0.16369,0.0938 z m -0.12665,-0.21519 v 0.0914 l 0.0797,0.0459 c 0.0265,-0.0152 0.0529,-0.0307 0.0797,-0.0459 v -0.0914 l -0.0797,-0.0462 c -0.0251,0.0145 -0.0494,0.0286 -0.0744,0.0427 l -7.2e-4,7.1e-4 z m 0.127,-0.12383 v -0.1016 l 0.15028,0.0864 -0.0903,0.049 -0.004,-0.002 c -0.0187,-0.0106 -0.0374,-0.0212 -0.0557,-0.0318 z m 0.12382,0.20391 v -0.0875 l 0.0882,-0.0483 v 0.18767 z m -0.43039,0.0483 v -0.17957 l 0.0882,0.0473 v 0.0815 z m 0.0459,0.0924 0.0875,-0.0508 c 0.0233,0.0134 0.0466,0.0268 0.0702,0.0402 v 0.10124 z m 0.1203,-0.31891 -0.0155,0.009 -0.002,0.001 -0.0903,-0.049 0.14535,-0.0836 v 0.10124 l -0.0187,0.0106 -7.1e-4,3.4e-4 z"
       style="display:inline;fill:none;stroke:#231f20;stroke-width:0.0201613;stroke-linecap:butt;stroke-linejoin:bevel;stroke-miterlimit:22.926;stroke-dasharray:none;stroke-opacity:1"
       id="path3153" />
  </g>
</svg>
